<svg width="66" height="54" viewBox="0 0 66 54" fill="none" xmlns="http://www.w3.org/2000/svg">
<rect x="42.6465" y="21.463" width="10" height="22.8663" rx="5" transform="rotate(-45.2083 42.6465 21.463)" fill="white"/>
<rect x="49.7897" y="14.3658" width="10" height="22.8663" rx="5" transform="rotate(44.7917 49.7897 14.3658)" fill="white"/>
<path d="M50 27C50 32.0647 48.3283 36.9878 45.2443 41.0052C42.1602 45.0227 37.8364 47.9099 32.9437 49.2187C28.0511 50.5276 22.8632 50.1849 18.1852 48.2438C13.5072 46.3028 9.60076 42.8719 7.072 38.4837C4.54325 34.0954 3.53364 28.9952 4.19985 23.9745C4.86607 18.9539 7.17086 14.2935 10.7565 10.7166C14.3422 7.13969 19.0083 4.84637 24.0306 4.19249C29.0529 3.53861 34.1506 4.56075 38.5326 7.10028" stroke="white" stroke-width="7" stroke-linecap="round" stroke-linejoin="round"/>
</svg>
