<svg width="68" height="105" viewBox="0 0 68 105" fill="none" xmlns="http://www.w3.org/2000/svg">
<g clip-path="url(#clip0_1_4791)">
<path d="M42.7909 55.0296C41.0167 53.6919 38.9827 55.2058 38.9827 55.2058L38.8169 50.3337C27.5582 49.018 21.3567 40.1822 19.2454 36.5268L19.168 36.5708C19.168 36.5708 19.1293 46.882 10.8276 51.176L10.8331 51.187L10.612 55.1232C10.612 55.1232 8.5449 53.4882 6.75412 54.8039C4.5267 56.45 5.81451 63.0727 11.4522 62.368C11.4522 62.368 15.6583 67.8787 21.4175 69.5798L21.3899 69.6679L21.0638 74.7822C22.1969 75.2061 23.9268 75.5969 26.1985 75.4097C27.9064 75.2611 29.15 74.9198 30.0177 74.5564C30.2167 74.4739 30.3936 74.3858 30.5538 74.3087L29.6971 69.2274L29.6253 69.0623C34.5499 67.0034 37.9989 62.5332 37.9989 62.5332C43.6255 63.3094 45.0017 56.7032 42.7909 55.0296Z" fill="#F2C6A5"/>
<path d="M43.4375 77.3421C39.0822 74.6555 30.0343 74.595 30.0343 74.595L30.0177 74.5564C30.2167 74.4739 30.3936 74.3858 30.5538 74.3087L29.6971 69.2274L29.6253 69.0623C34.5499 67.0034 37.9989 62.5332 37.9989 62.5332C43.6255 63.3094 45.0017 56.7032 42.7909 55.0296C41.0167 53.6919 38.9827 55.2058 38.9827 55.2058L38.8169 50.3337C27.5582 49.018 21.3567 40.1822 19.2454 36.5268L19.168 36.5708C19.168 36.5708 19.1293 46.882 10.8276 51.176L10.8331 51.187L10.612 55.1232C10.612 55.1232 8.5449 53.4882 6.75412 54.8039C4.5267 56.45 5.81451 63.0727 11.4522 62.368C11.4522 62.368 15.6583 67.8787 21.4175 69.5798L21.3899 69.6679L21.0638 74.7822V74.7877C21.0638 74.7877 13.652 74.7877 8.58912 77.8595C6.24563 79.2799 4.23376 83.9097 2.74697 88.4625L2.73591 88.457C2.73591 88.457 0.18239 44.4927 7.16865 36.2955C11.8004 30.8619 17.9741 31.7373 17.9741 31.7373C17.9741 31.7373 20.0192 28.5993 25.9553 28.1919C31.7311 27.7956 45.2062 32.4474 46.6211 42.9458C48.0416 53.4386 48.434 85.0493 48.434 85.0493L48.1356 85.1374C46.8478 81.592 45.2615 78.4651 43.4375 77.3421Z" fill="#DD7B45"/>
<path opacity="0.2" d="M29.9625 70.8019L29.6971 69.2274L29.6253 69.0623C28.1385 69.6899 26.508 70.0918 24.8001 70.0807C24.7504 70.0807 24.7006 70.0807 24.6509 70.0807C23.5344 70.0752 22.4511 69.8881 21.4175 69.5798L21.3899 69.6679L21.3678 69.9761C23.9766 72.0626 27.0607 71.7378 29.9625 70.8019Z" fill="#5A287F"/>
<path d="M48.1356 85.1429C50.4293 91.4628 51.7558 99.1095 51.7558 99.1095C51.7558 99.1095 41.9618 105.105 25.9166 105C10.0483 104.895 0 98.9278 0 98.9278C0 98.9278 1.01699 93.7419 2.74697 88.4625C4.23376 83.9097 6.24563 79.2799 8.58912 77.8595C13.652 74.7876 21.0638 74.7877 21.0638 74.7877V74.7821C22.1969 75.206 23.9268 75.5969 26.1985 75.4097C27.9064 75.2611 29.15 74.9198 30.0177 74.5564L30.0343 74.595C30.0343 74.595 39.0822 74.6555 43.4375 77.342C45.2615 78.4651 46.8478 81.592 48.1356 85.1429Z" fill="#B2453D"/>
<path d="M19.4609 36.5763C19.4609 36.5763 19.4609 36.6644 19.4665 36.8295C19.472 37.0002 19.4665 37.2424 19.4554 37.5507C19.4333 37.859 19.4167 38.2334 19.367 38.6628C19.3338 39.0922 19.2509 39.5711 19.1625 40.0941C19.0464 40.6116 18.9469 41.1786 18.7701 41.7622C18.6264 42.3567 18.3997 42.9623 18.1731 43.5844C17.9023 44.1954 17.6536 44.8396 17.2943 45.4506C16.9793 46.0837 16.5758 46.6783 16.1668 47.2673C15.9623 47.5591 15.7136 47.8234 15.487 48.1041C15.2603 48.3794 15.0282 48.6546 14.7629 48.8914C14.5087 49.1391 14.2544 49.3813 14.0002 49.618C13.7404 49.8493 13.453 50.0419 13.1877 50.2511C12.6681 50.6915 12.0823 50.9888 11.5461 51.2916C11.4135 51.3687 11.2808 51.4402 11.1482 51.5173L11.0542 51.5834C10.9934 51.6164 10.9824 51.6164 10.9437 51.6329L10.7502 51.721C10.4905 51.8366 10.2417 51.9467 10.0041 52.0513C9.49005 52.233 9.02577 52.4202 8.60018 52.5138C8.18012 52.6184 7.81533 52.734 7.51134 52.778C6.89783 52.8881 6.54963 52.9487 6.54963 52.9487C6.38934 52.9762 6.24011 52.8716 6.21247 52.7119C6.18484 52.5633 6.2788 52.4257 6.41698 52.3816L6.43908 52.3761C6.43908 52.3761 6.77071 52.2825 7.34553 52.1174C7.63847 52.0513 7.97009 51.9082 8.36252 51.7816C8.76047 51.6605 9.16395 51.4458 9.62822 51.2641C9.86036 51.1485 10.1036 51.0274 10.3523 50.9007L10.5402 50.8072C10.5678 50.7906 10.6176 50.7686 10.6231 50.7631L10.7115 50.7081C10.8276 50.631 10.9492 50.5594 11.0708 50.4768C11.314 50.3227 11.5627 50.163 11.8225 50.0034C12.0878 49.8548 12.3033 49.629 12.5576 49.4474C12.8008 49.2492 13.0606 49.0675 13.2982 48.8473C13.5248 48.6216 13.757 48.3904 13.9891 48.1592C14.2323 47.939 14.4423 47.6802 14.6468 47.416C14.8513 47.1517 15.078 46.9095 15.2659 46.6287C15.6362 46.0727 16.0341 45.5332 16.3381 44.9442C16.6808 44.3826 16.9295 43.7716 17.1948 43.199C17.4159 42.6045 17.6536 42.0429 17.8249 41.4869C18.0239 40.9364 18.1455 40.4024 18.2837 39.9124C18.3887 39.417 18.5048 38.96 18.5766 38.5527C18.665 38.1453 18.7093 37.7874 18.7535 37.4957C18.7866 37.2039 18.8198 36.9727 18.8364 36.813C18.853 36.6534 18.8585 36.5708 18.8585 36.5708V36.5598C18.8751 36.4001 19.0133 36.2845 19.1735 36.2955C19.3449 36.3121 19.4554 36.4332 19.4609 36.5763Z" fill="#D1652F"/>
<path d="M18.6706 34.8202C18.6706 34.8202 18.9027 35.222 19.3117 35.9267C19.4112 36.0918 19.5273 36.3231 19.6433 36.4882C19.776 36.6919 19.9197 36.9176 20.0745 37.1543C20.384 37.6168 20.7488 38.1288 21.1522 38.6848C21.5668 39.2353 22.02 39.8243 22.534 40.4244C22.7827 40.7327 23.0591 41.0245 23.341 41.3273C23.6118 41.6355 23.8992 41.9493 24.2032 42.2466C24.7946 42.8687 25.4523 43.4633 26.1266 44.0523C26.4748 44.3386 26.8231 44.6249 27.1768 44.9111C27.5471 45.1754 27.9119 45.4451 28.2822 45.7149C28.6415 45.9956 29.045 46.2158 29.4208 46.4691L29.9956 46.8324L30.587 47.1517C30.985 47.3554 31.3663 47.5976 31.7643 47.7683C32.1678 47.95 32.5602 48.1261 32.9526 48.2968C33.3395 48.4785 33.7485 48.5886 34.1299 48.7427C34.5168 48.8748 34.8871 49.0455 35.2685 49.1336C35.6443 49.2382 36.0146 49.3373 36.3739 49.4364C36.5508 49.4859 36.7276 49.5355 36.899 49.574C37.0758 49.607 37.2472 49.6346 37.413 49.6676C38.0873 49.7722 38.7063 49.9428 39.2535 49.9869C39.8173 50.0419 40.3147 50.13 40.7072 50.1355C41.5086 50.1851 41.9618 50.2126 41.9618 50.2126H41.9784C42.1387 50.2236 42.2603 50.3612 42.2492 50.5209C42.2382 50.675 42.1166 50.7906 41.9618 50.7961C41.9618 50.7961 41.4865 50.8016 40.6519 50.8182C40.2318 50.8347 39.7454 50.7796 39.1761 50.7576C38.5847 50.7466 37.9547 50.62 37.2417 50.5264C37.0648 50.4989 36.8879 50.4768 36.7 50.4493C36.5176 50.4163 36.3352 50.3667 36.1473 50.3227C35.7714 50.2346 35.3845 50.1465 34.9866 50.0529C34.5831 49.9759 34.1907 49.8162 33.7817 49.6896C33.3782 49.552 32.9471 49.4364 32.5436 49.2547C32.1346 49.0785 31.7145 48.8969 31.2945 48.7152C30.8689 48.539 30.4709 48.2968 30.0509 48.0876L29.4263 47.7573L28.8239 47.3829C28.4259 47.1242 28.0059 46.8985 27.6245 46.6122C27.2431 46.3315 26.8562 46.0507 26.4748 45.7699C26.1101 45.4671 25.7508 45.1644 25.3915 44.8616C24.6951 44.2395 24.0208 43.6119 23.4184 42.9623C23.1088 42.6485 22.8104 42.3237 22.5395 41.9989C22.2632 41.6741 21.9924 41.3603 21.7492 41.0355C21.2407 40.4024 20.7985 39.7748 20.4006 39.1968C20.2071 38.8995 20.0192 38.6187 19.8423 38.349C19.6765 38.0737 19.5217 37.8095 19.3725 37.5617C19.2343 37.314 19.1017 37.0828 18.9856 36.8681C18.8419 36.6148 18.7701 36.4332 18.6706 36.246C18.3224 35.5138 18.1179 35.0899 18.1179 35.0899C18.0515 34.9468 18.1123 34.7706 18.256 34.7045C18.3942 34.6385 18.56 34.6935 18.6319 34.8202H18.6706Z" fill="#D1652F"/>
<path d="M39.3751 84.4657C39.3751 84.4657 39.4746 84.7355 39.6515 85.2034C39.8283 85.6714 40.055 86.354 40.3037 87.1853C40.4308 87.5982 40.5634 88.0496 40.7072 88.523C40.8564 88.9965 41.0056 89.4975 41.1162 90.026C41.3759 91.0719 41.6302 92.195 41.8789 93.318C42.0005 93.8796 42.1221 94.4411 42.2437 94.9971C42.3321 95.5586 42.4206 96.1092 42.5035 96.6377C42.6693 97.7057 42.7964 98.7021 42.9235 99.5554C43.0451 100.409 43.117 101.124 43.1833 101.62C43.2386 102.121 43.2662 102.407 43.2662 102.407C43.2828 102.567 43.1667 102.71 43.0064 102.726C42.8572 102.743 42.7245 102.644 42.6914 102.506L42.6859 102.49C42.6859 102.49 42.6195 102.209 42.5035 101.724C42.3984 101.234 42.2271 100.541 42.0558 99.6985C41.89 98.8562 41.6799 97.8818 41.4754 96.8303C41.3759 96.3018 41.2764 95.7623 41.1714 95.2118C41.0443 94.6668 40.9172 94.1108 40.7901 93.5548C40.5413 92.4427 40.2981 91.3252 40.0826 90.2792C39.8726 89.2277 39.6238 88.2698 39.4359 87.433C39.3364 87.0201 39.2535 86.6348 39.1817 86.2935C39.1153 85.9521 39.038 85.6548 38.9772 85.4126C38.8611 84.9227 38.8003 84.6419 38.8003 84.6419C38.7616 84.4878 38.8611 84.3281 39.0159 84.2951C39.1761 84.251 39.3198 84.3336 39.3751 84.4657Z" fill="#93332E"/>
<path d="M12.6847 84.8951C12.6847 84.8951 12.5078 85.9852 12.1817 87.6092C12.0104 88.4184 11.8114 89.3598 11.6014 90.3728C11.4135 91.3857 11.1869 92.4592 10.9658 93.5272C10.8552 94.0612 10.7226 94.5952 10.6341 95.1292C10.5291 95.6577 10.4241 96.1807 10.3246 96.6872C10.1201 97.6946 9.90457 98.636 9.75534 99.4453C9.59505 100.255 9.44029 100.926 9.34081 101.4C9.23026 101.868 9.16947 102.137 9.16947 102.137C9.1363 102.291 8.97602 102.391 8.82126 102.358C8.67755 102.324 8.58359 102.187 8.59465 102.044C8.59465 102.044 8.62228 101.768 8.6665 101.29C8.72177 100.811 8.7881 100.122 8.89864 99.3022C9.00365 98.4819 9.14183 97.524 9.30764 96.5C9.39055 95.988 9.47898 95.4595 9.57294 94.9255C9.66138 94.386 9.78297 93.8465 9.89352 93.307C10.1257 92.2225 10.3578 91.138 10.5955 90.1305C10.8442 89.1286 11.1205 88.2037 11.3361 87.4055C11.7893 85.8145 12.132 84.763 12.132 84.763C12.1817 84.6089 12.3476 84.5263 12.5023 84.5758C12.6239 84.6199 12.7068 84.7575 12.6847 84.8951Z" fill="#93332E"/>
<path d="M19.6378 81.6746C19.3891 81.5755 17.5154 84.7135 17.5872 85.0107C17.6591 85.308 18.9911 85.3906 18.9911 85.3906C18.9911 85.3906 18.5047 88.1432 18.6982 88.2918C18.8972 88.4405 20.8482 84.785 20.699 84.3391C20.5553 83.8932 19.367 84.1354 19.367 84.1354C19.367 84.1354 19.881 81.7737 19.6378 81.6746Z" fill="#FAE429"/>
<path d="M30.4765 79.0321C30.2278 78.9331 28.3541 82.071 28.4259 82.3683C28.4978 82.6656 29.8298 82.7481 29.8298 82.7481C29.8298 82.7481 29.3434 85.5007 29.5424 85.6494C29.7414 85.798 31.6924 82.1426 31.5432 81.6966C31.3995 81.2507 30.2112 81.493 30.2112 81.493C30.2112 81.493 30.7252 79.1312 30.4765 79.0321Z" fill="#FAE429"/>
<path d="M37.7833 88.7763C37.5401 88.6772 35.6609 91.8151 35.7328 92.1124C35.8046 92.4097 37.1366 92.4923 37.1366 92.4923C37.1366 92.4923 36.6503 95.2449 36.8437 95.3935C37.0427 95.5421 38.9937 91.8867 38.8445 91.4408C38.7008 90.9949 37.5125 91.2371 37.5125 91.2371C37.5125 91.2371 38.0265 88.8754 37.7833 88.7763Z" fill="#FAE429"/>
<path d="M15.8462 94.2044C15.5975 94.1053 13.7238 97.2432 13.7957 97.5405C13.8675 97.8378 15.1995 97.9204 15.1995 97.9204C15.1995 97.9204 14.7132 100.673 14.9121 100.822C15.1111 100.97 17.0622 97.3148 16.9129 96.8689C16.7692 96.423 15.5809 96.6652 15.5809 96.6652C15.5809 96.6652 16.0949 94.3035 15.8462 94.2044Z" fill="#FAE429"/>
<path d="M4.9965 91.8977C4.76989 91.8041 3.05096 94.6888 3.11729 94.9586C3.18361 95.2283 4.41063 95.3054 4.41063 95.3054C4.41063 95.3054 3.96293 97.8323 4.14533 97.9699C4.32772 98.1075 6.11851 94.7494 5.98586 94.342C5.85321 93.9346 4.76437 94.1548 4.76437 94.1548C4.76437 94.1548 5.22312 91.9858 4.9965 91.8977Z" fill="#FAE429"/>
<path d="M31.9411 94.8485C31.7145 94.7549 29.9956 97.6396 30.0619 97.9094C30.1283 98.1846 31.3553 98.2562 31.3553 98.2562C31.3553 98.2562 30.9076 100.783 31.09 100.921C31.2724 101.058 33.0631 97.7002 32.9305 97.2928C32.7978 96.8854 31.709 97.1056 31.709 97.1056C31.709 97.1056 32.1678 94.9421 31.9411 94.8485Z" fill="#FAE429"/>
<path d="M25.8669 88.7047C25.6181 88.6056 23.7444 91.7436 23.8163 92.0408C23.8882 92.3381 25.2257 92.4207 25.2257 92.4207C25.2257 92.4207 24.7393 95.1733 24.9328 95.3219C25.1318 95.4706 27.0828 91.8151 26.9336 91.3692C26.7899 90.9233 25.6016 91.1655 25.6016 91.1655C25.6016 91.1655 26.1156 88.8038 25.8669 88.7047Z" fill="#FAE429"/>
<path d="M8.81574 80.8654C8.56702 80.7663 6.69333 83.9042 6.76518 84.2015C6.83703 84.4988 8.16907 84.5814 8.16907 84.5814C8.16907 84.5814 7.68268 87.3339 7.88166 87.4826C8.08063 87.6312 10.0317 83.9758 9.88247 83.5299C9.73877 83.0839 8.55044 83.3262 8.55044 83.3262C8.55044 83.3262 9.05893 80.9645 8.81574 80.8654Z" fill="#FAE429"/>
<path d="M47.1628 90.4113C46.9141 90.3122 45.0404 93.4502 45.1123 93.7475C45.1841 94.0447 46.5161 94.1273 46.5161 94.1273C46.5161 94.1273 46.0298 96.8799 46.2287 97.0285C46.4277 97.1772 48.3788 93.5217 48.2295 93.0758C48.0858 92.6299 46.8975 92.8721 46.8975 92.8721C46.8975 92.8721 47.406 90.5104 47.1628 90.4113Z" fill="#FAE429"/>
<path d="M43.0396 79.7148C42.813 79.6212 41.0885 82.5114 41.1548 82.7867C41.2212 83.0564 42.4482 83.1335 42.4482 83.1335C42.4482 83.1335 42.0005 85.6659 42.1829 85.8035C42.3653 85.9411 44.1616 82.5775 44.0234 82.1701C43.8908 81.7627 42.7964 81.9829 42.7964 81.9829C42.7964 81.9829 43.2662 79.8029 43.0396 79.7148Z" fill="#FAE429"/>
<path d="M7.09128 57.5014C7.09128 57.507 7.09128 57.3913 7.12997 57.2317C7.17419 57.072 7.24052 56.8243 7.43949 56.5711C7.53898 56.4445 7.67163 56.3178 7.83744 56.2187C8.00326 56.1141 8.20223 56.0536 8.40674 56.0261C8.61124 55.9985 8.82127 56.0095 9.01472 56.0481H9.0313H9.04235L9.08657 56.0591L9.1142 56.0701L9.175 56.0866L9.2966 56.1252C9.37951 56.1527 9.51216 56.2187 9.61164 56.2738C9.99301 56.505 10.2473 56.8353 10.4186 57.1491C10.5899 57.4684 10.6894 57.7767 10.7502 58.0465C10.811 58.3107 10.8276 58.5364 10.8387 58.6961C10.8497 58.8557 10.8442 58.9493 10.8442 58.9493C10.8387 59.0704 10.7336 59.164 10.6121 59.1585C10.5181 59.153 10.4407 59.0924 10.4131 59.0099L10.4075 58.9989C10.4075 58.9989 10.3799 58.9218 10.3357 58.7897C10.2915 58.652 10.2141 58.4649 10.1201 58.2446C10.0262 58.0244 9.90458 57.7767 9.74982 57.5455C9.59506 57.3143 9.40161 57.0996 9.19711 56.984C9.14184 56.9674 9.13079 56.9344 9.05341 56.9069L8.93181 56.8684L8.87101 56.8463L8.84338 56.8353C8.91523 56.8518 8.85996 56.8408 8.87654 56.8463H8.87101H8.86549H8.85443C8.72178 56.8243 8.59466 56.8023 8.48411 56.8078C8.37357 56.8188 8.26856 56.8298 8.1746 56.8684C8.08064 56.9014 7.99773 56.9564 7.92588 57.017C7.78217 57.1436 7.6661 57.2923 7.6053 57.4079C7.53898 57.529 7.51134 57.5785 7.51134 57.584C7.48924 57.6996 7.37317 57.7767 7.25157 57.7547C7.14655 57.7327 7.06918 57.6171 7.09128 57.5014Z" fill="#B38879"/>
<path d="M38.745 58.663C38.745 58.663 38.734 58.3437 38.839 57.8813C38.9495 57.4244 39.1651 56.7913 39.7233 56.3013C39.8007 56.2463 39.8615 56.1857 39.9499 56.1362L40.0715 56.0646L40.1047 56.0481L40.1213 56.0371H40.1268L40.1821 56.015H40.1876L40.2373 55.9985L40.4474 55.938L40.5524 55.9104C40.5966 55.9049 40.6519 55.8994 40.7016 55.8939C40.9117 55.8774 41.1106 55.8884 41.2543 55.9435C41.4201 55.9765 41.5473 56.0536 41.6633 56.1251C41.7849 56.1857 41.8623 56.2848 41.9452 56.3453C42.0226 56.4169 42.0779 56.4885 42.1276 56.5435C42.216 56.6591 42.2603 56.7472 42.2603 56.7472C42.3155 56.8518 42.2768 56.9839 42.1663 57.0445C42.0889 57.083 42.0005 57.0775 41.9397 57.028L41.9121 57.006C41.9121 57.006 41.8623 56.9674 41.7739 56.9069C41.7241 56.8794 41.6689 56.8353 41.597 56.8023C41.5252 56.7748 41.4533 56.7252 41.3649 56.7032C41.282 56.6757 41.1935 56.6481 41.0996 56.6426C41.0001 56.6151 40.9282 56.6481 40.8564 56.6481C40.8343 56.6481 40.8232 56.6426 40.7956 56.6481L40.6961 56.6867L40.4916 56.7637L40.4418 56.7803H40.4363C40.3921 56.8023 40.4971 56.7527 40.4861 56.7582L40.4805 56.7637L40.464 56.7747L40.3976 56.8188C40.3534 56.8408 40.3092 56.8849 40.265 56.9179C39.9168 57.2152 39.6515 57.7161 39.4746 58.0905C39.3862 58.2777 39.3033 58.4428 39.259 58.5584C39.2093 58.674 39.1817 58.7346 39.1817 58.7346V58.7401C39.1319 58.8502 38.9993 58.9053 38.8887 58.8557C38.8003 58.8282 38.7506 58.7456 38.745 58.663Z" fill="#B38879"/>
<path d="M19.7594 54.1653C19.787 54.925 19.2399 55.5636 18.5379 55.5911C17.836 55.6187 17.239 55.0296 17.2059 54.2699C17.1727 53.5102 17.7199 52.8716 18.4218 52.8441C19.1293 52.8165 19.7262 53.4056 19.7594 54.1653Z" fill="black"/>
<path d="M15.7799 52.255C15.3985 52.5798 16.609 54.2259 17.9963 54.1818C17.9963 54.1818 18.7977 53.6423 18.3224 53.2955C18.0018 53.0588 17.6867 53.1634 17.0511 52.9156C16.2165 52.5798 15.9623 52.0954 15.7799 52.255Z" fill="black"/>
<path d="M30.0785 54.2314C30.0398 54.9911 30.5759 55.6352 31.2834 55.6737C31.9854 55.7123 32.5933 55.1287 32.632 54.3635C32.6707 53.6038 32.1346 52.9597 31.4326 52.9211C30.7252 52.8881 30.1227 53.4717 30.0785 54.2314Z" fill="black"/>
<path d="M34.0801 52.3706C34.4615 52.7009 33.229 54.336 31.8361 54.2699C31.8361 54.2699 31.0402 53.7194 31.5211 53.3781C31.8417 53.1469 32.1567 53.2515 32.7923 53.0147C33.6435 52.6899 33.8977 52.2055 34.0801 52.3706Z" fill="black"/>
<path opacity="0.4" d="M27.0552 55.6682C27.0497 56.4169 26.1764 57.0225 25.1041 57.0115C24.0319 57.006 23.1696 56.3894 23.1752 55.6407C23.1807 54.892 24.054 54.2864 25.1207 54.2974C26.193 54.3084 27.0607 54.9195 27.0552 55.6682Z" fill="#CA878D"/>
<path d="M30.2941 61.5588C30.2941 61.5588 30.2664 61.5257 30.2112 61.4597C30.1559 61.3936 30.0675 61.3 29.9624 61.1844C29.7469 60.9477 29.3987 60.6339 28.9676 60.3091C28.7465 60.1494 28.4978 59.9898 28.2325 59.8411C27.9616 59.698 27.6687 59.5659 27.3592 59.4558C27.0441 59.3512 26.718 59.2741 26.3754 59.2246C26.204 59.2136 26.0327 59.1805 25.8558 59.1805L25.3584 59.186L24.7835 59.2466C24.6233 59.2851 24.463 59.3182 24.3082 59.3567C24.1424 59.4117 23.9821 59.4613 23.8218 59.5163C23.6671 59.5879 23.5123 59.6485 23.3631 59.72C23.0701 59.8742 22.7938 60.0393 22.5451 60.221C22.2963 60.4082 22.0697 60.5954 21.8708 60.7825C21.4728 61.1569 21.1688 61.5147 20.9809 61.7735C20.8869 61.9056 20.8096 62.0047 20.7598 62.0762C20.7156 62.1423 20.6935 62.1808 20.6935 62.1808L20.6769 62.2029C20.5885 62.335 20.4061 62.3735 20.2734 62.2854C20.1574 62.2084 20.1131 62.0597 20.1629 61.9331C20.1629 61.9331 20.185 61.8836 20.2237 61.79C20.2624 61.7019 20.3176 61.5698 20.4005 61.4156C20.5719 61.1018 20.8261 60.6559 21.2296 60.188C21.4286 59.9512 21.6663 59.709 21.9371 59.4723C22.2134 59.2411 22.523 59.0099 22.8656 58.8117C23.0425 58.7181 23.2249 58.63 23.4073 58.5364C23.6007 58.4593 23.7942 58.3878 23.9932 58.3162C24.2032 58.2612 24.4243 58.2116 24.6454 58.1621L25.2257 58.0905C25.701 58.063 26.0935 58.085 26.5246 58.1456C26.9446 58.2061 27.3426 58.3272 27.7129 58.4759C27.9008 58.5474 28.0722 58.641 28.249 58.7181C28.4149 58.8117 28.5751 58.9108 28.7299 59.0044C28.8791 59.109 29.0173 59.2136 29.1555 59.3126C29.2826 59.4227 29.4042 59.5273 29.5258 59.6319C29.9846 60.0503 30.2885 60.4742 30.493 60.766C30.5925 60.9146 30.6644 61.0358 30.7086 61.1238C30.7528 61.2119 30.7805 61.2615 30.7805 61.2615C30.8578 61.4046 30.8026 61.5808 30.6589 61.6523C30.5373 61.7184 30.3825 61.6854 30.2996 61.5808L30.2941 61.5588Z" fill="black"/>
<path d="M16.7637 48.9684C16.7637 48.9684 17.0898 49.007 17.5154 49.1611C17.9465 49.3097 18.4937 49.5575 18.9967 49.8713C19.5052 50.1796 19.975 50.5484 20.3066 50.8622C20.6382 51.1705 20.8261 51.4347 20.8261 51.4347C20.9754 51.6494 20.9256 51.9467 20.7101 52.0954C20.6051 52.1669 20.4835 52.1944 20.3674 52.1779C20.3674 52.1779 20.0468 52.1339 19.6157 51.9797C19.1846 51.8311 18.6374 51.5834 18.1289 51.2806C17.6204 50.9778 17.1451 50.609 16.819 50.2952C16.4874 49.9814 16.305 49.7171 16.305 49.7171C16.1557 49.4969 16.211 49.1996 16.4321 49.051C16.5371 48.9794 16.6532 48.9519 16.7637 48.9684Z" fill="#A15229"/>
<path d="M33.6546 49.6786C33.6546 49.6786 33.4666 49.9428 33.1295 50.2511C32.7979 50.5594 32.3225 50.9228 31.803 51.22C31.289 51.5228 30.7418 51.7595 30.3107 51.9027C29.8795 52.0513 29.559 52.0899 29.559 52.0899C29.2992 52.1229 29.0615 51.9412 29.0284 51.677C29.0118 51.5504 29.0449 51.4347 29.1168 51.3357C29.1168 51.3357 29.3047 51.0769 29.6419 50.7686C29.9735 50.4603 30.4488 50.097 30.9629 49.7942C31.4713 49.4859 32.0185 49.2437 32.4552 49.1061C32.8863 48.9629 33.2124 48.9244 33.2124 48.9244C33.4777 48.8969 33.7154 49.084 33.743 49.3483C33.7485 49.4749 33.7154 49.5905 33.6546 49.6786Z" fill="#A15229"/>
<path d="M9.22474 48.4564C9.98196 48.3794 10.4407 48.3353 10.3854 47.939C10.3357 47.6197 7.37316 47.8949 7.2792 48.2252C7.23498 48.3739 8.29619 48.55 9.22474 48.4564ZM11.618 48.0491C11.7838 49.6015 6.26221 49.3648 6.22352 48.4564C6.19036 47.8123 6.8094 47.3389 9.04788 47.0691C10.3246 46.9205 11.5074 47.0196 11.618 48.0491Z" fill="#FAE429"/>
<path d="M9.89352 44.3276C10.6507 44.2505 11.1095 44.201 11.0542 43.8101C11.0045 43.4908 8.04194 43.7605 7.94798 44.0908C7.90376 44.245 8.96497 44.4101 9.89352 44.3276ZM12.2868 43.9147C12.4526 45.4671 6.93652 45.2359 6.8923 44.3276C6.85914 43.6835 7.47817 43.21 9.71665 42.9403C10.9934 42.7806 12.1817 42.8852 12.2868 43.9147Z" fill="#FAE429"/>
<path d="M11.4466 19.4663C11.4466 19.4663 11.2919 19.6039 11.0211 19.8406C10.7558 20.0773 10.3689 20.4021 9.98749 20.815C9.79957 21.0187 9.59506 21.2389 9.44583 21.4866C9.29107 21.7344 9.175 22.0151 9.18606 22.3179V22.3344V22.34V22.3455C9.18606 22.3565 9.175 22.2629 9.18053 22.3069L9.18606 22.3455L9.19711 22.417L9.21922 22.5657C9.22475 22.6262 9.2358 22.6537 9.24686 22.6703C9.25791 22.6923 9.26896 22.7143 9.27449 22.7418C9.28555 22.7914 9.34082 22.8409 9.36292 22.896C9.41267 22.94 9.45136 22.9896 9.51216 23.0336C9.74429 23.2153 10.1312 23.3199 10.5347 23.4465C10.9381 23.5731 11.3858 23.7217 11.7893 23.9915C11.8888 24.0631 11.9828 24.1401 12.0767 24.2172C12.1596 24.3108 12.2481 24.3989 12.3199 24.4925C12.3918 24.6081 12.4415 24.6686 12.5244 24.8228L12.5521 24.8943C12.5631 24.9384 12.5742 24.9879 12.5797 25.0375C12.5852 25.1201 12.5852 25.1861 12.5797 25.2522C12.5023 25.7532 12.3365 26.1055 12.1928 26.4578C12.0491 26.8046 11.8888 27.1129 11.7341 27.3827C11.4245 27.9167 11.1924 28.3571 11.1371 28.6103C11.104 28.737 11.1095 28.803 11.1261 28.8471C11.1371 28.8966 11.1537 28.9186 11.1482 28.9241L11.1648 28.9517C11.2421 29.0838 11.1924 29.2544 11.0597 29.326C10.9713 29.3756 10.8608 29.37 10.7779 29.3205C10.7834 29.315 10.7115 29.2765 10.6121 29.1553C10.5181 29.0342 10.4297 28.8085 10.4297 28.5608C10.4297 28.0653 10.6563 27.5258 10.9768 26.9533C11.1316 26.667 11.3306 26.3807 11.5406 26.0945C11.7341 25.8082 11.9772 25.4834 12.0159 25.1916C12.0436 25.065 11.9717 25.01 11.8612 24.8558C11.8059 24.7953 11.7341 24.7402 11.6733 24.6852L11.4522 24.553C11.1316 24.3989 10.7392 24.3328 10.3246 24.2502C9.91011 24.1567 9.44583 24.0631 8.98708 23.7658C8.87101 23.6942 8.77152 23.5841 8.66651 23.4905C8.5836 23.3694 8.48964 23.2648 8.42884 23.1217L8.34594 22.907C8.3183 22.8299 8.29619 22.7583 8.29067 22.7198L8.26856 22.5712L8.2575 22.4996L8.25198 22.4611L8.24645 22.4115V22.406V22.395V22.373C8.20223 21.8775 8.32936 21.3986 8.50622 21.0022C8.68862 20.6003 8.93734 20.281 9.19711 20.0388C9.72219 19.5488 10.2417 19.3011 10.6121 19.1525C10.9824 19.0148 11.22 18.9763 11.22 18.9763C11.3748 18.9543 11.5185 19.0589 11.5461 19.2075C11.5572 19.3066 11.524 19.4002 11.4466 19.4663Z" fill="#93332E"/>
<path d="M18.5048 13.7464C18.5048 13.7464 18.3334 13.9171 18.035 14.2143C17.8857 14.363 17.7089 14.5446 17.5265 14.7483C17.3441 14.952 17.1506 15.1942 17.0345 15.4255C16.924 15.6842 16.9019 15.7282 17.0345 15.954C17.2004 16.2017 17.5486 16.4935 17.9134 16.7632C18.2837 17.0385 18.6927 17.3192 19.0851 17.6661C19.4665 18.0184 19.8921 18.4313 20.0745 19.0644L20.1131 19.3066L20.1297 19.4277C20.1297 19.5488 20.1297 19.4663 20.1297 19.4938V19.4993V19.5103L20.1242 19.5323L20.1187 19.5764L20.0966 19.7635C20.0689 19.8516 20.0358 19.9452 19.9971 20.0333C19.8368 20.3691 19.6268 20.5453 19.4167 20.7269C18.9911 21.0572 18.5656 21.2995 18.1731 21.5527C17.7862 21.8004 17.4436 22.0977 17.2335 22.384C17.0124 22.6813 17.0235 22.907 17.0622 23.0887C17.123 23.2648 17.1838 23.4355 17.2391 23.5951C17.2999 23.7328 17.3606 23.8429 17.4104 23.9585C17.532 24.1897 17.6646 24.3769 17.7918 24.509C17.9134 24.6466 18.0239 24.7402 18.1013 24.7953C18.1842 24.8503 18.2063 24.8668 18.2008 24.8668L18.2837 24.9384C18.3942 25.032 18.4053 25.1971 18.3113 25.3072C18.2505 25.3788 18.151 25.4118 18.0626 25.3898C18.0571 25.3898 17.9631 25.3678 17.8305 25.3238C17.7033 25.2687 17.5209 25.1806 17.3109 25.032C17.1119 24.8723 16.9074 24.6576 16.7029 24.3714C16.6145 24.2227 16.515 24.0466 16.4321 23.8814C16.3713 23.7217 16.305 23.5566 16.2386 23.3804C16.1889 23.2153 16.1889 23.1107 16.1668 22.9675C16.1557 22.8299 16.1944 22.6868 16.2221 22.5491C16.2663 22.417 16.3381 22.2959 16.4045 22.1748C16.4874 22.0757 16.5703 21.9711 16.6587 21.883C17.029 21.5362 17.4491 21.327 17.8415 21.0738C18.2339 20.815 18.6429 20.5618 18.9469 20.237C19.0188 20.1599 19.0851 20.0773 19.1459 19.9948C19.1791 19.9177 19.2675 19.8131 19.2564 19.769C19.262 19.7415 19.273 19.7195 19.2896 19.692L19.2951 19.5048V19.4608V19.4387V19.4277V19.4222C19.2951 19.4442 19.2951 19.3562 19.2951 19.4773L19.2786 19.4167L19.2509 19.2956C19.1293 18.9708 18.8253 18.6405 18.4771 18.3542C18.1234 18.0679 17.731 17.8037 17.3441 17.5339C16.9516 17.2587 16.5537 17.022 16.1778 16.6091C16.0784 16.4825 15.9457 16.2788 15.9291 16.2127L15.896 16.1411L15.8794 16.1081L15.8739 16.0971L15.8628 16.02V16.0145L15.8573 15.9815C15.8407 15.8934 15.8296 15.8108 15.8241 15.7227C15.8241 15.3869 15.9236 15.1007 16.0507 14.897C16.2994 14.4731 16.5924 14.2253 16.8522 14.0161C17.1175 13.8125 17.3606 13.6693 17.5652 13.5592C17.9742 13.35 18.2339 13.2729 18.2339 13.2729C18.3832 13.2289 18.5379 13.317 18.5821 13.4601C18.6042 13.5702 18.5711 13.6748 18.5048 13.7464Z" fill="#93332E"/>
<path d="M27.6079 14.9851C27.6079 14.9851 27.4089 15.0621 27.0607 15.2163C26.718 15.3594 26.2261 15.5961 25.7453 15.9319C25.5131 16.1081 25.292 16.3008 25.1428 16.5485C24.9936 16.7963 24.9494 17.11 25.0765 17.5119C25.187 17.8477 25.4081 18.2056 25.6955 18.5139C25.9774 18.8332 26.309 19.1304 26.613 19.4993C26.917 19.8626 27.2044 20.3361 27.2873 20.8921C27.3205 21.0297 27.3039 21.1674 27.3094 21.305V21.3545L27.2984 21.4426L27.2818 21.5252L27.2542 21.6848C27.2155 21.8115 27.1547 21.9656 27.0994 22.1032C27.0386 22.2188 26.9723 22.3234 26.9115 22.4335C26.6462 22.8409 26.3588 23.1602 26.0935 23.463C25.8226 23.7603 25.5739 24.0135 25.3363 24.2337C25.1096 24.4539 24.8996 24.6466 24.7559 24.8228C24.6011 24.9989 24.5072 25.1476 24.4298 25.2742C24.3801 25.4008 24.3248 25.5109 24.3303 25.588C24.3137 25.6706 24.3027 25.7146 24.3027 25.7146L24.2861 25.8027C24.2585 25.9458 24.1148 26.0394 23.9711 26.0119C23.8826 25.9954 23.8108 25.9348 23.7776 25.8578C23.7776 25.8578 23.75 25.7972 23.7058 25.6651C23.656 25.5385 23.6284 25.3403 23.645 25.0815C23.6781 24.8338 23.7666 24.5365 23.9324 24.2613C24.0871 23.975 24.3027 23.7162 24.5404 23.452C25.0102 22.929 25.69 22.4941 26.1211 21.905L26.2593 21.6848C26.2814 21.6243 26.3146 21.5802 26.3422 21.5032L26.3753 21.3435L26.3919 21.2664L26.3975 21.2444V21.2334V21.2279C26.3864 21.3215 26.3919 21.2499 26.3919 21.2719V21.2444C26.3864 21.1618 26.4085 21.0793 26.3919 21.0022C26.3643 20.6774 26.1874 20.3416 25.9498 20.0003C25.7121 19.6534 25.4302 19.2956 25.1704 18.9102C24.9162 18.5194 24.673 18.1285 24.5293 17.6606C24.3966 17.2642 24.2861 16.7247 24.4519 16.2567C24.6067 15.7888 24.9272 15.453 25.2312 15.2328C25.8558 14.7924 26.4472 14.6437 26.8452 14.5446C27.2486 14.4621 27.4918 14.4566 27.4918 14.4566C27.6466 14.4511 27.7737 14.5667 27.7792 14.7208C27.7903 14.8364 27.7129 14.941 27.6079 14.9851Z" fill="#93332E"/>
<path d="M20.9035 74.1601C20.9035 74.1601 21.5115 74.2592 22.4235 74.4133C22.6446 74.4463 22.8878 74.4794 23.142 74.5124C23.3962 74.5399 23.6616 74.5674 23.9379 74.595C24.2143 74.606 24.4961 74.6335 24.7836 74.6335C25.071 74.6335 25.3584 74.6555 25.6458 74.6225L26.0769 74.606C26.1764 74.6005 26.3698 74.573 26.5135 74.5619C26.8231 74.5234 27.1326 74.5069 27.3868 74.4628C27.9174 74.3968 28.4536 74.3087 28.8957 74.2316C29.3434 74.1546 29.7082 74.072 29.968 74.0169C30.2167 73.9619 30.3604 73.9344 30.3604 73.9344L30.3936 73.9288C30.6312 73.8793 30.8689 74.0279 30.9186 74.2647C30.9573 74.4408 30.8855 74.6115 30.7473 74.7106C30.7473 74.7106 30.5981 74.8207 30.3493 74.9693C30.0951 75.118 29.7303 75.3161 29.266 75.4978C29.0394 75.5969 28.7852 75.6905 28.5143 75.7676C28.249 75.8612 27.9506 75.9382 27.6411 76.0043C27.3205 76.0814 27.022 76.1419 26.718 76.175C26.5522 76.197 26.4417 76.219 26.2261 76.241L25.7176 76.274C25.375 76.2961 25.0378 76.2685 24.7006 76.2575C24.3635 76.252 24.0484 76.175 23.7334 76.1364C23.1144 76.0208 22.5506 75.8612 22.0863 75.685C21.622 75.5143 21.2407 75.3327 20.992 75.2005C20.7488 75.0629 20.6106 74.9803 20.6106 74.9803L20.5995 74.9748C20.3895 74.8482 20.3232 74.573 20.4558 74.3638C20.5498 74.2041 20.7267 74.127 20.9035 74.1601Z" fill="#D65050"/>
<path d="M45.372 29.4086C45.372 29.4086 45.2615 32.9814 45.8252 33.1851C46.2508 33.3393 48.3069 30.2894 48.3069 30.2894C48.3069 30.2894 55.0721 32.3924 61.992 27.7956C68.1326 23.7217 72.3056 9.41933 60.4002 2.59293C51.7006 -2.39475 43.6641 0.264243 38.9993 6.6117C35.5338 11.3296 34.3731 21.4756 45.372 29.4086Z" fill="#D65050"/>
<path d="M47.8869 19.5653C47.8869 19.5653 47.8979 19.5213 47.92 19.4332C47.9476 19.3506 47.9808 19.224 48.0416 19.0809C48.1632 18.7836 48.3401 18.3597 48.6606 17.9028C48.9757 17.4459 49.4289 16.9394 50.0424 16.5485C50.1917 16.4494 50.363 16.3724 50.5288 16.2788C50.7001 16.1962 50.8825 16.1411 51.0649 16.0751C51.2529 16.02 51.4408 15.987 51.6342 15.9429C51.8277 15.9154 52.0211 15.8989 52.2146 15.8879L52.2864 15.8824H52.2975H52.3417H52.3583H52.3914L52.5186 15.8879L52.7783 15.9044C52.9442 15.9099 53.1818 15.9705 53.3753 16.0035C53.7732 16.1026 54.1159 16.2622 54.442 16.4494C54.5968 16.554 54.746 16.6586 54.8842 16.7687C55.0113 16.8898 55.1439 16.9999 55.2545 17.1266C55.4811 17.3688 55.658 17.622 55.8072 17.8643C56.1001 18.3487 56.2438 18.7836 56.3378 19.0919C56.3875 19.246 56.4096 19.3727 56.4262 19.4552C56.4428 19.5433 56.4483 19.5929 56.4483 19.5929C56.476 19.7525 56.371 19.9012 56.2162 19.9287C56.078 19.9507 55.9509 19.8791 55.8956 19.758L55.8846 19.7305C55.8846 19.7305 55.868 19.6975 55.8404 19.6314C55.8072 19.5653 55.7575 19.4607 55.6967 19.3341C55.5751 19.0809 55.365 18.7286 55.0776 18.3542C54.9339 18.167 54.757 17.9854 54.5691 17.8037C54.4752 17.7156 54.3646 17.6385 54.2596 17.556C54.1435 17.4844 54.033 17.4128 53.9169 17.3413C53.6737 17.2146 53.4029 17.1155 53.1376 17.055C52.9994 17.0385 52.9055 16.9944 52.7231 16.9889L52.4633 16.9779L52.3362 16.9724H52.303H52.2864H52.2809C52.2477 16.9724 52.3251 16.9724 52.3141 16.9724H52.3085L52.2533 16.9779C52.104 16.9944 51.9548 16.9999 51.8056 17.0165C51.6619 17.0495 51.5126 17.0715 51.3745 17.11C51.2363 17.1596 51.0981 17.2091 50.9655 17.2532C50.8383 17.3192 50.7002 17.3688 50.5786 17.4404C50.0866 17.7156 49.6776 18.0845 49.3571 18.4423C49.042 18.8001 48.7988 19.1304 48.6551 19.3782C48.5833 19.4993 48.528 19.5929 48.4893 19.6589C48.4561 19.725 48.434 19.758 48.434 19.758L48.423 19.7745C48.3456 19.9177 48.1687 19.9672 48.025 19.8902C47.909 19.8351 47.8537 19.6975 47.8869 19.5653Z" fill="black"/>
<path d="M48.6828 15.1447C48.6772 15.7338 48.1964 16.2127 47.605 16.2072C47.0136 16.2017 46.5327 15.7227 46.5382 15.1337C46.5438 14.5446 47.0246 14.0657 47.6216 14.0712C48.213 14.0712 48.6883 14.5557 48.6828 15.1447Z" fill="black"/>
<path d="M46.3061 12.816C46.3061 12.816 46.5604 12.8546 46.9086 12.9757C47.2568 13.0913 47.7045 13.2895 48.1245 13.5207C48.5501 13.7519 48.9481 14.0272 49.2355 14.2584C49.5229 14.4841 49.6942 14.6768 49.6942 14.6768C49.8103 14.8034 49.7992 14.9961 49.6666 15.1117C49.5947 15.1777 49.5008 15.1998 49.4123 15.1832C49.4123 15.1832 49.1581 15.1392 48.8099 15.0236C48.4617 14.908 48.014 14.7153 47.5884 14.4841C47.1628 14.2529 46.7593 13.9831 46.4774 13.7519C46.19 13.5207 46.0242 13.328 46.0242 13.328C45.9137 13.1959 45.9247 13.0032 46.0574 12.8931C46.1292 12.827 46.2177 12.805 46.3061 12.816Z" fill="black"/>
<path d="M58.4326 15.2053C58.4271 15.7943 57.9462 16.2733 57.3548 16.2678C56.7634 16.2623 56.2825 15.7833 56.2881 15.1943C56.2936 14.6052 56.7745 14.1262 57.3714 14.1318C57.9573 14.1318 58.4326 14.6162 58.4326 15.2053Z" fill="black"/>
<path d="M58.8692 13.4051C58.8692 13.4051 58.6979 13.5978 58.4105 13.8235C58.1231 14.0547 57.7141 14.3189 57.2885 14.5446C56.8629 14.7704 56.4152 14.9575 56.0615 15.0676C55.7133 15.1832 55.459 15.2218 55.459 15.2218C55.2932 15.2493 55.1329 15.1337 55.1053 14.963C55.0887 14.8694 55.1218 14.7759 55.1826 14.7098C55.1826 14.7098 55.354 14.5226 55.6469 14.2969C55.9343 14.0712 56.3378 13.8014 56.7634 13.5757C57.189 13.3445 57.6367 13.1573 57.9849 13.0472C58.3331 12.9316 58.5873 12.8986 58.5873 12.8986C58.7587 12.8766 58.9134 12.9922 58.9356 13.1628C58.9577 13.2509 58.9245 13.339 58.8692 13.4051Z" fill="black"/>
<path opacity="0.2" d="M36.1362 59.9072C36.1362 61.3771 34.9203 62.5662 33.4169 62.5662C31.9135 62.5662 30.6976 61.3771 30.6976 59.9072C30.6976 58.4373 31.9135 57.2482 33.4169 57.2482C34.9203 57.2482 36.1362 58.4428 36.1362 59.9072Z" fill="#B34C85"/>
<path opacity="0.2" d="M17.438 62.935C18.9399 62.935 20.1574 61.7446 20.1574 60.276C20.1574 58.8075 18.9399 57.6171 17.438 57.6171C15.9362 57.6171 14.7187 58.8075 14.7187 60.276C14.7187 61.7446 15.9362 62.935 17.438 62.935Z" fill="#B34C85"/>
</g>
<defs>
<clipPath id="clip0_1_4791">
<rect width="68" height="105" fill="white"/>
</clipPath>
</defs>
</svg>
