<svg width="40" height="40" viewBox="0 0 40 40" fill="none" xmlns="http://www.w3.org/2000/svg">
<path d="M22.0197 40.0011C20.3847 39.9299 18.7411 40.0039 17.1146 39.7447C16.1006 39.5824 15.1321 39.2776 14.175 38.9158C13.1894 38.5427 12.1982 38.1809 11.2097 37.8163C10.3267 37.4887 9.49781 37.0501 8.6689 36.6057C7.70327 36.0901 6.70346 35.6173 5.85746 34.9109C4.01735 33.3756 2.51906 31.5611 1.64173 29.2709C1.50785 28.9206 1.36828 28.5702 1.18313 28.2483C0.476706 27.0064 0.260223 25.6363 0.137738 24.2434C0.0380421 23.1097 -0.00753345 21.9731 0.00101196 20.8394C0.0209512 18.5664 0.425434 16.3702 1.35403 14.2851C2.20003 12.3823 2.96057 10.4397 3.99172 8.62521C4.43893 7.83904 5.08838 7.24371 5.67801 6.59141C6.42716 5.76535 7.27315 5.02475 8.15903 4.35536C8.89963 3.79421 9.66587 3.26155 10.415 2.70895C10.7568 2.45828 11.0901 2.19337 11.4063 1.91422C12.2865 1.13374 13.3318 0.683685 14.4371 0.381747C15.2204 0.168112 16.0407 0.159567 16.8526 0.162415C17.5789 0.162415 18.3053 0.111143 19.0231 0.034234C20.1682 -0.0882501 21.2677 0.142476 22.37 0.33902C23.8826 0.606776 25.2612 1.3018 26.7054 1.79174C27.4232 2.03671 28.1353 2.29877 28.8418 2.57792C30.1435 3.09064 31.3057 3.84833 32.4365 4.67439C33.8807 5.72547 34.9346 7.14686 36.0598 8.50273C36.7035 9.28036 37.3786 10.0352 37.8771 10.9268C38.3984 11.8639 38.7744 12.8609 39.0962 13.8835C39.515 15.2137 39.8625 16.5554 39.985 17.9511C40.0619 18.8455 39.8255 19.6944 39.6887 20.5603C39.4608 21.9902 38.8855 23.3091 38.4183 24.6621C38.293 25.0295 38.1876 25.3941 38.1733 25.7844C38.1506 26.4082 37.8629 26.958 37.6891 27.539C37.0311 29.7466 36.0028 31.7662 34.627 33.5949C34.0687 34.3355 33.5788 35.1217 33.0518 35.8822C32.6017 36.5317 32.1716 37.2096 31.5848 37.7508C31.4851 37.842 31.374 37.936 31.2487 37.9872C30.6961 38.2151 30.3201 38.6993 29.7704 38.9557C28.8959 39.363 27.973 39.5567 27.0472 39.7533C25.6059 40.0609 24.1361 39.984 22.6777 40.0011C22.4612 40.0039 22.239 40.0011 22.0197 40.0011Z" fill="#D6674C"/>
<path d="M17.3995 20.2669C17.3682 20.2669 17.334 20.2641 17.3027 20.2669C16.676 20.3182 16.639 20.0618 16.8725 19.5149C17.2371 18.6632 17.8097 17.9824 18.5645 17.4583C19.2852 16.957 20.1027 16.9427 20.9401 17.0111C21.9656 17.0937 22.5723 17.7147 23.0138 18.5635C23.0737 18.6775 23.1192 18.8028 23.1961 18.9025C23.5436 19.3383 23.5807 19.8624 23.6405 20.3837C23.6775 20.7113 23.6177 21.0616 23.8427 21.3579C23.9111 21.4462 23.7858 21.4747 23.7203 21.4804C23.3784 21.506 23.0366 21.5174 22.6977 21.4775C22.5495 21.4604 22.484 21.3693 22.4698 21.2154C22.4214 20.7255 22.4299 20.2156 22.2875 19.7542C22.0026 18.837 21.5412 18.0024 20.7351 17.4213C20.3818 17.1678 20.0486 17.3786 19.7609 17.5779C18.9747 18.122 18.4079 18.8512 18.0461 19.7371C18.0347 19.7656 18.0262 19.7998 18.0091 19.8254C17.935 19.945 18.0717 20.0732 17.9948 20.1928C17.9834 20.2099 17.9606 20.227 17.9436 20.2299C17.7641 20.2441 17.5818 20.2584 17.3995 20.2698C17.3995 20.2755 17.3995 20.2698 17.3995 20.2669Z" fill="#292929"/>
<path d="M16.001 15.8888C15.6648 15.9202 15.3259 15.8432 14.984 15.8205C14.4656 15.7863 14.1665 15.4103 13.8618 15.0599C13.7649 14.9488 13.782 14.7865 13.8105 14.6554C13.9643 13.9376 14.1295 13.2198 14.289 12.502C14.3232 12.3453 14.4144 12.2342 14.5596 12.163C15.5566 11.6759 16.602 11.4737 17.7043 11.656C17.9806 11.7016 18.2228 11.8554 18.4307 12.0434C18.556 12.1573 18.6443 12.3111 18.5988 12.4735C18.3367 13.4277 18.2114 14.419 17.6844 15.2992C17.3597 15.8375 16.9153 15.9543 16.3627 15.9202C16.2459 15.9116 16.1291 15.9002 16.001 15.8888Z" fill="white"/>
<path d="M27.1157 13.3081C27.1157 13.4904 27.1157 13.6727 27.1157 13.855C27.1185 14.6697 26.6371 15.134 25.945 15.4188C25.2243 15.7151 24.4723 15.8461 23.6833 15.7663C23.2361 15.7208 23.0424 15.641 23.0424 15.2166C23.0452 14.2424 22.7632 13.2853 22.917 12.3026C22.9626 12.0121 23.0794 11.9067 23.3728 11.8953C23.8627 11.8725 24.3498 11.8013 24.8397 11.7471C25.2898 11.6959 25.7513 11.7016 26.1842 11.7984C26.6257 11.8953 27.1812 12.257 27.1214 12.8951C27.1071 13.0347 27.1185 13.1742 27.1185 13.3138C27.1185 13.3081 27.1185 13.3081 27.1157 13.3081Z" fill="white"/>
<path d="M18.4022 10.4625C18.3111 10.4767 18.237 10.4311 18.1715 10.3742C17.3568 9.64782 16.3513 9.26897 15.3857 8.80752C14.6793 8.46855 13.9472 8.20364 13.2237 7.91025C13.1297 7.87322 12.9901 7.84189 12.9816 7.72225C12.9702 7.57983 13.124 7.55134 13.2237 7.50292C13.3661 7.43171 13.5199 7.38328 13.6681 7.32347C13.9159 7.22662 14.1295 7.22947 14.383 7.38898C14.8188 7.66243 15.3572 7.69946 15.813 7.94728C16.4054 8.26916 17.0293 8.52837 17.6502 8.79043C18.2769 9.05249 18.8153 9.46551 19.3422 9.88709C19.459 9.98109 19.4505 10.0608 19.328 10.1321C19.0431 10.3001 18.7412 10.4311 18.4022 10.4625Z" fill="#292929"/>
<path d="M25.9107 8.1011C26.2867 8.17516 26.62 8.34038 26.9105 8.5825C27.033 8.68504 26.9504 8.72207 26.8308 8.76195C25.586 9.16358 24.3953 9.6934 23.2189 10.2602C23.0651 10.3343 22.917 10.4226 22.766 10.5024C22.729 10.5223 22.6606 10.5422 22.6606 10.565C22.6407 11.0293 22.3359 10.7559 22.1764 10.7245C21.883 10.6676 21.6181 10.5166 21.3731 10.3372C21.2107 10.2204 21.1822 10.1349 21.3987 10.0238C22.8116 9.30316 24.2614 8.6708 25.754 8.14098C25.8025 8.12674 25.8537 8.11535 25.9107 8.1011Z" fill="#292929"/>
<path d="M17.297 12.4564C17.1688 12.3824 17.0407 12.314 16.8897 12.2969C16.7672 12.1887 16.6333 12.3054 16.5051 12.2798C16.0693 12.1858 15.6364 12.1716 15.2005 12.2741C15.1835 12.277 15.1635 12.2798 15.1464 12.2884C14.9841 12.3339 14.9727 12.4763 14.9385 12.6045C14.853 12.6672 14.7505 12.7299 14.7533 12.8495C14.7647 13.3879 14.5482 13.9006 14.5596 14.4361C14.5739 15.0827 14.7277 15.2337 15.3116 15.2508C15.3971 15.2536 15.4797 15.2849 15.5651 15.2849C16.3542 15.2878 16.7615 15.2821 17.0179 14.6127C17.2344 14.2367 17.2002 13.7923 17.3426 13.3964C17.4223 13.2996 17.4651 13.1856 17.4651 13.0603V13.0631C17.4736 13.0517 17.4793 13.0375 17.485 13.0261C17.6132 12.784 17.5391 12.5988 17.297 12.4564Z" fill="#292929"/>
<path d="M26.1471 12.5362C26.1785 12.1801 26.0389 12.0377 25.6999 12.0434C25.6828 12.0348 25.6629 12.0291 25.643 12.0291C25.6059 11.938 25.5233 11.9665 25.455 11.9608C25.435 11.9437 25.4179 11.9408 25.4065 11.9494C25.022 11.8525 24.6374 11.901 24.2529 11.9551C23.9396 12.0007 23.7459 12.1602 23.7031 12.482C23.5351 12.8979 23.575 13.3223 23.612 13.7468C23.612 13.8493 23.6177 13.949 23.6348 14.0516C23.6291 14.1256 23.6234 14.1997 23.6234 14.2737C23.6205 14.7437 23.6519 14.7922 24.1076 14.8406C24.5833 14.889 25.0647 14.8975 25.5404 14.8206C25.811 14.7779 25.9876 14.6412 26.0303 14.3592C26.1956 14.1598 26.2326 13.9262 26.2554 13.6784C26.2867 13.2853 26.113 12.9179 26.1471 12.5362ZM25.3837 11.9836C25.3837 11.9836 25.3809 11.9836 25.3809 11.9864V11.9836H25.3837Z" fill="#292929"/>
</svg>
