<svg width="25" height="24" viewBox="0 0 25 24" fill="none" xmlns="http://www.w3.org/2000/svg">
<path d="M3.66504 18V7C3.66504 3 4.66504 2 8.66504 2H15.665C19.665 2 20.665 3 20.665 7V17C20.665 17.14 20.665 17.28 20.655 17.42" stroke="#515960" stroke-width="1.5" stroke-linecap="round" stroke-linejoin="round"/>
<path d="M3.66504 18V7C3.66504 3 4.66504 2 8.66504 2H15.665C19.665 2 20.665 3 20.665 7V17C20.665 17.14 20.665 17.28 20.655 17.42" stroke="black" stroke-opacity="0.2" stroke-width="1.5" stroke-linecap="round" stroke-linejoin="round"/>
<path d="M6.51504 15H20.665V18.5C20.665 20.43 19.095 22 17.165 22H7.16504C5.23504 22 3.66504 20.43 3.66504 18.5V17.85C3.66504 16.28 4.94504 15 6.51504 15Z" stroke="#515960" stroke-width="1.5" stroke-linecap="round" stroke-linejoin="round"/>
<path d="M6.51504 15H20.665V18.5C20.665 20.43 19.095 22 17.165 22H7.16504C5.23504 22 3.66504 20.43 3.66504 18.5V17.85C3.66504 16.28 4.94504 15 6.51504 15Z" stroke="black" stroke-opacity="0.2" stroke-width="1.5" stroke-linecap="round" stroke-linejoin="round"/>
<path d="M8.16504 7H16.165" stroke="#515960" stroke-width="1.5" stroke-linecap="round" stroke-linejoin="round"/>
<path d="M8.16504 7H16.165" stroke="black" stroke-opacity="0.2" stroke-width="1.5" stroke-linecap="round" stroke-linejoin="round"/>
<path d="M8.16504 10.5H13.165" stroke="#515960" stroke-width="1.5" stroke-linecap="round" stroke-linejoin="round"/>
<path d="M8.16504 10.5H13.165" stroke="black" stroke-opacity="0.2" stroke-width="1.5" stroke-linecap="round" stroke-linejoin="round"/>
</svg>
