<svg width="40" height="40" viewBox="0 0 40 40" fill="none" xmlns="http://www.w3.org/2000/svg">
<path d="M39.9895 18.4451C39.9611 20.1742 39.9183 21.9004 39.7958 23.6266C39.6762 25.2958 39.0125 26.7941 38.3346 28.2953C37.5968 29.9303 36.5428 31.3745 35.637 32.907C35.4917 33.1492 35.3522 33.397 35.224 33.6477C34.3295 35.3853 32.9537 36.6016 31.1563 37.3422C30.3188 37.6868 29.4956 38.0629 28.7037 38.4901C27.7267 39.0171 26.6699 39.2421 25.6159 39.507C24.5734 39.7691 23.508 39.7862 22.4427 39.8289C21.027 39.8859 19.6113 39.9714 18.1956 39.9998C16.74 40.0283 15.3214 39.7663 13.9086 39.4273C12.1225 38.9972 10.5615 38.0799 8.96353 37.2396C8.13461 36.8038 7.28291 36.4079 6.5252 35.8467C5.42853 35.0377 4.53125 34.0322 3.67099 32.9868C3.12978 32.3316 2.64268 31.6395 2.16128 30.9387C1.40643 29.842 1.09309 28.6001 0.839572 27.324C0.568964 25.9709 0.551872 24.6036 0.506296 23.2363C0.489205 22.735 0.457871 22.2394 0.278415 21.7608C0.0476856 21.1455 0.13599 20.4904 0.0761707 19.8552C-0.165953 17.2431 0.181566 14.6965 0.942119 12.1927C1.09024 11.7084 1.15006 11.1957 1.24406 10.6943C1.37224 10.0021 1.61152 9.33844 1.77673 8.65765C1.91631 8.08795 2.24389 7.64358 2.58856 7.19351C2.83068 6.87733 2.9845 6.51272 3.25796 6.20223C3.92736 5.44453 4.76767 4.92325 5.5795 4.36209C6.66193 3.61293 7.90104 3.17141 9.10311 2.66153C10.496 2.06904 11.9146 1.53922 13.336 1.02364C14.8799 0.462478 16.4751 0.154839 18.1243 0.129202C19.2894 0.112111 20.4544 0.0323529 21.6195 0.00386777C22.8187 -0.0246174 24.0065 0.109263 25.1972 0.240294C26.1287 0.339992 27.0744 0.396963 27.9603 0.698905C29.9229 1.36546 31.7858 2.22571 33.3126 3.67845C33.9279 4.26524 34.5261 4.86913 35.1755 5.41889C36.0985 6.19938 36.691 7.20776 37.2436 8.24747C38.3345 10.3012 39.1891 12.449 39.756 14.7079C39.9639 15.534 39.9126 16.3714 39.981 17.2032C40.018 17.6162 39.9895 18.0321 39.9895 18.4451Z" fill="#99C458"/>
<path d="M23.9011 11.6571C23.9667 11.8024 24.0835 11.922 24.2031 12.0303C24.6418 12.4348 25.1602 12.7709 25.7384 12.9105C26.3167 13.0529 26.9661 12.9817 27.4504 12.637C27.9375 12.2923 28.2252 11.6514 28.0742 11.076C28.0144 10.8424 27.8891 10.6288 27.7495 10.4323C27.1798 9.61759 26.0404 8.81146 24.9807 9.14189C24.129 9.4011 23.5365 10.8481 23.9011 11.6571Z" fill="white"/>
<path d="M11.4788 12.9247C11.7181 13.1412 12.0058 13.295 12.2963 13.4318C12.547 13.5486 12.8147 13.654 13.0911 13.6369C13.5183 13.6084 13.8658 13.2893 14.145 12.9646C14.39 12.6826 14.6122 12.3807 14.8087 12.0616C15.0081 11.7426 15.1876 11.3609 15.0736 11.002C15.0053 10.794 14.8457 10.626 14.6834 10.4807C13.9485 9.8227 12.3163 8.78584 11.4361 9.71161C10.6556 10.5291 10.6499 12.1727 11.4788 12.9247Z" fill="white"/>
<path d="M16.8967 17.0835C16.8796 16.4369 16.797 15.8046 16.4836 15.2263C16.2671 14.8275 16.2073 14.8275 15.8826 15.1466C15.4696 15.5539 15.0736 15.9698 14.8742 16.5309C14.8514 16.5936 14.8087 16.662 14.8201 16.7161C14.9084 17.1291 14.6349 17.112 14.3672 17.1092C14.182 17.1063 13.9969 17.1035 13.8117 17.1063C13.5525 17.1092 13.4585 17.0009 13.5212 16.7417C13.5952 16.4312 13.7291 16.1492 13.9057 15.8843C14.2134 15.4286 14.615 15.0611 14.9996 14.6794C15.3613 14.3176 15.8285 14.3518 16.2814 14.3433C17.1416 14.329 17.6515 14.7933 17.9278 15.5624C17.9819 15.7134 18.0389 15.7333 18.187 15.6792C18.8906 15.4229 19.6141 15.457 20.3405 15.5482C20.3918 15.5539 20.4573 15.5738 20.4858 15.6109C20.7479 15.9555 20.9387 15.7789 21.2008 15.5738C21.6651 15.2121 22.2348 15.0867 22.813 15.0184C23.0181 14.9956 23.2232 14.9813 23.4312 14.9756C23.9353 14.9614 24.3085 15.1266 24.6361 15.5653C24.9893 16.0324 25.445 16.4113 25.4906 17.0551C25.5077 17.2772 25.4564 17.5108 25.5647 17.7302C25.6046 17.8128 25.5077 17.864 25.428 17.8726C25.3197 17.8868 25.2115 17.8868 25.1032 17.8868C24.3598 17.884 24.1433 17.9751 24.1946 17.1006C24.2173 16.6933 24.0322 16.3173 23.7245 16.0239C23.6533 15.9555 23.5935 15.8786 23.5138 15.8188C23.3457 15.6906 23.2802 15.3915 23.0352 15.42C22.7333 15.4542 22.4484 15.6052 22.2433 15.8387C21.8417 16.2974 21.6622 16.85 21.6451 17.4539C21.628 18.0976 21.628 18.146 21.0156 18.1147C20.3063 18.0777 20.2494 18.24 20.3149 17.4396C20.3747 16.7332 19.9617 16.3372 19.5116 15.9327C19.3948 15.8273 19.2809 15.8501 19.1527 15.9214C18.9106 16.0524 18.7567 16.2632 18.64 16.4968C18.5118 16.7588 18.3665 17.0266 18.3067 17.3086C18.2241 17.6874 18.0161 17.8099 17.6629 17.7643C17.643 17.7615 17.6202 17.7672 17.5974 17.7672C16.7201 17.7586 16.9052 17.7985 16.8967 17.0835Z" fill="#292929"/>
<path d="M27.026 13.1954C26.9718 13.1954 26.9177 13.1925 26.8636 13.1954C26.5901 13.2153 26.3879 13.1897 26.2853 12.8478C26.1942 12.5459 25.935 12.3066 25.8182 11.9961C25.7612 11.8395 25.6615 11.7967 25.5305 11.9363C25.4935 11.9762 25.4365 11.999 25.408 12.0417C25.0263 12.5886 24.4623 12.5801 23.8897 12.5373C23.81 12.5317 23.7188 12.526 23.6875 12.4576C23.6391 12.355 23.753 12.3123 23.8128 12.261C24.223 11.905 24.6332 11.5518 25.0548 11.2071C25.2143 11.0761 25.2171 10.9764 25.1118 10.8026C24.8468 10.3554 24.6133 9.88823 24.3569 9.43247C24.2344 9.21598 24.3113 9.15047 24.5307 9.11913C24.8127 9.0821 25.0918 9.10204 25.3738 9.12198C25.502 9.13053 25.5561 9.19035 25.6074 9.30429C25.7185 9.55211 25.8638 9.78284 25.9777 10.0278C26.0632 10.2073 26.1486 10.1959 26.2569 10.0591C26.499 9.7572 26.8436 9.57774 27.1456 9.35271C27.382 9.1761 27.6925 9.26441 27.9688 9.26726C28.1226 9.2701 28.3676 9.19319 28.4103 9.36126C28.4588 9.55211 28.1967 9.59199 28.0628 9.68884C27.5472 10.0591 27.1313 10.5348 26.667 10.9593C26.5218 11.0932 26.6414 11.1985 26.6984 11.3011C26.9946 11.8195 27.288 12.338 27.6042 12.845C27.7694 13.1099 27.6384 13.1669 27.4134 13.1811C27.2823 13.1897 27.1513 13.184 27.0231 13.184C27.026 13.1897 27.026 13.1925 27.026 13.1954Z" fill="#292929"/>
<path d="M14.5238 12.6741C13.9 12.8478 13.6237 12.2468 13.205 11.9448C12.9714 11.7768 12.8831 11.7796 12.7492 12.0047C12.6609 12.1528 12.5527 12.2924 12.4416 12.4262C12.3134 12.5829 12.2564 12.8193 12.0285 12.8621C11.6753 12.9304 11.3164 12.9247 10.9632 12.8564C10.8037 12.825 10.8749 12.7367 10.9432 12.6484C11.2851 12.1984 11.6155 11.7398 11.963 11.2925C12.1225 11.0903 12.1339 10.9336 11.9089 10.7855C11.4446 10.4779 11.0401 10.1019 10.6555 9.70306C10.5986 9.64609 10.4761 9.61761 10.5245 9.50937C10.5615 9.42676 10.6641 9.42106 10.7524 9.41252C11.3534 9.34415 11.9032 9.39543 12.2707 9.97082C12.4102 10.1902 12.5498 10.2443 12.6922 9.94234C12.8033 9.71161 12.9828 9.50937 13.1281 9.29288C13.1964 9.19318 13.2847 9.15045 13.4044 9.1533C13.6322 9.15615 13.8601 9.1533 14.0909 9.1533C14.2019 9.1533 14.3273 9.1476 14.3899 9.2473C14.4697 9.38118 14.3358 9.47233 14.2675 9.55494C13.9712 9.92525 13.7804 10.3497 13.5667 10.7656C13.4756 10.945 13.5041 11.0504 13.6579 11.1786C14.1279 11.5631 14.5865 11.9619 15.0451 12.3607C15.1135 12.4205 15.2417 12.4775 15.1961 12.5858C15.1562 12.6826 15.0337 12.6741 14.934 12.6712C14.8144 12.6712 14.6947 12.6741 14.5238 12.6741Z" fill="#292929"/>
<path d="M30.9484 9.5464C30.6094 9.62616 30.3958 9.47804 30.2249 9.08494C29.997 8.56367 29.6039 8.12499 29.3675 7.59517C29.2535 7.3388 29.3105 7.26759 29.5669 7.25335C30.4699 7.19638 30.4756 7.19068 30.8743 8.00821C31.051 8.36997 31.3387 8.66052 31.5067 9.02797C31.7232 9.50368 31.7118 9.53501 31.2048 9.5464C31.1421 9.5464 31.0766 9.5464 30.9484 9.5464Z" fill="#292929"/>
<path d="M7.94662 8.49244C7.82413 8.49244 7.72443 8.49529 7.62758 8.49244C7.51364 8.48675 7.35698 8.52947 7.32279 8.38135C7.29431 8.25032 7.43389 8.18195 7.52789 8.11644C8.03492 7.76322 8.55335 7.4271 9.0376 7.04255C9.21705 6.90012 10.177 6.8574 10.365 6.97418C10.4419 7.02261 10.5302 7.08813 10.3906 7.15649C9.79815 7.43564 9.30251 7.85722 8.78123 8.23608C8.50493 8.43547 8.24286 8.52947 7.94662 8.49244Z" fill="#292929"/>
</svg>
