<svg width="70" height="108" viewBox="0 0 70 108" fill="none" xmlns="http://www.w3.org/2000/svg">
<g clip-path="url(#clip0_1_4847)">
<path d="M61.3782 53.5917C60.6361 53.3624 59.7241 53.4407 58.6704 53.9553C56.5461 47.5569 57.2882 40.9461 57.2882 40.9461C57.2882 40.9461 57.2712 40.9125 57.2372 40.8566C56.8067 40.1183 53.7703 35.3028 49.6407 38.116C44.3894 41.6899 39.7556 44.4081 37.0988 44.6206C34.5553 44.8164 36.9855 41.6508 37.1895 41.3823C36.9119 41.6228 33.3827 44.6989 29.7856 46.086L29.8762 46.2985C29.8762 46.2985 30.3634 55.0515 30.0858 55.7394C29.8762 56.2652 27.9615 60.0404 29.0265 62.9767C29.8252 65.1915 34.3797 68.8997 41.7553 69.5988L41.2738 73.6313C42.2141 74.4479 43.9816 75.449 46.8763 75.3092C49.9069 75.1582 51.3118 74.0508 51.9519 73.2062L50.9493 68.167C55.2319 65.941 57.9283 62.0371 57.9283 62.0371C57.9283 62.0371 59.7977 62.7194 61.4235 61.4498C64.5505 59.0169 64.0463 54.3747 61.3782 53.5917Z" fill="#F2C6A5"/>
<path d="M63.6667 38.899C64.3862 38.6641 66.3745 39.2122 65.7401 39.6876C65.0999 40.1574 63.3608 38.9997 63.6667 38.899Z" fill="#264A59"/>
<path d="M64.3862 35.6719C64.862 35.7558 64.3069 38.116 63.4288 38.1943C62.919 38.239 63.9047 35.5936 64.3862 35.6719Z" fill="#264A59"/>
<path d="M62.3922 38.6362C64.4938 41.2369 63.1626 51.7628 61.3782 53.5917C60.6361 53.3624 59.7241 53.4407 58.6704 53.9553C56.5461 47.5569 57.2882 40.9461 57.2882 40.9461C57.2882 40.9461 57.2712 40.9125 57.2372 40.8566L57.3958 40.7895C57.3958 40.7895 59.3615 39.4248 62.3922 38.6362Z" fill="#1F424E"/>
<path d="M37.1895 41.3823C36.9119 41.6228 33.3827 44.6989 29.7856 46.086C28.5053 46.5837 27.2081 46.8634 26.0524 46.718C22.8008 46.3153 26.7266 43.3342 27.0834 43.0602C26.7662 43.2224 23.9338 44.6598 22.7555 43.9886C19.7815 42.3107 23.8658 37.1205 28.6016 33.7088C43.5794 22.9032 57.1636 26.5106 61.3555 33.8654C61.939 34.8889 62.4998 37.2211 62.3412 38.4795L62.3865 38.6362C59.3615 39.4248 57.3958 40.7894 57.3958 40.7894L57.2372 40.8566C56.8067 40.1183 53.7703 35.3027 49.6407 38.116C44.3894 41.6899 39.7556 44.4081 37.0988 44.6206C34.5553 44.8164 36.9855 41.6508 37.1895 41.3823Z" fill="#264A59"/>
<path d="M64.4315 75.0463C71.2859 83.7937 69.881 101.49 69.881 101.49C69.881 101.49 61.5141 108.157 44.5027 107.994C27.497 107.832 23.2823 102.715 23.2823 102.715C23.2823 102.715 24.1944 78.1057 31.0601 74.5709C37.3764 71.3158 41.2681 73.6649 41.2681 73.6649L41.2738 73.6313C42.2141 74.4479 43.9816 75.449 46.8763 75.3092C49.9069 75.1582 51.3118 74.0508 51.9519 73.2062L51.9576 73.2342C51.9576 73.2342 60.0583 69.4813 64.4315 75.0463Z" fill="#7291A4"/>
<path opacity="0.2" d="M51.1419 69.1345L50.9493 68.167C49.4028 68.9779 47.6467 69.5596 45.732 69.6659C44.3271 69.7442 43.0015 69.7106 41.7553 69.5988L41.4267 72.3281C44.8143 72.3952 48.1622 71.327 51.1419 69.1345Z" fill="#5A287F"/>
<path d="M37.3084 41.4718C36.9685 41.936 36.6626 42.4226 36.419 42.9259C36.3057 43.1776 36.2038 43.4405 36.1641 43.6978C36.1188 43.955 36.1641 44.1843 36.3171 44.285C36.6626 44.5087 37.3197 44.3801 37.8466 44.2626C38.3847 44.1396 38.9342 43.9439 39.4667 43.7313C40.5317 43.2951 41.5683 42.7749 42.5823 42.2156C43.5963 41.6563 44.5933 41.0523 45.579 40.4427C46.5647 39.8274 47.539 39.1954 48.5134 38.5522L49.2385 38.0657L49.4198 37.9426L49.4651 37.9146L49.5274 37.8755L49.6237 37.8196L50.0032 37.6014C50.2355 37.4448 50.5527 37.3386 50.8473 37.2323L51.0682 37.154L51.3005 37.1093L51.7593 37.0254C52.3768 36.9862 53.0169 37.031 53.5891 37.2603C53.8893 37.3442 54.1499 37.5064 54.4218 37.635C54.671 37.8028 54.9429 37.9538 55.1639 38.1495C55.6397 38.5187 56.0476 38.9549 56.4215 39.408C56.7953 39.8666 57.1296 40.3476 57.4185 40.8677C57.4581 40.9404 57.4298 41.0299 57.3561 41.0691C57.2882 41.1082 57.1975 41.0803 57.1579 41.0131V41.0075C56.869 40.521 56.5234 40.0623 56.1495 39.6317C55.7757 39.2066 55.3678 38.8039 54.909 38.4739C54.688 38.295 54.4444 38.1607 54.2065 38.0097C53.9516 37.8979 53.708 37.7469 53.4418 37.6853C52.9206 37.484 52.3598 37.4672 51.8216 37.5064C51.2665 37.6014 50.785 37.7469 50.2808 38.0433L49.9013 38.2614L49.805 38.3173L49.7823 38.3285C49.8106 38.3117 49.7766 38.3341 49.7766 38.3341L49.7313 38.3621L49.55 38.4851L48.825 38.9773C47.8563 39.6261 46.8819 40.2693 45.8906 40.8957C44.8992 41.5165 43.8909 42.1094 42.8599 42.6687C41.8289 43.228 40.7753 43.7593 39.6706 44.1843C39.1098 44.3913 38.5547 44.5814 37.9542 44.7045C37.6426 44.7772 37.382 44.8052 37.0535 44.8331C36.7476 44.8387 36.3964 44.8443 36.0678 44.6094C35.9092 44.492 35.8016 44.3018 35.7676 44.1228C35.7336 43.9438 35.7449 43.7705 35.7789 43.6139C35.8412 43.3007 35.9658 43.021 36.1018 42.7526C36.3794 42.2212 36.7136 41.7402 37.0761 41.276L37.0818 41.2704L37.0931 41.2592L37.1101 41.2425C37.1725 41.1865 37.2631 41.1865 37.3197 41.248C37.3651 41.3263 37.3651 41.4158 37.3084 41.4718Z" fill="#173842"/>
<path d="M27.1741 43.1776C27.1741 43.1776 26.9531 43.351 26.5906 43.6754C26.2394 43.9998 25.7125 44.4864 25.2707 45.1463C25.0554 45.4651 24.8968 45.9014 25.1121 46.1139C25.333 46.3488 25.8712 46.4663 26.347 46.4663C26.8965 46.511 27.3893 46.4383 27.9105 46.3544C28.1711 46.2929 28.4373 46.2258 28.7036 46.1587L29.4853 45.8902C29.9838 45.7112 30.5163 45.454 31.0205 45.2414C31.4963 44.9841 31.9778 44.7437 32.4253 44.4808C32.8672 44.2011 33.3147 43.9606 33.7169 43.6978C34.1135 43.4293 34.5043 43.1944 34.8442 42.9427C35.1841 42.6966 35.507 42.4841 35.7789 42.2772C36.0508 42.0702 36.2944 41.9024 36.487 41.7458C36.8779 41.4438 37.0931 41.2704 37.0931 41.2704C37.1555 41.2201 37.2518 41.2257 37.3027 41.2872C37.3537 41.3487 37.3481 41.4382 37.2914 41.4886C37.2914 41.4886 37.0818 41.6787 36.7079 42.0031C36.3341 42.3275 35.7959 42.7861 35.1105 43.2951C34.7762 43.5579 34.391 43.8096 33.9945 44.0949C33.598 44.3745 33.1561 44.643 32.7029 44.9282C32.2441 45.2023 31.7399 45.4596 31.2471 45.728C30.7316 45.9517 30.2444 46.1978 29.6892 46.4048C29.4173 46.4998 29.1454 46.5949 28.8678 46.6788C28.5846 46.7459 28.3014 46.813 28.0238 46.8746C27.446 46.9641 26.8455 47.0312 26.3357 46.9808L26.1374 46.9752L26.0128 46.9808L25.9108 46.9641C25.7749 46.9473 25.6389 46.9137 25.503 46.8802C25.2367 46.7963 24.9535 46.6844 24.7382 46.4383C24.5116 46.181 24.5059 45.8119 24.5796 45.5602C24.6532 45.3029 24.7779 45.096 24.9025 44.9058C25.418 44.1788 25.9958 43.7425 26.3753 43.4237C26.7662 43.1105 26.9985 42.9483 26.9985 42.9483L27.0041 42.9427C27.0721 42.898 27.1627 42.9148 27.2137 42.9763C27.2477 43.0434 27.2364 43.1329 27.1741 43.1776Z" fill="#173842"/>
<path d="M57.1239 40.7671C57.1239 40.7671 57.1862 40.7055 57.3052 40.6105C57.4298 40.5098 57.5997 40.3755 57.8207 40.2245C58.0416 40.0847 58.2965 39.9057 58.5854 39.7491C58.88 39.5981 59.1859 39.4247 59.5088 39.2849C59.8317 39.1451 60.1602 39.0109 60.4718 38.9046C60.7834 38.7983 61.0779 38.7033 61.3385 38.6473C61.854 38.5243 62.1996 38.4683 62.1996 38.4683C62.2789 38.4516 62.3582 38.5075 62.3752 38.5858C62.3865 38.6529 62.3525 38.72 62.2902 38.748L62.2789 38.7536C62.2789 38.7536 61.9616 38.8934 61.4801 39.0668C61.2365 39.1451 60.9646 39.2793 60.6701 39.3968C60.3698 39.5086 60.0583 39.6485 59.7524 39.7939C59.4351 39.9225 59.1349 40.0791 58.846 40.2134C58.5627 40.3588 58.2908 40.4818 58.0642 40.6049C57.6111 40.8454 57.3108 41.002 57.3108 41.002C57.2372 41.0411 57.1465 41.0131 57.1069 40.9404C57.0616 40.8845 57.0786 40.8118 57.1239 40.7671Z" fill="#173842"/>
<path d="M41.5513 73.2901C41.5513 73.2901 41.7156 73.374 41.9932 73.5362C42.1235 73.5921 42.2821 73.6648 42.452 73.7487C42.6446 73.8158 42.8486 73.9109 43.0865 73.9892C43.3301 74.0563 43.5737 74.1514 43.8513 74.2073C43.9872 74.2409 44.1288 74.2689 44.2761 74.3024C44.4234 74.3248 44.5763 74.3472 44.7293 74.3695C45.0295 74.4311 45.3581 74.4255 45.681 74.459C46.0039 74.4982 46.3438 74.4534 46.6837 74.4646H46.8083H46.8253H46.8309C46.8706 74.4646 46.7856 74.4702 46.797 74.4646H46.8026H46.8366L46.9046 74.459L47.1765 74.4366C47.3578 74.4199 47.539 74.4087 47.7203 74.3919C48.0659 74.3583 48.3434 74.3024 48.6493 74.2633C48.9382 74.1794 49.2441 74.1402 49.5047 74.0507C49.7653 73.9557 50.0259 73.8885 50.2355 73.7823C50.4621 73.6928 50.649 73.5865 50.819 73.4858C50.9946 73.3964 51.1192 73.2845 51.2438 73.2118C51.4648 73.0384 51.5894 72.9321 51.5894 72.9321L51.6347 72.8986C51.8216 72.7364 52.1049 72.7588 52.2692 72.9433C52.3994 73.0943 52.4108 73.3013 52.3145 73.4635C52.3145 73.4635 52.2861 73.5082 52.2352 73.5865C52.1842 73.6648 52.1162 73.7935 52.0029 73.9333C51.8839 74.0619 51.7593 74.2521 51.5667 74.4143C51.3854 74.5877 51.1702 74.7778 50.9096 74.94C50.6603 75.1246 50.3658 75.27 50.0485 75.421C49.7313 75.5664 49.3858 75.6783 49.0289 75.8013C48.6607 75.8796 48.2471 75.9915 47.8846 76.0418C47.7033 76.0586 47.5277 76.081 47.3464 76.0978L47.0745 76.1257L47.0066 76.1313L46.9726 76.1369L46.8989 76.1425H46.7516C46.3551 76.1369 45.9642 76.1593 45.5734 76.1089C45.1825 76.0642 44.8029 76.0306 44.4347 75.93C44.2535 75.8852 44.0722 75.8405 43.8966 75.8013C43.7266 75.7398 43.5623 75.6783 43.3981 75.6168C43.0695 75.5105 42.7863 75.3427 42.52 75.2085C42.2538 75.0687 42.0328 74.9009 41.8346 74.7666C41.6363 74.61 41.472 74.4646 41.3361 74.3472C41.1152 74.1123 40.9962 73.9724 40.9962 73.9724C40.8319 73.7823 40.8546 73.497 41.0472 73.3404C41.1888 73.223 41.3927 73.2062 41.5513 73.2901Z" fill="#3D6373"/>
<path d="M36.2378 53.0771C36.2378 52.4284 35.6996 51.897 35.0425 51.897C34.3797 51.897 33.8472 52.4284 33.8472 53.0771C33.8472 53.7315 34.3854 54.2573 35.0425 54.2573C35.7053 54.2573 36.2378 53.7259 36.2378 53.0771Z" fill="black"/>
<path d="M49.3745 52.9094C49.3745 52.255 48.8363 51.7292 48.1792 51.7292C47.5221 51.7292 46.9839 52.255 46.9839 52.9094C46.9839 53.5637 47.5221 54.0895 48.1792 54.0895C48.8363 54.0895 49.3745 53.5637 49.3745 52.9094Z" fill="black"/>
<path d="M37.4047 60.5102C37.4047 60.5102 37.416 60.471 37.433 60.3983C37.4614 60.3256 37.4897 60.2026 37.552 60.074C37.6143 59.9453 37.6766 59.7775 37.7842 59.6041C37.8806 59.4252 37.9995 59.2238 38.1581 59.0281C38.2997 58.8155 38.498 58.6198 38.7133 58.4184C38.9115 58.1947 39.1891 58.0437 39.4554 57.8535C39.7329 57.6802 40.0502 57.5627 40.3674 57.4229C40.5317 57.3781 40.696 57.339 40.8546 57.2943C40.9849 57.2495 41.2228 57.2383 41.3984 57.2215C41.5967 57.1936 41.7779 57.216 41.9592 57.2271C42.1405 57.2327 42.3161 57.2663 42.4917 57.3054C42.6673 57.3334 42.8373 57.3893 42.9959 57.4564C43.1602 57.5124 43.3131 57.5795 43.4604 57.6634C43.7606 57.8088 44.0099 57.9934 44.2421 58.1779C44.4744 58.3569 44.667 58.5527 44.8369 58.7372C45.1768 59.1064 45.3921 59.4531 45.545 59.6992C45.6187 59.8223 45.6697 59.9229 45.7036 59.9956C45.7376 60.0684 45.7546 60.1075 45.7546 60.1075C45.8226 60.2529 45.7603 60.4319 45.613 60.499C45.4884 60.5549 45.3411 60.5214 45.2561 60.4207L45.2391 60.3983C45.2391 60.3983 45.2165 60.3704 45.1768 60.3256C45.1315 60.2753 45.0635 60.197 44.9786 60.1019C44.8086 59.9062 44.548 59.6489 44.2138 59.3748C44.0495 59.2406 43.8626 59.0952 43.6587 58.9665C43.4604 58.8323 43.2338 58.7093 43.0015 58.6142C42.8882 58.5583 42.7693 58.5135 42.6447 58.48C42.5257 58.4352 42.4011 58.4072 42.2708 58.3849C42.1462 58.3569 42.0159 58.3345 41.8856 58.3345C41.7553 58.329 41.625 58.3122 41.5117 58.3345C41.3871 58.3569 41.3021 58.3234 41.1322 58.3793L40.7243 58.4744C40.4807 58.5918 40.2258 58.6589 39.9992 58.7764C39.7896 58.9218 39.546 59.0113 39.3704 59.1735C39.1835 59.3189 39.0022 59.4587 38.8549 59.6153C38.6963 59.7607 38.5717 59.9062 38.4584 60.0404C38.3394 60.169 38.2601 60.2977 38.1808 60.3983C38.1128 60.499 38.0562 60.5773 38.0222 60.6332C37.9882 60.6948 37.9655 60.7283 37.9655 60.7283L37.9542 60.7395C37.8692 60.8793 37.6879 60.9297 37.5407 60.8458C37.4274 60.7787 37.3707 60.6388 37.4047 60.5102Z" fill="black"/>
<path opacity="0.6" d="M42.1971 49.1845C42.0442 48.9216 40.7639 49.1341 40.2314 50.3925C40.0049 50.9351 39.3251 54.7774 39.8066 55.3759C40.3901 56.1086 42.4124 55.6387 42.6786 54.9564C42.9449 54.2741 42.4124 49.5536 42.1971 49.1845Z" fill="#C67B9E"/>
<path d="M47.7487 46.4495C47.7656 46.4551 48.0546 46.6732 48.2132 46.7795C48.5304 46.9976 48.9609 47.2437 49.4084 47.4059C49.6294 47.4954 49.856 47.5513 50.0712 47.6016C50.1789 47.6352 50.2865 47.6352 50.3828 47.6576C50.4848 47.6799 50.5811 47.6855 50.6717 47.6911C51.0342 47.7359 52.1729 47.5401 52.3315 48.4686C52.4958 49.4529 50.6774 49.878 49.1082 49.4753C47.2162 48.9887 46.4571 47.8813 46.3211 47.171C46.1908 46.4998 46.627 46.2202 47.0462 46.1698C47.3068 46.1475 47.7317 46.4439 47.7487 46.4495Z" fill="#163942"/>
<path d="M36.0962 46.7907C36.0792 46.7963 35.7846 47.0144 35.6316 47.1207C35.3144 47.3388 34.8839 47.5849 34.4364 47.7471C34.2154 47.8366 33.9888 47.8925 33.7736 47.9484C33.6659 47.982 33.5583 47.982 33.4564 48.0043C33.3544 48.0267 33.2581 48.0323 33.1674 48.0435C32.8049 48.0882 31.6663 47.8925 31.5077 48.8209C31.3434 49.8053 33.1618 50.2303 34.7309 49.8276C36.623 49.3411 37.3821 48.2337 37.518 47.5233C37.6483 46.8578 37.2121 46.5725 36.7929 46.5222C36.538 46.4887 36.1131 46.7851 36.0962 46.7907Z" fill="#163942"/>
<path d="M34.6289 80.9916C34.6289 80.9916 34.561 81.3887 34.4477 82.0878C34.391 82.4346 34.323 82.8596 34.2381 83.3406C34.1701 83.8272 34.0908 84.3753 33.9945 84.9738C33.8925 85.5666 33.8132 86.221 33.7169 86.9034C33.6206 87.5857 33.5186 88.3128 33.411 89.0566C33.3204 89.8061 33.2297 90.5779 33.1391 91.3665C33.0881 91.758 33.0371 92.1551 32.9918 92.5522C32.9578 92.9493 32.9182 93.352 32.8842 93.7491C32.8105 94.5489 32.7312 95.3487 32.6576 96.1373C32.5613 96.9259 32.5273 97.7034 32.4877 98.4528C32.4423 99.2079 32.3914 99.935 32.346 100.623C32.3234 100.97 32.3007 101.305 32.2781 101.63C32.2724 101.954 32.2667 102.267 32.2611 102.569C32.2441 103.777 32.1987 104.784 32.1761 105.489C32.1478 106.193 32.1251 106.602 32.1251 106.602V106.613C32.1194 106.691 32.0515 106.753 31.9722 106.747C31.9042 106.742 31.8475 106.691 31.8362 106.624C31.8362 106.624 31.7909 106.221 31.7286 105.517C31.6776 104.806 31.5813 103.8 31.502 102.58C31.485 102.278 31.4623 101.96 31.4453 101.63C31.4453 101.3 31.4453 100.964 31.451 100.612C31.4567 99.9126 31.468 99.1743 31.4737 98.4137C31.4906 97.653 31.485 96.8644 31.5643 96.0646C31.6266 95.2648 31.6946 94.4539 31.7569 93.6485C31.8135 92.8375 31.9212 92.0321 32.0345 91.2379C32.1478 90.4437 32.2611 89.6663 32.3687 88.9112C32.4877 88.1562 32.6406 87.4347 32.7709 86.7524C32.9012 86.0644 33.0258 85.4156 33.1788 84.8284C33.4507 83.6427 33.7282 82.6583 33.9322 81.976C34.0285 81.6348 34.1135 81.3663 34.1758 81.1874C34.2381 81.0084 34.2664 80.9077 34.2664 80.9077C34.3004 80.807 34.408 80.7567 34.5043 80.7847C34.595 80.807 34.6459 80.8965 34.6289 80.9916Z" fill="#597380"/>
<path d="M56.7727 80.9469C56.7727 80.9469 56.9653 81.2936 57.2485 81.9256C57.5318 82.5576 57.9396 83.4525 58.3532 84.5599C58.5628 85.1136 58.7893 85.7121 58.9989 86.3552C59.2255 86.9928 59.4295 87.6808 59.6391 88.3855C59.8543 89.0958 60.0413 89.8341 60.2339 90.5835C60.3981 91.3442 60.5964 92.1048 60.738 92.8822C60.8683 93.6597 61.0383 94.4315 61.1289 95.2033C61.2309 95.9751 61.3385 96.7302 61.3895 97.4685C61.4575 98.2067 61.5141 98.917 61.5198 99.5994C61.5311 100.282 61.5708 100.919 61.5311 101.512C61.5028 102.105 61.4745 102.648 61.4518 103.129C61.4121 103.61 61.3498 104.023 61.3102 104.365C61.2252 105.047 61.1629 105.438 61.1629 105.438C61.1516 105.517 61.0779 105.567 60.9986 105.556C60.9306 105.545 60.8797 105.489 60.8797 105.422V105.41C60.8797 105.41 60.8683 105.019 60.8683 104.337C60.8683 103.995 60.8797 103.582 60.8683 103.112C60.8457 102.642 60.8173 102.105 60.7834 101.523C60.7777 100.942 60.6757 100.315 60.6304 99.6553C60.5907 98.9897 60.4718 98.2962 60.3868 97.5747C60.3132 96.8532 60.1659 96.115 60.0526 95.3599C59.9506 94.6049 59.775 93.8498 59.6334 93.0892C59.4861 92.3285 59.3105 91.5735 59.1519 90.824C58.9593 90.0858 58.8063 89.3475 58.6194 88.6428C58.2569 87.2334 57.8943 85.919 57.5714 84.8004C57.2372 83.6818 56.9709 82.7422 56.7557 82.0934C56.5461 81.4446 56.4271 81.0699 56.4271 81.0699C56.3931 80.9692 56.4498 80.863 56.5517 80.835C56.6367 80.8294 56.733 80.8742 56.7727 80.9469Z" fill="#597380"/>
<path d="M43.3697 85.4492C43.3697 85.4492 42.1575 82.4122 39.7273 83.7713C37.9485 84.7669 39.1608 87.2893 39.1608 87.2893C39.1608 87.2893 37.3764 88.1674 37.8636 89.6104C38.3791 91.1372 39.3194 92.0097 42.1575 90.8128C42.1575 90.8128 42.724 92.8095 44.9899 92.6529C47.2558 92.4907 47.8223 90.3318 47.8223 90.3318C47.8223 90.3318 49.3631 92.4907 51.3854 91.3721C53.4078 90.2535 51.629 88.173 51.629 88.173C51.629 88.173 54.3935 86.3776 52.5977 84.7333C50.3318 82.6527 48.5474 85.4548 48.5474 85.4548C48.5474 85.4548 48.4681 82.2556 46.0379 82.2556C43.0412 82.25 43.3697 85.4492 43.3697 85.4492Z" fill="#BDC4CD"/>
<path d="M39.6423 93.229C39.6423 93.229 38.8889 94.5098 39.4837 94.672C40.0785 94.8286 39.9709 93.2849 39.6423 93.229Z" fill="#BCCEE0"/>
<path d="M42.3444 95.3599C42.0725 95.3096 41.5853 97.1217 42.1292 97.1217C42.6673 97.1217 42.6163 95.4158 42.3444 95.3599Z" fill="#BCCEE0"/>
<path d="M39.699 99.2526C39.5403 99.2862 38.6736 101.171 39.4837 101.171C40.2938 101.171 39.9652 99.2023 39.699 99.2526Z" fill="#BCCEE0"/>
<path d="M46.2305 95.1474C46.0662 95.1474 46.0152 97.0658 46.5534 96.9595C47.0972 96.8532 46.2305 95.1474 46.2305 95.1474Z" fill="#BCCEE0"/>
<path d="M45.2052 99.9461C44.9842 99.9909 44.3441 101.865 45.2618 101.865C46.1795 101.865 45.4771 99.8958 45.2052 99.9461Z" fill="#BCCEE0"/>
<path d="M49.9579 94.5657C49.686 94.5657 49.635 97.0714 50.2808 96.9092C50.9266 96.747 50.2808 94.5657 49.9579 94.5657Z" fill="#BCCEE0"/>
<path d="M49.4708 99.0401C49.2498 99.0401 48.8193 101.652 49.686 101.596C50.5527 101.546 49.9579 99.0401 49.4708 99.0401Z" fill="#BCCEE0"/>
<path d="M16.4958 0.0275784C4.39015 -0.677134 -2.01674 11.2862 0.566411 19.038C3.15523 26.7899 17.6685 35.0227 27.0324 24.9554C27.0324 24.9554 30.7428 26.8458 31.1677 26.2418C31.5926 25.6377 28.4373 21.8345 28.4373 21.8345C28.4373 21.8345 32.3233 16.085 30.5446 10.1396C28.5279 3.41132 22.6365 0.385528 16.4958 0.0275784Z" fill="#8FC0D4"/>
<path d="M9.72647 10.5315C9.71514 10.5371 9.55086 10.7161 9.46022 10.8056C9.27895 10.9846 9.0297 11.2027 8.75779 11.3593C8.6275 11.4432 8.48587 11.5103 8.34992 11.5718C8.28761 11.6054 8.21396 11.6222 8.15165 11.6501C8.08934 11.6781 8.02703 11.6893 7.96471 11.7061C7.73246 11.7788 6.96204 11.7899 6.97904 12.4164C6.99037 13.0763 8.23662 13.1378 9.21097 12.6792C10.3836 12.1311 10.7461 11.3145 10.7461 10.8336C10.7518 10.3805 10.4289 10.2519 10.1457 10.2687C9.98138 10.2798 9.7378 10.5259 9.72647 10.5315Z" fill="#002640"/>
<path d="M21.1977 10.8615C21.209 10.8671 21.3846 11.0293 21.4809 11.1132C21.6735 11.281 21.9398 11.4767 22.223 11.6166C22.359 11.6949 22.5063 11.7452 22.6422 11.8011C22.7102 11.8291 22.7838 11.8403 22.8462 11.8627C22.9085 11.885 22.9764 11.8962 23.0331 11.9074C23.271 11.9633 24.0414 11.9242 24.0698 12.545C24.1037 13.205 22.8632 13.3504 21.8605 12.9645C20.6482 12.4947 20.2347 11.7061 20.195 11.2307C20.161 10.7776 20.4726 10.6266 20.7558 10.6266C20.9258 10.6266 21.1864 10.8559 21.1977 10.8615Z" fill="#002640"/>
<path d="M9.70948 19.7096C9.70948 19.7096 9.75479 19.4803 9.88508 19.1167C10.0267 18.7532 10.242 18.233 10.6328 17.6793C11.018 17.1256 11.5902 16.5216 12.3606 16.0798C13.1254 15.6267 14.077 15.3862 15.0061 15.3694L15.346 15.375C15.4536 15.3806 15.5895 15.3974 15.7142 15.4086C15.9578 15.4366 16.1843 15.4813 16.4166 15.5428C16.8755 15.6603 17.3003 15.8616 17.6799 16.0909C18.4389 16.5607 18.9828 17.176 19.3623 17.7297C19.7418 18.289 19.9571 18.8035 20.0987 19.1615C20.1667 19.3404 20.212 19.4915 20.2403 19.5921C20.2687 19.6984 20.2857 19.7543 20.2857 19.7543C20.3253 19.9109 20.2347 20.0731 20.0704 20.1123C19.9288 20.1514 19.7872 20.0787 19.7249 19.9557L19.7135 19.9333C19.7135 19.9333 19.6909 19.8886 19.6512 19.8103C19.6059 19.7264 19.5436 19.6033 19.4586 19.4523C19.2887 19.1447 19.0111 18.7196 18.6315 18.261C18.252 17.808 17.7478 17.3382 17.1304 16.997C16.8245 16.8236 16.4846 16.695 16.1277 16.6055C15.9521 16.5607 15.7652 16.5272 15.5839 16.5104C15.4932 16.5048 15.4196 16.4936 15.3176 16.488L15.0231 16.4824C14.2527 16.488 13.5049 16.6782 12.8761 16.997C12.2416 17.3214 11.7318 17.78 11.3466 18.2163C10.9614 18.6637 10.6838 19.0832 10.5195 19.3908C10.3496 19.6984 10.276 19.8718 10.276 19.8718C10.208 20.0228 10.0324 20.0899 9.87942 20.0284C9.75479 19.978 9.68115 19.8438 9.70948 19.7096Z" fill="black"/>
<path d="M10.225 14.5025C10.3496 14.083 10.1117 13.6468 9.69247 13.5238C9.26761 13.4007 8.82576 13.6356 8.70113 14.0495C8.5765 14.4634 8.81443 14.9052 9.23362 15.0283C9.65848 15.1513 10.1003 14.9164 10.225 14.5025Z" fill="black"/>
<path d="M22.1324 15.0115C22.257 14.5976 22.0191 14.1558 21.5999 14.0327C21.175 13.9097 20.7332 14.1446 20.6086 14.5585C20.4839 14.9723 20.7219 15.4142 21.141 15.5372C21.5659 15.6659 22.0078 15.431 22.1324 15.0115Z" fill="black"/>
<path d="M58.4721 57.2495C58.4721 57.2495 58.5005 56.9251 58.6931 56.4944C58.795 56.2819 58.9423 56.0358 59.1576 55.8065C59.2652 55.6946 59.3842 55.5772 59.5315 55.4877C59.6731 55.3926 59.826 55.3031 59.996 55.2472C60.0809 55.2192 60.1659 55.1857 60.2509 55.1745L60.3812 55.1465L60.4152 55.1409L60.4322 55.1354H60.4378L60.5001 55.1298H60.5511H60.7607C60.8287 55.1298 60.8967 55.1298 61.0043 55.1577C61.1969 55.1969 61.3838 55.2528 61.5085 55.3423C61.6501 55.415 61.7634 55.5101 61.854 55.6108C61.956 55.7002 62.0126 55.8065 62.0693 55.8904C62.1259 55.9743 62.1599 56.0582 62.1939 56.1253C62.2506 56.2595 62.2676 56.349 62.2676 56.349C62.2959 56.4665 62.2166 56.5895 62.0976 56.6119C62.0126 56.6287 61.9333 56.6007 61.8823 56.5448L61.854 56.5112C61.854 56.5112 61.8144 56.4665 61.7464 56.3882C61.6728 56.3099 61.5595 56.198 61.4122 56.1141C61.3442 56.0638 61.2649 56.0246 61.1742 56.0023C61.0893 55.9519 61.01 55.9687 60.942 55.9463C60.9193 55.9296 60.8457 55.9351 60.7777 55.9407L60.5681 55.9519H60.5171H60.5115C60.6191 55.9407 60.5398 55.9519 60.5625 55.9463H60.5568H60.5455L60.5228 55.9519L60.4435 55.9743C60.3868 55.9855 60.3359 56.0023 60.2849 56.0246C59.8713 56.17 59.5145 56.528 59.2709 56.8356C59.1519 56.9922 59.0499 57.1264 58.9876 57.2271C58.9253 57.3222 58.8913 57.3781 58.8913 57.3781L58.8857 57.3893C58.8177 57.4956 58.6761 57.5235 58.5684 57.4564C58.5005 57.4117 58.4665 57.3278 58.4721 57.2495Z" fill="#B38879"/>
<path opacity="0.2" d="M49.9749 61.3379C51.5142 61.3379 52.762 60.1285 52.762 58.6365C52.762 57.1446 51.5142 55.9352 49.9749 55.9352C48.4357 55.9352 47.1878 57.1446 47.1878 58.6365C47.1878 60.1285 48.4357 61.3379 49.9749 61.3379Z" fill="#B34C85"/>
<path opacity="0.2" d="M33.8302 62.3615C35.3695 62.3615 36.6173 61.152 36.6173 59.6601C36.6173 58.1681 35.3695 56.9587 33.8302 56.9587C32.291 56.9587 31.0431 58.1681 31.0431 59.6601C31.0431 61.152 32.291 62.3615 33.8302 62.3615Z" fill="#B34C85"/>
</g>
<defs>
<clipPath id="clip0_1_4847">
<rect width="70" height="108" fill="white"/>
</clipPath>
</defs>
</svg>
