<svg width="36" height="36" viewBox="0 0 36 36" fill="none" xmlns="http://www.w3.org/2000/svg">
<path d="M17.993 2.22539C9.31993 2.22539 2.2254 9.31992 2.2254 17.993C2.2254 26.666 9.31993 33.7605 17.993 33.7605C26.666 33.7605 33.7606 26.666 33.7606 17.993C33.7606 9.31992 26.666 2.22539 17.993 2.22539ZM26.891 13.0219L15.6867 25.4531L9.24259 18.8543C8.62736 18.2391 8.62736 17.318 9.24259 16.7062C9.85782 16.0945 10.7789 16.091 11.3906 16.7062L15.6867 21.0023L24.5883 11.0285C25.2035 10.4133 26.1246 10.4133 26.7363 10.8738C27.3516 11.4891 27.3516 12.4102 26.891 13.0219Z" fill="#00C55A"/>
</svg>
