<svg width="165" height="47" viewBox="0 0 165 47" fill="none" xmlns="http://www.w3.org/2000/svg">
<path d="M0 23.5C0 10.5213 10.5213 0 23.5 0H141.5C154.479 0 165 10.5213 165 23.5C165 36.4787 154.479 47 141.5 47H23.5C10.5213 47 0 36.4787 0 23.5Z" fill="url(#paint0_linear_1_5377)"/>
<path d="M41.0844 24.4263V28.6523C40.9183 28.8525 40.662 29.0698 40.3153 29.3042C39.9686 29.5337 39.5219 29.7314 38.975 29.8975C38.4281 30.0635 37.7665 30.1465 36.9901 30.1465C36.3016 30.1465 35.6742 30.0342 35.1078 29.8096C34.5414 29.5801 34.0531 29.2456 33.6429 28.8062C33.2377 28.3667 32.9252 27.8296 32.7054 27.1948C32.4857 26.5552 32.3759 25.8252 32.3759 25.0049V24.3384C32.3759 23.5181 32.4808 22.7881 32.6908 22.1484C32.9056 21.5088 33.2108 20.9692 33.6063 20.5298C34.0018 20.0903 34.473 19.7559 35.0199 19.5264C35.5668 19.2969 36.1747 19.1821 36.8436 19.1821C37.7714 19.1821 38.5331 19.3335 39.1288 19.6362C39.7245 19.9341 40.1786 20.3491 40.4911 20.8813C40.8085 21.4087 41.0038 22.0142 41.077 22.6978H38.9457C38.892 22.3364 38.7894 22.0215 38.6381 21.7529C38.4867 21.4844 38.2694 21.2744 37.9862 21.123C37.7079 20.9717 37.3466 20.896 36.9022 20.896C36.536 20.896 36.2089 20.9717 35.9208 21.123C35.6376 21.2695 35.3983 21.4868 35.203 21.7749C35.0077 22.063 34.8588 22.4194 34.7562 22.8442C34.6537 23.269 34.6024 23.7622 34.6024 24.3237V25.0049C34.6024 25.5615 34.6561 26.0547 34.7635 26.4844C34.871 26.9092 35.0297 27.2681 35.2396 27.561C35.4545 27.8491 35.7181 28.0664 36.0306 28.2129C36.3431 28.3594 36.7069 28.4326 37.1219 28.4326C37.4686 28.4326 37.7567 28.4033 37.9862 28.3447C38.2206 28.2861 38.4086 28.2153 38.5502 28.1323C38.6967 28.0444 38.809 27.9614 38.8871 27.8833V25.9937H36.8802V24.4263H41.0844ZM46.3724 30.1465C45.7572 30.1465 45.2054 30.0488 44.7172 29.8535C44.2289 29.6533 43.8138 29.3774 43.472 29.0259C43.1351 28.6743 42.8763 28.2666 42.6957 27.8027C42.515 27.334 42.4247 26.8359 42.4247 26.3086V26.0156C42.4247 25.415 42.5101 24.8657 42.681 24.3677C42.8519 23.8696 43.0961 23.4375 43.4135 23.0713C43.7357 22.7051 44.1263 22.4243 44.5853 22.229C45.0443 22.0288 45.5619 21.9287 46.1381 21.9287C46.6996 21.9287 47.1976 22.0215 47.6322 22.207C48.0668 22.3926 48.4305 22.6562 48.7235 22.998C49.0214 23.3398 49.246 23.75 49.3973 24.2285C49.5487 24.7021 49.6244 25.2295 49.6244 25.8105V26.6895H43.3256V25.2832H47.5516V25.1221C47.5516 24.8291 47.4979 24.5679 47.3905 24.3384C47.288 24.104 47.1317 23.9185 46.9218 23.7817C46.7118 23.645 46.4432 23.5767 46.1161 23.5767C45.8378 23.5767 45.5985 23.6377 45.3983 23.7598C45.1981 23.8818 45.0345 24.0527 44.9076 24.2725C44.7855 24.4922 44.6927 24.751 44.6293 25.0488C44.5707 25.3418 44.5414 25.6641 44.5414 26.0156V26.3086C44.5414 26.626 44.5853 26.9189 44.6732 27.1875C44.766 27.4561 44.8954 27.688 45.0614 27.8833C45.2323 28.0786 45.4374 28.23 45.6766 28.3374C45.9208 28.4448 46.1967 28.4985 46.5043 28.4985C46.8851 28.4985 47.2391 28.4253 47.5663 28.2788C47.8983 28.1274 48.184 27.9004 48.4232 27.5977L49.4486 28.7109C49.2826 28.9502 49.0555 29.1797 48.7675 29.3994C48.4843 29.6191 48.1425 29.7998 47.7421 29.9414C47.3417 30.0781 46.8851 30.1465 46.3724 30.1465ZM54.7074 22.0752V23.5693H50.0931V22.0752H54.7074ZM51.2357 20.1196H53.3451V27.6123C53.3451 27.8418 53.3744 28.0176 53.433 28.1396C53.4965 28.2617 53.5892 28.3472 53.7113 28.396C53.8334 28.4399 53.9872 28.4619 54.1727 28.4619C54.3046 28.4619 54.4218 28.457 54.5243 28.4473C54.6317 28.4326 54.722 28.418 54.7953 28.4033L54.8026 29.9561C54.6219 30.0146 54.4266 30.061 54.2167 30.0952C54.0067 30.1294 53.7748 30.1465 53.5209 30.1465C53.057 30.1465 52.6517 30.0708 52.3051 29.9194C51.9633 29.7632 51.6996 29.5142 51.514 29.1724C51.3285 28.8306 51.2357 28.3813 51.2357 27.8247V20.1196ZM63.9286 27.8101C63.9286 27.6587 63.8846 27.522 63.7968 27.3999C63.7089 27.2778 63.5453 27.1655 63.306 27.063C63.0717 26.9556 62.7323 26.8579 62.288 26.77C61.8876 26.6821 61.514 26.5723 61.1674 26.4404C60.8256 26.3037 60.5277 26.1401 60.2738 25.9497C60.0248 25.7593 59.8295 25.5347 59.6879 25.2759C59.5463 25.0122 59.4755 24.7119 59.4755 24.375C59.4755 24.043 59.5463 23.7305 59.6879 23.4375C59.8344 23.1445 60.0419 22.8857 60.3104 22.6611C60.5839 22.4316 60.9159 22.2534 61.3065 22.1265C61.702 21.9946 62.1464 21.9287 62.6395 21.9287C63.328 21.9287 63.9188 22.0386 64.412 22.2583C64.91 22.478 65.2909 22.7808 65.5546 23.1665C65.8231 23.5474 65.9574 23.9819 65.9574 24.4702H63.848C63.848 24.2651 63.8041 24.082 63.7162 23.9209C63.6332 23.7549 63.5013 23.6255 63.3207 23.5327C63.1449 23.4351 62.9154 23.3862 62.6322 23.3862C62.3978 23.3862 62.1952 23.4277 62.0243 23.5107C61.8534 23.5889 61.7216 23.6963 61.6288 23.833C61.5409 23.9648 61.4969 24.1113 61.4969 24.2725C61.4969 24.3945 61.5214 24.5044 61.5702 24.6021C61.6239 24.6948 61.7094 24.7803 61.8265 24.8584C61.9437 24.9365 62.0951 25.0098 62.2806 25.0781C62.4711 25.1416 62.7054 25.2002 62.9838 25.2539C63.5551 25.3711 64.0653 25.5249 64.5145 25.7153C64.9637 25.9009 65.3202 26.1548 65.5839 26.4771C65.8475 26.7944 65.9794 27.2119 65.9794 27.7295C65.9794 28.0811 65.9012 28.4033 65.745 28.6963C65.5887 28.9893 65.3641 29.2456 65.0712 29.4653C64.7782 29.6802 64.4266 29.8486 64.0165 29.9707C63.6112 30.0879 63.1547 30.1465 62.6469 30.1465C61.9095 30.1465 61.2845 30.0146 60.7719 29.751C60.264 29.4873 59.8783 29.1528 59.6146 28.7476C59.3558 28.3374 59.2264 27.9175 59.2264 27.4878H61.226C61.2357 27.7759 61.309 28.0078 61.4457 28.1836C61.5873 28.3594 61.7655 28.4863 61.9803 28.5645C62.2001 28.6426 62.4369 28.6816 62.6908 28.6816C62.9642 28.6816 63.1913 28.645 63.3719 28.5718C63.5526 28.4937 63.6893 28.3911 63.7821 28.2642C63.8798 28.1323 63.9286 27.981 63.9286 27.8101ZM71.2308 22.0752V23.5693H66.6166V22.0752H71.2308ZM67.7592 20.1196H69.8685V27.6123C69.8685 27.8418 69.8978 28.0176 69.9564 28.1396C70.0199 28.2617 70.1127 28.3472 70.2347 28.396C70.3568 28.4399 70.5106 28.4619 70.6962 28.4619C70.828 28.4619 70.9452 28.457 71.0477 28.4473C71.1552 28.4326 71.2455 28.418 71.3187 28.4033L71.326 29.9561C71.1454 30.0146 70.9501 30.061 70.7401 30.0952C70.5302 30.1294 70.2982 30.1465 70.0443 30.1465C69.5804 30.1465 69.1752 30.0708 68.8285 29.9194C68.4867 29.7632 68.223 29.5142 68.0375 29.1724C67.8519 28.8306 67.7592 28.3813 67.7592 27.8247V20.1196ZM76.7094 28.2129V24.6826C76.7094 24.4287 76.6678 24.2114 76.5848 24.0308C76.5018 23.8452 76.3724 23.7012 76.1967 23.5986C76.0258 23.4961 75.8036 23.4448 75.5302 23.4448C75.2958 23.4448 75.0931 23.4863 74.9222 23.5693C74.7513 23.6475 74.6195 23.7622 74.5267 23.9136C74.434 24.0601 74.3876 24.2334 74.3876 24.4336H72.2782C72.2782 24.0967 72.3563 23.7769 72.5126 23.4741C72.6688 23.1714 72.8959 22.9053 73.1937 22.6758C73.4916 22.4414 73.8456 22.2583 74.2557 22.1265C74.6708 21.9946 75.1346 21.9287 75.6473 21.9287C76.2626 21.9287 76.8094 22.0312 77.288 22.2363C77.7665 22.4414 78.1425 22.749 78.4159 23.1592C78.6942 23.5693 78.8334 24.082 78.8334 24.6973V28.0884C78.8334 28.5229 78.8602 28.8794 78.9139 29.1577C78.9677 29.4312 79.0458 29.6704 79.1483 29.8755V30H77.017C76.9144 29.7852 76.8363 29.5166 76.7826 29.1943C76.7338 28.8672 76.7094 28.54 76.7094 28.2129ZM76.9877 25.1733L77.0023 26.3672H75.8231C75.5448 26.3672 75.3031 26.3989 75.098 26.4624C74.8929 26.5259 74.7245 26.6162 74.5927 26.7334C74.4608 26.8457 74.3632 26.9775 74.2997 27.1289C74.2411 27.2803 74.2118 27.4463 74.2118 27.627C74.2118 27.8076 74.2533 27.9712 74.3363 28.1177C74.4193 28.2593 74.5389 28.3716 74.6952 28.4546C74.8514 28.5327 75.0345 28.5718 75.2445 28.5718C75.5619 28.5718 75.8378 28.5083 76.0721 28.3813C76.3065 28.2544 76.4872 28.0981 76.6141 27.9126C76.746 27.7271 76.8143 27.5513 76.8192 27.3853L77.3759 28.2788C77.2977 28.479 77.1903 28.6865 77.0536 28.9014C76.9218 29.1162 76.7533 29.3188 76.5482 29.5093C76.3431 29.6948 76.0966 29.8486 75.8085 29.9707C75.5204 30.0879 75.1786 30.1465 74.7831 30.1465C74.2802 30.1465 73.8236 30.0464 73.4135 29.8462C73.0082 29.6411 72.6859 29.3604 72.4467 29.0039C72.2123 28.6426 72.0951 28.2324 72.0951 27.7734C72.0951 27.3584 72.1732 26.9897 72.3295 26.6675C72.4857 26.3452 72.7152 26.0742 73.0179 25.8545C73.3256 25.6299 73.7089 25.4614 74.1678 25.3491C74.6268 25.2319 75.1591 25.1733 75.7645 25.1733H76.9877ZM82.5687 23.8037V30H80.4594V22.0752H82.4442L82.5687 23.8037ZM84.9564 22.0239L84.9198 23.9795C84.8173 23.9648 84.6927 23.9526 84.5463 23.9429C84.4047 23.9282 84.2753 23.9209 84.1581 23.9209C83.8602 23.9209 83.6014 23.96 83.3817 24.0381C83.1669 24.1113 82.9862 24.2212 82.8397 24.3677C82.6981 24.5142 82.5907 24.6924 82.5175 24.9023C82.4491 25.1123 82.41 25.3516 82.4003 25.6201L81.9755 25.4883C81.9755 24.9756 82.0267 24.5044 82.1293 24.0747C82.2318 23.6401 82.3807 23.2617 82.576 22.9395C82.7762 22.6172 83.0204 22.3682 83.3085 22.1924C83.5966 22.0166 83.9261 21.9287 84.2972 21.9287C84.4144 21.9287 84.5341 21.9385 84.6561 21.958C84.7782 21.9727 84.8783 21.9946 84.9564 22.0239ZM90.2006 22.0752V23.5693H85.5863V22.0752H90.2006ZM86.7289 20.1196H88.8383V27.6123C88.8383 27.8418 88.8676 28.0176 88.9261 28.1396C88.9896 28.2617 89.0824 28.3472 89.2045 28.396C89.3265 28.4399 89.4803 28.4619 89.6659 28.4619C89.7977 28.4619 89.9149 28.457 90.0175 28.4473C90.1249 28.4326 90.2152 28.418 90.2885 28.4033L90.2958 29.9561C90.1151 30.0146 89.9198 30.061 89.7098 30.0952C89.4999 30.1294 89.2679 30.1465 89.014 30.1465C88.5502 30.1465 88.1449 30.0708 87.7982 29.9194C87.4564 29.7632 87.1927 29.5142 87.0072 29.1724C86.8217 28.8306 86.7289 28.3813 86.7289 27.8247V20.1196ZM95.0492 30.1465C94.434 30.1465 93.8822 30.0488 93.3939 29.8535C92.9056 29.6533 92.4906 29.3774 92.1488 29.0259C91.8119 28.6743 91.5531 28.2666 91.3724 27.8027C91.1918 27.334 91.1014 26.8359 91.1014 26.3086V26.0156C91.1014 25.415 91.1869 24.8657 91.3578 24.3677C91.5287 23.8696 91.7728 23.4375 92.0902 23.0713C92.4125 22.7051 92.8031 22.4243 93.2621 22.229C93.7211 22.0288 94.2386 21.9287 94.8148 21.9287C95.3763 21.9287 95.8744 22.0215 96.309 22.207C96.7435 22.3926 97.1073 22.6562 97.4003 22.998C97.6981 23.3398 97.9227 23.75 98.0741 24.2285C98.2255 24.7021 98.3011 25.2295 98.3011 25.8105V26.6895H92.0023V25.2832H96.2284V25.1221C96.2284 24.8291 96.1747 24.5679 96.0673 24.3384C95.9647 24.104 95.8085 23.9185 95.5985 23.7817C95.3885 23.645 95.12 23.5767 94.7928 23.5767C94.5145 23.5767 94.2753 23.6377 94.0751 23.7598C93.8749 23.8818 93.7113 24.0527 93.5844 24.2725C93.4623 24.4922 93.3695 24.751 93.306 25.0488C93.2474 25.3418 93.2181 25.6641 93.2181 26.0156V26.3086C93.2181 26.626 93.2621 26.9189 93.35 27.1875C93.4427 27.4561 93.5721 27.688 93.7382 27.8833C93.9091 28.0786 94.1141 28.23 94.3534 28.3374C94.5975 28.4448 94.8734 28.4985 95.181 28.4985C95.5619 28.4985 95.9159 28.4253 96.243 28.2788C96.5751 28.1274 96.8607 27.9004 97.1 27.5977L98.1254 28.7109C97.9594 28.9502 97.7323 29.1797 97.4442 29.3994C97.161 29.6191 96.8192 29.7998 96.4188 29.9414C96.0184 30.0781 95.5619 30.1465 95.0492 30.1465ZM104.182 28.2715V18.75H106.307V30H104.395L104.182 28.2715ZM99.1727 26.1328V25.979C99.1727 25.3735 99.2411 24.8242 99.3778 24.3311C99.5145 23.833 99.7147 23.4058 99.9784 23.0493C100.242 22.6929 100.567 22.417 100.953 22.2217C101.338 22.0264 101.778 21.9287 102.271 21.9287C102.735 21.9287 103.14 22.0264 103.487 22.2217C103.838 22.417 104.136 22.6953 104.38 23.0566C104.629 23.4131 104.829 23.8354 104.981 24.3237C105.132 24.8071 105.242 25.3369 105.31 25.9131V26.25C105.242 26.8018 105.132 27.3145 104.981 27.7881C104.829 28.2617 104.629 28.6768 104.38 29.0332C104.136 29.3848 103.838 29.6582 103.487 29.8535C103.135 30.0488 102.725 30.1465 102.256 30.1465C101.763 30.1465 101.324 30.0464 100.938 29.8462C100.557 29.646 100.235 29.3652 99.9711 29.0039C99.7123 28.6426 99.5145 28.2178 99.3778 27.7295C99.2411 27.2412 99.1727 26.709 99.1727 26.1328ZM101.282 25.979V26.1328C101.282 26.46 101.307 26.7651 101.355 27.0483C101.409 27.3315 101.495 27.583 101.612 27.8027C101.734 28.0176 101.89 28.186 102.08 28.3081C102.276 28.4253 102.513 28.4839 102.791 28.4839C103.152 28.4839 103.45 28.4033 103.684 28.2422C103.919 28.0762 104.097 27.8491 104.219 27.561C104.346 27.2729 104.419 26.9409 104.439 26.5649V25.6055C104.424 25.2979 104.38 25.022 104.307 24.7778C104.239 24.5288 104.136 24.3164 103.999 24.1406C103.868 23.9648 103.702 23.8281 103.501 23.7305C103.306 23.6328 103.074 23.584 102.806 23.584C102.532 23.584 102.298 23.6475 102.102 23.7744C101.907 23.8965 101.748 24.0649 101.626 24.2798C101.509 24.4946 101.421 24.7485 101.363 25.0415C101.309 25.3296 101.282 25.6421 101.282 25.979Z" fill="white"/>
<path d="M148.707 24.7071C149.098 24.3166 149.098 23.6834 148.707 23.2929L142.343 16.9289C141.953 16.5384 141.319 16.5384 140.929 16.9289C140.538 17.3195 140.538 17.9526 140.929 18.3431L146.586 24L140.929 29.6569C140.538 30.0474 140.538 30.6805 140.929 31.0711C141.319 31.4616 141.953 31.4616 142.343 31.0711L148.707 24.7071ZM125 25L148 25V23L125 23V25Z" fill="white"/>
<defs>
<linearGradient id="paint0_linear_1_5377" x1="185.975" y1="23.9434" x2="-34.9576" y2="23.9434" gradientUnits="userSpaceOnUse">
<stop stop-color="#FD814A"/>
<stop offset="1" stop-color="#FC5C4C"/>
</linearGradient>
</defs>
</svg>
