<svg width="40" height="40" viewBox="0 0 40 40" fill="none" xmlns="http://www.w3.org/2000/svg">
<g clip-path="url(#clip0_44_1171)">
<path d="M39.9886 18.4095C39.9686 20.147 39.9344 21.8874 39.7892 23.6192C39.7151 24.5136 39.5214 25.3852 39.1996 26.2454C38.6925 27.607 38.0744 28.9144 37.3566 30.1648C36.8183 31.1048 36.1945 31.9992 35.6248 32.9249C35.283 33.4804 35.0295 34.0871 34.6478 34.6197C33.611 36.0525 32.1925 36.9583 30.5718 37.6048C29.8654 37.8868 29.1761 38.2144 28.5067 38.5761C27.4813 39.1316 26.3533 39.311 25.2424 39.5702C24.1942 39.818 23.1261 39.781 22.0636 39.8266C20.7705 39.8807 19.4744 39.969 18.1813 39.9946C17.1501 40.0174 16.1276 39.8693 15.1107 39.6842C13.5298 39.3965 12.0544 38.8524 10.6359 38.1062C9.5079 37.5137 8.37424 36.9326 7.26621 36.3031C5.81069 35.4742 4.7283 34.2352 3.67724 32.962C3.01926 32.1644 2.42394 31.3213 1.88275 30.4383C1.28744 29.467 1.08805 28.3817 0.860177 27.2965C0.461402 25.4023 0.60667 23.4683 0.264862 21.5655C-0.259242 18.6516 0.0369908 15.6751 0.786118 12.8352C0.9969 12.0348 1.14217 11.2259 1.32731 10.4226C1.51816 9.59373 1.68906 8.75346 2.04796 7.973C2.10208 7.85621 2.17329 7.73943 2.26443 7.65113C2.68885 7.23526 2.86545 6.65989 3.26422 6.21554C3.93644 5.46356 4.77102 4.93661 5.57997 4.36978C6.44873 3.75737 7.43712 3.36714 8.40842 2.95413C10.0406 2.25912 11.6955 1.61823 13.3646 1.01722C14.9198 0.453235 16.5235 0.151305 18.1841 0.12567C19.3377 0.108579 20.4913 0.0316725 21.6449 0.000340174C22.8441 -0.0309922 24.0319 0.108579 25.2196 0.236757C26.0086 0.322209 26.7977 0.413357 27.5724 0.581413C28.6804 0.823526 29.666 1.37042 30.6829 1.84325C32.0529 2.48129 33.0812 3.54944 34.2234 4.48941C36.203 6.11869 37.3623 8.25499 38.3593 10.5394C38.9546 11.9038 39.3591 13.3194 39.7692 14.7379C39.9914 15.5013 39.9202 16.2903 39.9857 17.0679C40.0199 17.5151 39.9886 17.9623 39.9886 18.4095Z" fill="#FFD561"/>
<path d="M19.4061 19.201C17.4436 19.0529 15.6348 18.5943 13.8973 17.8395C13.453 17.6458 13.1168 17.3125 12.8263 16.9536C12.2566 16.2529 11.8693 15.4582 11.7553 14.5468C11.7012 14.128 11.7012 14.128 12.1398 14.0739C12.2054 14.0654 12.268 14.0483 12.3335 14.0483C12.9516 14.0625 12.963 13.96 13.0656 14.6379C13.2365 15.7602 13.8147 16.6859 14.6977 17.4065C14.7974 17.4891 14.917 17.5518 15.0338 17.6031C16.5121 18.2554 18.0588 18.6912 19.6653 18.8478C21.0012 18.9789 22.3029 18.731 23.4822 18.1016C24.3822 17.623 25.0886 16.8824 25.6384 16.0108C26.0799 15.3101 26.4502 14.5752 26.6951 13.7805C26.7436 13.6239 26.8376 13.5441 26.9999 13.5384C27.2506 13.527 27.4984 13.5099 27.749 13.4957C27.9769 13.4815 28.0339 13.5726 27.9627 13.7919C27.4471 15.3415 26.6296 16.6745 25.3564 17.7313C24.5731 18.3807 23.6388 18.6427 22.6988 18.8991C21.6022 19.2039 20.4657 19.1811 19.4061 19.201Z" fill="#292929"/>
<path d="M5.08722 12.251C4.86504 9.96085 8.4939 10.5163 9.21454 11.969C9.60192 12.7494 9.26012 13.7521 8.51953 14.336C7.61374 15.0481 6.087 14.6892 5.52587 13.7692C5.23533 13.2963 4.94765 12.8292 5.08722 12.251Z" fill="#D6674C"/>
<path d="M34.326 13.9486C34.1323 14.8145 33.8076 15.6149 33.03 16.1362C32.4147 16.5463 31.8023 16.2558 31.1956 16.065C31.1671 16.0564 31.1387 16.0393 31.113 16.0251C29.9936 15.4383 29.9651 15.0595 30.2898 13.9458C30.4152 13.5157 30.6259 13.134 30.9905 12.8406C31.489 12.4447 32.0274 12.2111 32.6682 12.3734C33.2693 12.5244 33.8133 12.7694 34.1637 13.3277C34.2861 13.527 34.3516 13.7122 34.326 13.9486Z" fill="#D6674C"/>
<path d="M25.8407 7.58243C26.8832 7.63655 27.5554 8.1749 27.9114 9.16614C28.1507 9.83551 28.2305 10.5362 28.3957 11.2227C28.4583 11.4819 28.3387 11.5873 28.0966 11.6072C27.9884 11.6158 27.8801 11.6385 27.7719 11.6414C27.5782 11.6442 27.3617 11.6898 27.1908 11.6215C26.9772 11.536 27.168 11.3053 27.1139 11.1372C26.8946 10.4337 26.8461 9.6817 26.5442 9.00093C26.3505 8.56513 26.0087 8.24326 25.5957 8.00399C25.4077 7.89575 25.2795 7.98975 25.1343 8.11223C24.3908 8.73888 24.0006 9.5877 23.6673 10.465C23.5278 10.8296 23.3996 11.197 23.2458 11.5588C23.2258 11.6072 23.2002 11.6813 23.166 11.6898C22.7957 11.7867 22.4197 11.818 22.0409 11.7468C21.9412 11.7268 21.9213 11.6271 21.9697 11.536C22.3058 10.9122 22.4511 10.2115 22.7758 9.57915C23.0777 8.98669 23.4566 8.47398 23.9436 8.02678C24.1117 7.87581 24.2968 7.77327 24.5133 7.73055C24.9548 7.63655 25.3906 7.55395 25.8407 7.58243Z" fill="#292929"/>
<path d="M17.0648 11.8579C16.6318 11.8465 16.6318 11.8465 16.6204 11.4164C16.6005 10.6388 16.5065 9.87823 16.1504 9.17183C15.9795 8.83287 15.7032 8.6107 15.3899 8.4341C15.0766 8.26035 14.7889 8.34295 14.5297 8.58791C13.9458 9.1348 13.5157 9.77854 13.2679 10.5391C13.0969 11.0632 12.946 11.5958 12.795 12.1256C12.7637 12.231 12.701 12.268 12.6099 12.2737C12.3165 12.2937 12.026 12.3136 11.7326 12.3165C11.5332 12.3193 11.4506 12.2054 11.5218 12.0174C11.8095 11.2569 11.9547 10.4451 12.3564 9.72442C12.6241 9.24019 12.9802 8.83857 13.3846 8.47113C13.6353 8.24041 13.9429 8.1578 14.2733 8.10084C14.8772 8.00114 15.4811 7.96411 16.0878 8.0752C16.7628 8.20053 17.2214 8.59646 17.4977 9.20886C17.8338 9.95799 17.8965 10.7584 17.9221 11.5673C17.9278 11.7354 17.8424 11.8009 17.6886 11.8094C17.4749 11.8237 17.2698 11.8408 17.0648 11.8579Z" fill="#292929"/>
</g>
<defs>
<clipPath id="clip0_44_1171">
<rect width="40" height="40" fill="white"/>
</clipPath>
</defs>
</svg>
