<svg width="75" height="105" viewBox="0 0 75 105" fill="none" xmlns="http://www.w3.org/2000/svg">
<g clip-path="url(#clip0_1_4739)">
<path d="M49.945 26.6436C48.681 26.0711 47.2302 29.2639 47.395 29.6107C47.5599 29.963 51.3355 27.2712 49.945 26.6436Z" fill="#533614"/>
<path d="M46.0211 26.5665C44.4878 26.9574 46.6091 30.1942 46.8015 29.8309C47.1257 29.2309 47.0818 26.2913 46.0211 26.5665Z" fill="#533614"/>
<path d="M63.47 50.0118C62.9369 54.713 64.3438 57.2067 64.3438 57.2067C64.3438 57.2067 64.789 57.0525 65.377 57.036L66.3662 50.8761L66.3717 50.777C66.2398 50.7715 66.097 50.755 65.9376 50.7329C65.0583 50.6063 64.2394 50.3641 63.47 50.0118Z" fill="#482E09"/>
<path d="M32.65 45.1014C32.5071 45.4042 30.7815 49.076 33.0787 48.4484C33.2491 48.4044 33.4029 48.3548 33.5568 48.2943C38.7063 46.4942 39.4043 39.6406 42.0202 36.3157C43.9932 33.8054 46.4223 36.4147 46.4223 36.4147C46.4223 36.4147 49.0163 33.1063 52.2807 35.7982C55.0506 38.0717 57.3478 47.2263 63.4645 50.0118C64.2284 50.3586 65.0473 50.6063 65.9376 50.7329C66.0914 50.7549 66.2343 50.7715 66.3717 50.777C69.7406 51.0302 66.9048 47.7603 66.7564 47.5896C66.9653 47.7052 71.4608 50.1769 72.8072 48.1236C74.0932 46.1584 70.4166 44.5124 69.9384 44.3032C70.3726 44.4464 73.4997 45.3987 74.8351 43.1362C75.9123 41.3031 71.0486 41.5288 68.7239 39.1562C66.3937 36.7891 57.749 23.5443 46.6586 31.0475C46.6586 31.0475 44.834 27.7446 38.2172 30.519C35.3814 31.7136 32.6445 35.556 30.1165 38.8314C27.4181 42.3325 25.2198 43.4995 25.8903 44.7106C26.7696 46.34 29.3141 43.9895 29.5669 43.7472C29.3306 44.0665 26.8575 47.386 28.7041 48.2227C30.1605 48.8833 32.4907 45.3492 32.65 45.1014Z" fill="#533614"/>
<path d="M33.6283 103.805C57.0565 107.907 72.8182 100.123 72.8182 100.123C72.8182 100.123 70.6419 84.2631 66.5641 79.9858C63.3216 76.5783 56.3475 76.1985 54.6219 76.1489C54.446 76.27 54.2372 76.4077 53.9899 76.5563C53.0281 77.1563 51.5553 77.8719 49.8736 78.0646C48.1424 78.2573 46.5597 77.8169 45.532 77.404C44.7791 77.1068 44.3284 76.826 44.3284 76.826L44.3229 76.7765C41.6905 77.0132 34.8923 78.0151 31.7762 82.0171C27.4346 87.577 26.0826 102.11 26.0826 102.11C28.6766 102.82 31.1937 103.376 33.6283 103.805Z" fill="#8ABCAC"/>
<path d="M45.1253 71.2991L45.0978 71.5909C45.0978 71.5909 45.3891 76.182 45.5595 77.327L45.532 77.404C46.5597 77.8114 48.1425 78.2518 49.8736 78.0646C51.5553 77.8775 53.0281 77.1618 53.9899 76.5563L53.8415 76.3251C53.7316 74.6021 53.6107 71.1505 53.6107 71.1505L53.5173 70.5725C52.0444 70.9633 50.3243 71.2386 48.3293 71.3377C47.2027 71.3927 46.1365 71.3762 45.1253 71.2991Z" fill="#F2C6A5"/>
<path d="M45.2957 74.4865C48.2249 74.3433 51.0936 73.6938 53.6601 72.4662C53.7041 73.6277 53.7756 75.2847 53.8415 76.3251L53.9899 76.5563C53.0281 77.1563 51.5553 77.872 49.8736 78.0646C48.1424 78.2573 46.5597 77.8169 45.532 77.404L45.5595 77.327C45.4825 76.826 45.3836 75.648 45.2957 74.4865Z" fill="#F2C6A5"/>
<path opacity="0.2" d="M45.2957 74.4865C45.1858 73.0222 45.0978 71.5909 45.0978 71.5909L45.1253 71.2991C46.1365 71.3707 47.2027 71.3872 48.3348 71.3322C50.3352 71.2331 52.0499 70.9578 53.5228 70.567L53.6162 71.145C53.6162 71.145 53.6382 71.6955 53.6656 72.4662C51.0991 73.6938 48.2249 74.3433 45.2957 74.4865Z" fill="#5A287F"/>
<path d="M65.3825 57.036C64.7945 57.0525 64.3493 57.2067 64.3493 57.2067C64.3493 57.2067 62.9424 54.713 63.4755 50.0118C57.3588 47.2263 55.0615 38.0717 52.2917 35.7982C49.0273 33.1063 46.4333 36.4147 46.4333 36.4147C46.4333 36.4147 44.0042 33.8054 42.0312 36.3157C39.4153 39.6406 38.7173 46.4997 33.5678 48.2943L33.5788 48.3328L33.3535 57.1186C33.3535 57.1186 32.7489 60.6362 32.9798 64.3135C33.1172 66.4769 35.4858 72.0533 45.2187 72.7634C46.2299 72.835 47.2961 72.8515 48.4282 72.7965C50.4287 72.6974 52.1433 72.4221 53.6162 72.0313C61.0189 70.0716 62.3434 65.2108 62.3434 65.2108C62.3434 65.2108 64.0965 65.3704 65.8112 64.4896C67.1082 63.818 68.0259 62.5024 68.0699 60.4931C68.1249 57.4709 66.5036 56.9975 65.3825 57.036Z" fill="#F2C6A5"/>
<path d="M66.8773 47.4465L66.8828 47.452L66.8444 47.4245C67.7896 47.7438 68.7184 48.0576 69.6472 48.2447C69.878 48.2943 70.1088 48.3273 70.3341 48.3603C70.5595 48.3823 70.7903 48.4044 70.9991 48.3878C71.1035 48.3823 71.2135 48.3878 71.3124 48.3713L71.6036 48.3163C71.7795 48.2557 71.9499 48.1897 72.0763 48.0851C72.1587 48.052 72.2027 47.975 72.2576 47.9144L72.3456 47.8208H72.3511C72.2906 47.9309 72.3346 47.8484 72.3236 47.8704L72.3291 47.8594L72.3401 47.8374L72.3621 47.7933L72.406 47.7107L72.494 47.5456C72.5324 47.4795 72.5049 47.474 72.5159 47.441C72.5269 47.386 72.5544 47.3364 72.5434 47.2483L72.5489 47.1327L72.5214 47.0116C72.5159 46.9291 72.4775 46.841 72.4335 46.7584C72.3566 46.5877 72.2412 46.4061 72.0983 46.2354C71.9609 46.0648 71.796 45.8996 71.6256 45.74C71.4553 45.5748 71.2684 45.4262 71.0816 45.2831C70.7024 44.9858 70.2957 44.7106 69.878 44.4353L69.9 44.4408C69.9 44.4408 69.9055 44.4353 69.9055 44.4243L69.9165 44.3583C69.922 44.3252 69.9 44.2867 69.8615 44.2812C69.8285 44.2757 69.7901 44.2977 69.7846 44.3363C69.7791 44.3583 69.7901 44.3803 69.8066 44.3968C69.8285 44.4133 69.8615 44.4243 69.889 44.4188C69.812 44.4243 69.7461 44.3638 69.7461 44.2867C69.7406 44.2096 69.8011 44.1436 69.878 44.1436C69.911 44.1436 69.9549 44.1546 69.9824 44.1766L69.889 44.1436C69.9165 44.1436 69.9439 44.1491 69.9769 44.1546L69.9989 44.1601C70.499 44.2867 70.9716 44.4794 71.4388 44.7106C71.6696 44.8317 71.9004 44.9583 72.1202 45.1069C72.3456 45.2501 72.5544 45.4207 72.7578 45.6134C72.9611 45.8061 73.1589 46.0207 73.3018 46.296C73.3788 46.4281 73.4502 46.5657 73.4942 46.7309L73.5656 46.9676L73.5876 47.2263C73.6371 47.5401 73.4612 48.0465 73.3678 48.1897L73.3293 48.2722L73.3073 48.3163L73.2963 48.3383L73.2908 48.3493L73.2579 48.4044V48.4099L73.2524 48.4154L73.093 48.608C72.9831 48.7347 72.8842 48.8668 72.7413 48.9548C72.4775 49.1695 72.1752 49.2741 71.8729 49.3677L71.4278 49.4393C71.2794 49.4558 71.142 49.4503 70.9991 49.4558C70.7133 49.4558 70.4441 49.4062 70.1748 49.3622C69.911 49.3127 69.6472 49.2521 69.3999 49.164C68.8998 49.0044 68.4216 48.8007 67.9655 48.564C67.5148 48.3218 67.0697 48.0576 66.6685 47.7438L66.63 47.7162L66.6245 47.7107C66.5586 47.6282 66.5751 47.5126 66.652 47.4465C66.7235 47.408 66.8114 47.4025 66.8773 47.4465Z" fill="#3C1E00"/>
<path d="M32.8149 45.184C32.6335 45.6134 32.4412 46.1309 32.3148 46.6153C32.1939 47.0942 32.084 47.6392 32.2159 48.0025C32.2873 48.1677 32.3752 48.2172 32.5676 48.2282C32.661 48.2282 32.7709 48.2172 32.8809 48.1897L32.9633 48.1677C32.9688 48.1677 33.0018 48.1567 32.9908 48.1622L33.0347 48.1456L33.2216 48.0796L33.4084 48.0135L33.4524 47.997C33.4084 48.0135 33.4634 47.9915 33.4689 47.986L33.5568 47.9475L33.914 47.7823C34.1559 47.6777 34.3977 47.5676 34.5845 47.4245C34.7824 47.2814 34.9967 47.1768 35.1836 47.0171L35.7551 46.5382C36.1013 46.1804 36.4531 45.8226 36.7443 45.4097C36.9037 45.217 37.0411 45.0024 37.1785 44.7877C37.3159 44.573 37.4588 44.3638 37.5797 44.1381C37.838 43.6977 38.0633 43.2408 38.2886 42.7784C38.7283 41.8426 39.124 40.8847 39.5252 39.9159C39.7285 39.4314 39.9483 38.947 40.1737 38.4626C40.41 37.9836 40.6408 37.4992 40.9266 37.0313C41.0585 36.7946 41.2124 36.5634 41.3772 36.3377L41.4981 36.167L41.5586 36.0845L41.5861 36.0404L41.6025 36.0184L41.608 36.0074L41.641 35.9689L41.9048 35.6771C41.9763 35.5835 42.1027 35.4734 42.2346 35.3688C42.361 35.2642 42.4874 35.1541 42.6302 35.0881C42.8995 34.9229 43.2128 34.8073 43.5315 34.7468C44.18 34.6312 44.8285 34.7798 45.3671 35.0275C45.9167 35.2863 46.3673 35.611 46.807 36.0459L45.9936 36.079C46.5102 35.4679 47.0818 35.0165 47.7742 34.6587C48.4557 34.3064 49.2636 34.1192 50.055 34.2128C50.8518 34.2899 51.5718 34.6422 52.1873 35.0661L52.4126 35.2312L52.528 35.3138L52.583 35.3578L52.6105 35.3798L52.6654 35.4294L53.0281 35.7927C53.2699 36.0294 53.5118 36.3707 53.7371 36.6625C54.1383 37.2515 54.501 37.8515 54.8417 38.4571C55.177 39.0626 55.5067 39.6681 55.8255 40.2682L56.8037 42.0628C57.1334 42.6573 57.4797 43.2353 57.8259 43.8133L58.3645 44.6721L58.936 45.4978C59.1229 45.7785 59.3427 46.0263 59.5461 46.296C59.7439 46.5657 59.9637 46.8135 60.1945 47.0557C60.6287 47.5621 61.1288 47.997 61.6289 48.4374L62.4258 49.0209C62.6951 49.2136 62.9974 49.3512 63.2776 49.5164L63.492 49.6375C63.5195 49.654 63.5854 49.687 63.5799 49.687L63.7008 49.731L64.1789 49.9237C64.4977 50.0558 64.8164 50.188 65.1297 50.243C65.443 50.3146 65.7617 50.4081 66.075 50.4577C66.4212 50.5072 66.729 50.5348 67.0367 50.5072C67.3445 50.4852 67.6248 50.3861 67.7237 50.188C67.8336 49.9898 67.7731 49.6595 67.6687 49.3677C67.4434 48.7677 67.0587 48.1952 66.641 47.6667C66.5916 47.6062 66.6026 47.5181 66.663 47.474C66.7235 47.43 66.8059 47.4355 66.8554 47.4906C67.317 48.008 67.7512 48.5585 68.0534 49.2191C68.1798 49.5494 68.3282 49.9457 68.1413 50.3916C68.0479 50.6063 67.8556 50.766 67.6687 50.854C67.4819 50.9476 67.2895 50.9917 67.1027 51.0137C66.7289 51.0632 66.3552 51.0467 66.02 51.0137C65.6573 50.9696 65.3166 50.8871 64.9593 50.8265C64.5966 50.777 64.2779 50.6559 63.9536 50.5403L63.47 50.3696L63.3491 50.3256C63.2666 50.287 63.2557 50.2815 63.2062 50.254L62.9699 50.1329C62.6621 49.9623 62.3324 49.8191 62.0356 49.6265L61.1618 49.0264C60.6177 48.5805 60.0736 48.1291 59.601 47.6117C59.3537 47.3639 59.1119 47.1052 58.8976 46.8355C58.6777 46.5657 58.4359 46.307 58.2381 46.0208L57.6171 45.1785L57.0345 44.3142C56.6553 43.7362 56.2981 43.1362 55.9574 42.5417L54.9516 40.7416C54.6219 40.1416 54.2922 39.547 53.9569 38.958C53.6162 38.3745 53.2645 37.8075 52.8907 37.268C52.6874 37.0258 52.5445 36.7946 52.2972 36.5524L51.929 36.1946L51.5828 35.9468C51.0772 35.6055 50.5221 35.3468 49.945 35.2973C49.3735 35.2422 48.7964 35.3688 48.2579 35.6331C47.7303 35.8918 47.2082 36.3047 46.84 36.7395L46.8345 36.745C46.6366 36.9763 46.2904 37.0038 46.0596 36.8056L46.0266 36.7726C45.7298 36.4698 45.3231 36.167 44.922 35.9799C44.5208 35.7872 44.0976 35.6991 43.7129 35.7707C43.5206 35.8037 43.3337 35.8698 43.1578 35.9799C43.0589 36.0184 42.993 36.09 42.916 36.145C42.8391 36.2001 42.7621 36.2551 42.6687 36.3652L42.4049 36.657C42.3829 36.6845 42.4324 36.6239 42.4269 36.6349L42.4214 36.6405L42.4159 36.6515L42.4049 36.668L42.3774 36.7065L42.3225 36.7836L42.2181 36.9322C42.0697 37.1304 41.9323 37.3341 41.8059 37.5543C41.5421 37.9781 41.3113 38.435 41.086 38.8919C40.8606 39.3544 40.6518 39.8278 40.4375 40.3012C40.0088 41.2535 39.5801 42.2169 39.0965 43.1692C38.8492 43.6427 38.5964 44.1161 38.3161 44.573C38.1842 44.8042 38.0248 45.0244 37.871 45.2501C37.7226 45.4758 37.5687 45.696 37.3873 45.8997C37.0576 46.3345 36.6674 46.7144 36.2717 47.0997L35.6232 47.6062C35.4089 47.7768 35.1451 47.8979 34.9033 48.0466C34.6615 48.2007 34.4142 48.2943 34.1723 48.3879L33.8096 48.5365L33.7162 48.575L33.6393 48.6025L33.5898 48.6136L33.4029 48.6686L33.2161 48.7237L33.1666 48.7347L33.1007 48.7512L32.9908 48.7732C32.8479 48.8007 32.6885 48.8172 32.5236 48.8062C32.3588 48.7897 32.1719 48.7512 32.007 48.6301C31.8422 48.5145 31.7377 48.3383 31.6883 48.1732C31.5839 47.8429 31.6168 47.5511 31.6553 47.2704C31.6993 46.9896 31.7707 46.7309 31.8532 46.4722C32.029 45.9492 32.2269 45.4923 32.4907 44.9748C32.5346 44.8868 32.6445 44.8482 32.738 44.8978C32.8204 44.9418 32.8589 45.0409 32.8204 45.129L32.8149 45.184Z" fill="#3C1E00"/>
<path d="M29.7428 43.8463L29.7373 43.8518C29.7703 43.8078 29.7483 43.8408 29.7538 43.8298V43.8353L29.7428 43.8463L29.7373 43.8628C29.5505 44.2537 29.3581 44.639 29.1877 45.0244C29.0119 45.4097 28.858 45.7951 28.7371 46.1749C28.6766 46.3676 28.6327 46.5547 28.6052 46.7309C28.5722 46.9125 28.5722 47.0777 28.5887 47.2208C28.6107 47.3584 28.6437 47.4685 28.7096 47.5401C28.7481 47.5731 28.7646 47.6227 28.8305 47.6447C28.858 47.6612 28.8855 47.6777 28.9075 47.6942L28.9239 47.7107L28.9349 47.7163L28.9404 47.7218C28.9569 47.7273 28.7865 47.6667 28.858 47.6942L28.9349 47.7163C29.0393 47.7493 29.1712 47.7878 29.1603 47.7548C29.1712 47.7493 29.1822 47.7493 29.1932 47.7548C29.2152 47.7493 29.2592 47.7383 29.2922 47.7273C29.3581 47.7163 29.435 47.6942 29.512 47.6502C29.5889 47.6172 29.6659 47.5896 29.7483 47.5346C29.9132 47.452 30.067 47.3309 30.2319 47.2153C30.3858 47.0832 30.5507 46.9676 30.7045 46.8245C31.3311 46.274 31.9191 45.6464 32.5291 45.0244L32.5346 45.0189C32.5896 44.9638 32.6775 44.9638 32.7325 45.0189C32.7764 45.0629 32.7874 45.1235 32.7654 45.1785C32.4082 45.9987 31.9411 46.7639 31.3421 47.4575C31.1992 47.6337 31.0343 47.8043 30.8639 47.964C30.6826 48.1181 30.5067 48.2778 30.2924 48.4209C30.1934 48.4979 30.078 48.5585 29.9571 48.6191C29.8417 48.6851 29.7153 48.7347 29.5669 48.7732C29.4955 48.7952 29.435 48.8172 29.3526 48.8282C29.2592 48.8392 29.1603 48.8393 29.0613 48.8393C28.8305 48.8393 28.7536 48.8007 28.6492 48.7787L28.5777 48.7567L28.4898 48.7236L28.4843 48.7181L28.4733 48.7126L28.4458 48.6961L28.3963 48.6686L28.1985 48.542C28.0611 48.4704 27.9567 48.3328 27.8468 48.2062C27.6379 47.9475 27.5445 47.6172 27.5115 47.3254C27.4951 47.0337 27.528 46.7639 27.594 46.5217C27.6544 46.274 27.7314 46.0428 27.8358 45.8281C28.0281 45.3932 28.2699 45.0023 28.5392 44.639C28.814 44.2757 29.0998 43.9344 29.435 43.6261L29.424 43.6426L29.435 43.6316H29.4405C29.446 43.6206 29.424 43.6537 29.457 43.6096L29.4625 43.6041C29.545 43.5381 29.6604 43.5491 29.7263 43.6316C29.7758 43.6922 29.7813 43.7803 29.7428 43.8463Z" fill="#3C1E00"/>
<path d="M45.0539 76.171C45.0539 76.171 45.0923 76.1875 45.1693 76.2095C45.2407 76.2315 45.3396 76.2535 45.4605 76.2976C45.5869 76.3361 45.7518 76.3802 45.9222 76.4352C46.1035 76.4847 46.3069 76.5343 46.5212 76.6003C46.741 76.6554 46.9829 76.6994 47.2247 76.7655C47.472 76.8205 47.7358 76.8426 47.9996 76.9031C48.2634 76.9471 48.5381 76.9361 48.8129 76.9747C49.0877 76.9967 49.357 76.9582 49.6318 76.9692H49.7362H49.7637H49.7692H49.7747C49.7417 76.9747 49.8461 76.9582 49.7087 76.9802H49.7252L49.7857 76.9692L50.0275 76.9361C50.1869 76.9141 50.3517 76.8921 50.5111 76.8701C50.588 76.8591 50.6705 76.8481 50.7474 76.8426L50.9288 76.7985C51.0497 76.771 51.1706 76.7435 51.286 76.7159C51.5223 76.6774 51.7751 76.5673 52.0059 76.5068C52.2423 76.4352 52.4456 76.3306 52.6544 76.259C52.8523 76.1655 53.0336 76.0774 53.193 76.0058C53.3469 75.9122 53.4898 75.8462 53.6052 75.7801C53.7316 75.6975 53.792 75.681 53.9075 75.5985C54.0119 75.5324 54.0668 75.4994 54.0668 75.4994C54.3031 75.3452 54.6219 75.4168 54.7758 75.659C54.8582 75.7856 54.8747 75.9398 54.8362 76.0719L54.7263 76.4517C54.7263 76.4517 54.7208 76.4737 54.7098 76.5123C54.7098 76.5343 54.6054 76.6719 54.523 76.7875C54.3306 77.0407 54.0174 77.3875 53.5777 77.7399C53.3524 77.8995 53.1161 78.1032 52.8303 78.2463C52.6874 78.3234 52.539 78.4004 52.3906 78.4775C52.2423 78.5601 52.0829 78.6316 51.9015 78.6867C51.7257 78.7472 51.5443 78.8078 51.3629 78.8684L51.0827 78.9564C51.0002 78.9784 50.9233 78.9895 50.8463 79.006C50.687 79.0335 50.5276 79.061 50.3627 79.0885L50.1209 79.1326L50.0605 79.1436H50.044L49.9615 79.1546H49.9505H49.9121L49.7692 79.1601C49.39 79.1601 48.9943 79.1931 48.6261 79.1436C48.2579 79.0885 47.8951 79.0335 47.5599 78.9399C47.2302 78.8408 46.9059 78.7417 46.6201 78.6151C46.3344 78.483 46.0651 78.3674 45.8343 78.2243C45.3616 77.9545 45.0044 77.6793 44.7626 77.4756C44.6362 77.3655 44.5428 77.2719 44.4823 77.2169C44.4274 77.1563 44.3999 77.1288 44.3999 77.1288C44.1745 76.8866 44.191 76.5068 44.4328 76.2866C44.6032 76.1324 44.834 76.0884 45.0374 76.1655L45.0539 76.171Z" fill="#447991"/>
<path d="M36.1618 85.6338C36.1618 85.6338 36.0354 86.7458 35.843 88.4193C35.7936 88.8377 35.7331 89.2836 35.6782 89.7625C35.6232 90.2414 35.5518 90.7368 35.4968 91.2598C35.3869 92.3057 35.2495 93.4122 35.1066 94.5242C34.9527 95.6307 34.8098 96.7427 34.7109 97.7831C34.601 98.8235 34.4746 99.7979 34.3757 100.629C34.2768 101.46 34.1668 102.154 34.1009 102.644C34.024 103.128 33.9855 103.409 33.9855 103.409V103.42C33.9635 103.58 33.8151 103.69 33.6557 103.662C33.5074 103.64 33.4084 103.514 33.4084 103.371C33.4084 103.371 33.4139 103.09 33.4304 102.6C33.4524 102.11 33.4689 101.405 33.5184 100.563C33.5678 99.7208 33.6173 98.7354 33.6942 97.684C33.7382 97.1555 33.7602 96.6105 33.8261 96.0601C33.8921 95.5096 33.9635 94.9536 34.0295 94.3921C34.1723 93.2746 34.3207 92.1571 34.4746 91.1167C34.623 90.0708 34.8428 89.1074 34.9912 88.2762C35.3045 86.6137 35.6067 85.5347 35.6067 85.5347V85.5292C35.6507 85.3751 35.8101 85.287 35.9639 85.3256C36.0958 85.3586 36.1783 85.4907 36.1618 85.6338Z" fill="#517887"/>
<path d="M61.1288 85.199C61.1288 85.199 61.2277 85.4577 61.3816 85.9311C61.53 86.4045 61.7608 87.0706 61.9752 87.8853C62.206 88.7001 62.4533 89.6524 62.7006 90.6763C62.8215 91.1883 62.9314 91.7222 63.0413 92.2672C63.1457 92.8122 63.2722 93.3627 63.3656 93.9187C63.5359 95.0362 63.7448 96.1427 63.8492 97.1941C63.9097 97.7226 63.9481 98.229 63.9976 98.7134C64.0361 99.1979 64.102 99.6493 64.1075 100.073C64.1405 100.921 64.146 101.626 64.157 102.121C64.1625 102.616 64.1625 102.897 64.1625 102.897C64.1625 103.057 64.0361 103.189 63.8767 103.189C63.7283 103.189 63.6074 103.079 63.5854 102.936V102.919C63.5854 102.919 63.5469 102.644 63.481 102.159C63.426 101.675 63.3271 100.987 63.2447 100.156C63.2117 99.7428 63.1183 99.2969 63.0523 98.8235C62.9809 98.3501 62.8929 97.8547 62.827 97.3372C62.7665 96.8198 62.6566 96.2913 62.5632 95.7518C62.4698 95.2123 62.3763 94.6618 62.2829 94.1114C62.0796 93.0159 61.8707 91.9204 61.6784 90.8965C61.4586 89.8726 61.3102 88.9092 61.1233 88.0945C60.7936 86.4541 60.5738 85.3586 60.5738 85.3586C60.5408 85.199 60.6452 85.0503 60.7991 85.0173C60.942 84.9898 61.0794 85.0668 61.1288 85.199Z" fill="#517887"/>
<path d="M43.4491 90.6873C43.4491 90.6873 43.3722 90.7479 43.2623 90.7919C43.1523 90.8359 43.004 90.858 42.8556 90.8469C42.7072 90.8359 42.5643 90.7919 42.4599 90.7369C42.3555 90.6818 42.284 90.6157 42.284 90.6157C42.1686 90.5112 42.1631 90.335 42.262 90.2194C42.273 90.2029 42.2895 90.1919 42.306 90.1809C42.306 90.1809 42.3829 90.1258 42.4929 90.0818C42.6028 90.0377 42.7512 90.0157 42.8995 90.0212C43.0479 90.0267 43.1908 90.0708 43.2952 90.1258C43.3996 90.1864 43.4711 90.2524 43.4711 90.2524C43.5865 90.3625 43.5865 90.5442 43.4766 90.6543C43.4711 90.6653 43.4601 90.6763 43.4491 90.6873Z" fill="#E58E25"/>
<path d="M63.426 60.7243C63.426 60.7243 63.4205 60.4215 63.5634 59.9921C63.6349 59.7774 63.7503 59.5352 63.9426 59.293C64.0415 59.1774 64.1515 59.0563 64.2943 58.9572C64.4317 58.8581 64.5911 58.77 64.767 58.7205C64.8219 58.704 64.8274 58.6985 64.9264 58.682L65.0253 58.671C65.0747 58.6599 65.1901 58.6599 65.2946 58.6599C65.4924 58.671 65.6518 58.726 65.8057 58.7866C66.1079 58.9242 66.3113 59.1279 66.4597 59.3095C66.608 59.4912 66.6905 59.6618 66.7454 59.7774C66.8004 59.8985 66.8224 59.9701 66.8224 59.9756C66.8773 60.0802 66.8389 60.2123 66.7289 60.2674C66.6245 60.3224 66.4926 60.2839 66.4377 60.1738C66.4432 60.1848 66.2728 59.9811 65.9925 59.7664C65.9266 59.7114 65.8441 59.6618 65.7672 59.6178C65.6903 59.5683 65.6023 59.5407 65.5199 59.5077C65.4375 59.4857 65.3385 59.4692 65.2726 59.4747C65.2451 59.4747 65.2231 59.4637 65.1407 59.4857L65.0418 59.5022C65.0747 59.4967 65.0143 59.5132 65.0088 59.5187C64.6681 59.6123 64.3603 59.9701 64.1679 60.2839C64.069 60.438 63.9866 60.5756 63.9371 60.6747C63.8877 60.7738 63.8547 60.8289 63.8547 60.8289L63.8492 60.8344C63.7887 60.9445 63.6568 60.983 63.5469 60.928C63.47 60.8784 63.426 60.8068 63.426 60.7243Z" fill="#B38879"/>
<path d="M41.2233 54.0304C41.2233 54.0304 41.1794 53.9478 41.0914 53.7992C41.009 53.6505 40.8826 53.4413 40.7177 53.2156C40.5529 52.9899 40.344 52.7532 40.1187 52.6046C40.0033 52.544 39.8879 52.4835 39.7725 52.467C39.7175 52.445 39.6516 52.456 39.5911 52.456H39.5691H39.5636C39.5526 52.456 39.6406 52.4505 39.6021 52.4505H39.5966L39.5746 52.456L39.4977 52.467L39.3438 52.489C39.2174 52.5 39.2064 52.5275 39.135 52.544C39.08 52.5495 39.0086 52.5991 38.9426 52.6266C38.8107 52.6927 38.6843 52.7752 38.5744 52.8743C38.4645 52.9789 38.3601 53.089 38.2666 53.2046C38.1787 53.3257 38.0963 53.4468 38.0248 53.5679C37.8874 53.8102 37.7885 54.0304 37.7281 54.1845C37.6676 54.3386 37.6346 54.4267 37.6346 54.4267L37.6182 54.4652C37.5577 54.6139 37.3873 54.6854 37.239 54.6249C37.1235 54.5808 37.0576 54.4707 37.0576 54.3551C37.0576 54.3551 37.0576 54.3221 37.0576 54.2671C37.0576 54.212 37.0576 54.135 37.0686 54.0359C37.0851 53.8377 37.1235 53.5514 37.2335 53.2211C37.3434 52.8908 37.5247 52.5 37.849 52.1422C38.0138 51.966 38.2062 51.8009 38.437 51.6743C38.5579 51.6192 38.6623 51.5477 38.8052 51.5091C38.9316 51.4706 39.113 51.41 39.1954 51.4045L39.3493 51.3825L39.4262 51.3715H39.4482L39.5032 51.366H39.5142H39.5691C39.7175 51.3715 39.8604 51.3715 40.0033 51.41C40.2946 51.4596 40.5364 51.6192 40.7452 51.7679C41.1409 52.0926 41.3552 52.4725 41.4981 52.7863C41.641 53.1055 41.707 53.3808 41.7454 53.5735C41.7674 53.6725 41.7729 53.7496 41.7784 53.8047C41.7839 53.8597 41.7894 53.8872 41.7894 53.8872C41.8059 54.0469 41.6905 54.1955 41.5256 54.212C41.4047 54.223 41.2948 54.1625 41.2398 54.0579L41.2233 54.0304Z" fill="black"/>
<path d="M52.1104 54.1515C52.1104 54.1515 52.1104 54.1239 52.1104 54.0689C52.1104 54.0138 52.1104 53.9368 52.1158 53.8377C52.1268 53.6395 52.1598 53.3588 52.2642 53.023C52.3686 52.6927 52.528 52.2908 52.8798 51.9165C53.0666 51.7403 53.2864 51.5587 53.5667 51.4706C53.7041 51.41 53.847 51.3935 53.9899 51.3715L54.0448 51.366H54.0558H54.1108H54.1328H54.2097H54.3636C54.446 51.3605 54.6329 51.399 54.7648 51.421C54.9132 51.4431 55.0286 51.4981 55.155 51.5366C55.3968 51.6357 55.6111 51.7789 55.798 51.9275C56.1662 52.2413 56.397 52.6046 56.5454 52.9184C56.6938 53.2377 56.7707 53.5129 56.8092 53.7056C56.8312 53.8047 56.8367 53.8817 56.8477 53.9368C56.8532 53.9973 56.8586 54.0249 56.8586 54.0249C56.8751 54.1845 56.7652 54.3276 56.6058 54.3496C56.4849 54.3662 56.375 54.3001 56.3201 54.201L56.2981 54.1625C56.2981 54.1625 56.2541 54.0799 56.1717 53.9368C56.0892 53.7881 55.9628 53.5845 55.798 53.3588C55.7155 53.2487 55.6166 53.1386 55.5122 53.0285C55.4078 52.9239 55.2869 52.8248 55.166 52.7367C55.0396 52.6541 54.9077 52.5826 54.7703 52.5385C54.7043 52.522 54.6219 52.4835 54.5669 52.4835C54.4955 52.478 54.479 52.4505 54.3526 52.456H54.1987H54.1218H54.0998H54.0943C54.0558 52.456 54.1438 52.456 54.1328 52.456H54.1273L54.1053 52.4615C54.0448 52.4725 53.9844 52.467 53.9294 52.5C53.814 52.5275 53.7096 52.5991 53.6052 52.6762C53.3963 52.8523 53.2205 53.1165 53.0886 53.3588C52.9567 53.6065 52.8578 53.8267 52.7918 53.9863C52.7259 54.146 52.6929 54.234 52.6929 54.234L52.6819 54.2561C52.6215 54.4047 52.4511 54.4818 52.3027 54.4212C52.1873 54.3717 52.1158 54.2671 52.1104 54.1515Z" fill="black"/>
<path opacity="0.5" d="M46.1255 49.72C45.2077 49.7806 44.0152 54.7405 44.5263 55.3405C45.0703 55.9791 47.6643 56.0727 48.0325 55.2965C48.4062 54.5203 47.7083 49.6209 46.1255 49.72Z" fill="#C67B9E"/>
<path d="M55.9299 48.7567C56.0618 48.8007 56.1442 48.8227 56.1442 48.8227L56.2541 48.8503C56.5894 48.9383 56.9246 48.7347 57.0125 48.4044C57.0455 48.2778 57.0345 48.1511 56.996 48.0355C56.996 48.0355 56.9631 47.942 56.8861 47.7878C56.8092 47.6337 56.7048 47.408 56.5014 47.1878C56.4025 47.0777 56.3036 46.9401 56.1662 46.8355C56.0288 46.7254 55.8859 46.5988 55.721 46.5052C55.5507 46.4116 55.3748 46.307 55.1825 46.2354C54.9846 46.1694 54.7868 46.0868 54.5779 46.0593C54.3691 46.0152 54.1603 45.9877 53.9514 45.9877C53.7426 45.9712 53.5447 46.0042 53.3524 46.0263C52.9732 46.0923 52.6324 46.2024 52.3687 46.351C52.0994 46.4832 51.9015 46.6428 51.7696 46.7639C51.7037 46.819 51.4674 47.2759 51.4674 47.2759C51.3739 47.5731 51.5333 47.8924 51.8356 47.986C51.918 48.0135 53.9679 47.5731 55.9299 48.7567Z" fill="#533614"/>
<path d="M36.7828 49.5769C36.6674 49.654 36.5959 49.698 36.5959 49.698L36.497 49.7586C36.2003 49.9347 35.8211 49.8301 35.6452 49.5329C35.5792 49.4173 35.5518 49.2962 35.5628 49.175C35.5628 49.175 35.5683 49.076 35.6012 48.9108C35.6342 48.7457 35.6782 48.4979 35.8101 48.2282C35.876 48.0961 35.931 47.9365 36.0409 47.7988C36.1453 47.6557 36.2442 47.4961 36.3816 47.3584C36.519 47.2208 36.6619 47.0722 36.8268 46.9511C36.9971 46.83 37.1675 46.7034 37.3599 46.6153C37.5467 46.5162 37.7446 46.4336 37.9424 46.3786C38.1348 46.307 38.3381 46.285 38.5304 46.252C38.9151 46.2134 39.2724 46.2244 39.5691 46.296C39.8659 46.351 40.0967 46.4501 40.2616 46.5327C40.3385 46.5712 40.6903 46.9401 40.6903 46.9401C40.8606 47.1988 40.7892 47.5511 40.5309 47.7218C40.443 47.7658 38.3546 47.9034 36.7828 49.5769Z" fill="#533614"/>
<path d="M24.2309 36.4698C24.2089 36.9432 2.4624 36.3982 0.225641 19.5312C-2.20346 1.21653 15.729 -2.89011 24.1815 1.76151C31.6996 5.90118 35.7664 16.9715 28.8088 26.1977C25.6213 30.4254 19.9992 31.7466 20.4169 32.6824C20.9884 33.9705 24.2584 35.8807 24.2309 36.4698Z" fill="#F3D643"/>
<path d="M11.5025 15.0228C11.5135 15.4467 11.1728 15.799 10.7551 15.8045C10.3319 15.8155 9.98571 15.4797 9.97472 15.0558C9.96373 14.632 10.299 14.2852 10.7221 14.2741C11.1453 14.2631 11.497 14.5989 11.5025 15.0228Z" fill="black"/>
<path d="M23.2414 14.7806C23.2524 15.2045 22.9171 15.5568 22.494 15.5623C22.0708 15.5733 21.7191 15.2375 21.7136 14.8136C21.7026 14.3897 22.0433 14.0374 22.4665 14.0319C22.8841 14.0209 23.2304 14.3567 23.2414 14.7806Z" fill="black"/>
<path d="M13.1018 16.5917C13.1018 16.5917 13.1183 16.6357 13.1403 16.6908C13.1677 16.7568 13.2172 16.8504 13.2721 16.977C13.3876 17.2248 13.5854 17.5605 13.8602 17.9129C14.0031 18.0835 14.168 18.2597 14.3548 18.4248C14.5472 18.579 14.756 18.7331 14.9923 18.8487C15.2286 18.9698 15.4814 19.0634 15.7562 19.1184C16.0145 19.1845 16.3388 19.201 16.5861 19.2065C16.7454 19.201 16.9268 19.201 17.0697 19.1845L17.4544 19.1184C17.5863 19.0744 17.7182 19.0414 17.8501 19.0028C17.971 18.9478 18.0919 18.8927 18.2128 18.8377C18.4381 18.7056 18.6525 18.5624 18.8338 18.3918C19.0152 18.2211 19.1745 18.045 19.3119 17.8633C19.5812 17.5055 19.7626 17.1587 19.867 16.911C19.9769 16.6633 20.0264 16.5146 20.0209 16.5256C20.0484 16.366 20.1967 16.2614 20.3561 16.2889C20.5155 16.3164 20.6199 16.4651 20.5924 16.6247C20.5924 16.6247 20.5869 16.6743 20.576 16.7623C20.565 16.8449 20.5485 16.9715 20.51 17.1202C20.4331 17.4229 20.3122 17.8578 20.0374 18.3367C19.9055 18.579 19.7296 18.8267 19.5153 19.0689C19.2954 19.3056 19.0372 19.5368 18.7294 19.7295C18.5755 19.8175 18.4106 19.9001 18.2458 19.9827C18.0754 20.0488 17.8995 20.1093 17.7182 20.1699C17.5258 20.2139 17.328 20.2469 17.1356 20.28C16.9488 20.302 16.8004 20.302 16.63 20.313C16.2179 20.3185 15.8716 20.28 15.4979 20.1864C15.1352 20.1038 14.789 19.9552 14.4757 19.7735C14.1625 19.5974 13.8987 19.3717 13.6733 19.1404C13.5634 19.0248 13.4645 18.8982 13.3656 18.7881C13.2831 18.6615 13.2007 18.5459 13.1238 18.4303C12.838 17.9624 12.7061 17.5275 12.6182 17.2248C12.5742 17.0761 12.5577 16.9495 12.5412 16.8669C12.5302 16.7789 12.5247 16.7348 12.5247 16.7348C12.5027 16.5752 12.6127 16.4265 12.772 16.4045C12.9094 16.3825 13.0413 16.4706 13.0853 16.5972L13.1018 16.5917Z" fill="black"/>
<path d="M10.4913 17.8193C10.4638 16.5642 9.43064 15.5678 8.17762 15.5953C6.9246 15.6228 5.92987 16.6577 5.95735 17.9129C5.98483 19.168 7.01802 20.1644 8.27105 20.1368C9.52407 20.1093 10.5188 19.0744 10.4913 17.8193Z" fill="#CE4A70"/>
<path d="M26.874 17.8193C26.8466 16.5642 25.8134 15.5678 24.5603 15.5953C23.3073 15.6228 22.3126 16.6577 22.3401 17.9129C22.3676 19.168 23.4007 20.1644 24.6538 20.1368C25.9068 20.1148 26.896 19.0744 26.874 17.8193Z" fill="#CE4A70"/>
<path d="M44.6142 91.4855C44.4603 89.0083 46.3399 86.8669 48.8129 86.7128C51.286 86.5587 53.4238 88.4413 53.5777 90.9185C53.7316 93.3957 51.8521 95.5371 49.379 95.6912C46.9059 95.8509 44.7736 93.9682 44.6142 91.4855Z" fill="#FCEB3C"/>
<path d="M51.9949 85.9641C51.9949 85.9641 52.0004 85.821 52.0444 85.6283C52.0939 85.4357 52.1873 85.1934 52.3082 84.9677C52.4291 84.742 52.583 84.5329 52.7204 84.3897C52.8578 84.2466 52.9677 84.1585 52.9677 84.1585C53.0721 84.0815 53.2205 84.098 53.3029 84.2026C53.3414 84.2521 53.3524 84.3072 53.3524 84.3622C53.3524 84.3622 53.3414 84.5053 53.2974 84.698C53.248 84.8907 53.16 85.1329 53.0391 85.3586C52.9182 85.5843 52.7698 85.7935 52.6324 85.9421C52.4951 86.0852 52.3796 86.1678 52.3796 86.1678C52.2697 86.2449 52.1213 86.2228 52.0444 86.1128C52.0059 86.0687 51.9894 86.0137 51.9949 85.9641Z" fill="#E58E25"/>
<path d="M53.4788 87.5385C53.4788 87.5385 53.5557 87.4174 53.6876 87.2688C53.825 87.1202 54.0229 86.955 54.2427 86.8119C54.4625 86.6688 54.6988 86.5587 54.8857 86.4926C55.078 86.4321 55.2154 86.41 55.2154 86.41C55.3473 86.388 55.4682 86.4816 55.4847 86.6082C55.4957 86.6688 55.4792 86.7238 55.4462 86.7734C55.4462 86.7734 55.3693 86.8945 55.2319 87.0431C55.0945 87.1917 54.8967 87.3624 54.6768 87.5C54.457 87.6431 54.2262 87.7587 54.0338 87.8193C53.8415 87.8798 53.6986 87.9019 53.6986 87.9019C53.5667 87.9184 53.4458 87.8248 53.4293 87.6927C53.4348 87.6376 53.4513 87.5826 53.4788 87.5385Z" fill="#E58E25"/>
<path d="M54.3746 89.8506C54.3746 89.8506 54.5065 89.7735 54.7043 89.7019C54.9022 89.6304 55.1715 89.5753 55.4407 89.5478C55.71 89.5203 55.9848 89.5313 56.1937 89.5588C56.4025 89.5918 56.5399 89.6359 56.5399 89.6359C56.6663 89.6744 56.7322 89.8065 56.6938 89.9331C56.6773 89.9937 56.6333 90.0377 56.5839 90.0708C56.5839 90.0708 56.452 90.1423 56.2541 90.2139C56.0563 90.28 55.787 90.3405 55.5177 90.368C55.2484 90.3956 54.9736 90.39 54.7648 90.3625C54.5559 90.3295 54.4131 90.28 54.4131 90.28C54.2867 90.2359 54.2207 90.0983 54.2647 89.9772C54.2867 89.9276 54.3251 89.8836 54.3746 89.8506Z" fill="#E58E25"/>
<path d="M54.1548 92.4434C54.1548 92.4434 54.2372 92.4158 54.3361 92.4158C54.435 92.4158 54.5559 92.4434 54.6604 92.5039C54.7648 92.5645 54.8472 92.6525 54.9022 92.7351C54.9571 92.8232 54.9791 92.9003 54.9791 92.9003C55.0286 93.0599 54.9352 93.2305 54.7703 93.2801C54.7703 93.2801 54.6878 93.3021 54.5889 93.3021C54.49 93.3021 54.3691 93.2746 54.2647 93.2195C54.1603 93.1645 54.0723 93.0764 54.0174 92.9938C53.9624 92.9058 53.9404 92.8232 53.9404 92.8232C53.902 92.6635 53.9954 92.4984 54.1548 92.4434Z" fill="#E58E25"/>
<path d="M53.1325 94.9591C53.1325 94.9591 53.3249 95.0802 53.5832 95.2894C53.8415 95.4986 54.1548 95.8068 54.446 96.1371C54.7373 96.4619 55.0066 96.8142 55.1879 97.0895C55.3693 97.3702 55.4737 97.5739 55.4737 97.5739C55.5287 97.684 55.4847 97.8216 55.3748 97.8767C55.2979 97.9152 55.2154 97.9042 55.1495 97.8657C55.1495 97.8657 54.9571 97.739 54.7043 97.5299C54.4515 97.3152 54.1273 97.0124 53.836 96.6876C53.5447 96.3628 53.2754 96.016 53.0886 95.7353C52.9072 95.4545 52.8083 95.2508 52.8083 95.2508C52.7533 95.1407 52.7973 95.0031 52.9127 94.9481C52.9842 94.9095 53.0666 94.915 53.1325 94.9591Z" fill="#E58E25"/>
<path d="M50.8683 96.3518C50.8683 96.3518 50.9563 96.4344 51.0497 96.5665C51.1431 96.6986 51.231 96.8858 51.286 97.084C51.341 97.2821 51.3684 97.4858 51.3629 97.6455C51.3574 97.8051 51.33 97.9207 51.33 97.9207C51.297 98.0583 51.1651 98.1409 51.0277 98.1079C50.9837 98.0969 50.9453 98.0748 50.9123 98.0473C50.9123 98.0473 50.8299 97.9647 50.7364 97.8326C50.6485 97.7005 50.5551 97.5133 50.4946 97.3152C50.4342 97.117 50.4067 96.9133 50.4122 96.7537C50.4177 96.594 50.4506 96.4784 50.4506 96.4784C50.4891 96.3408 50.6265 96.2637 50.7639 96.2968C50.8024 96.3023 50.8353 96.3243 50.8683 96.3518Z" fill="#E58E25"/>
<path d="M48.5491 96.6326C48.5491 96.6326 48.5491 96.8142 48.5107 97.0785C48.4722 97.3372 48.3843 97.673 48.2688 97.9978C48.1534 98.3226 48.005 98.6364 47.8732 98.8621C47.7358 99.0878 47.6258 99.2309 47.6258 99.2309C47.5489 99.33 47.4005 99.3465 47.3016 99.2694C47.2411 99.2254 47.2137 99.1538 47.2137 99.0878C47.2137 99.0878 47.2137 98.9061 47.2576 98.6419C47.3016 98.3831 47.3785 98.0418 47.4939 97.717C47.6094 97.3923 47.7522 97.0785 47.8896 96.8473C48.027 96.6216 48.1424 96.4784 48.1424 96.4784C48.2249 96.3794 48.3678 96.3628 48.4667 96.4454C48.5216 96.5005 48.5491 96.5665 48.5491 96.6326Z" fill="#E58E25"/>
<path d="M45.5045 95.6857C45.5045 95.6857 45.4715 95.7848 45.3946 95.9004C45.3176 96.016 45.1967 96.1427 45.0593 96.2417C44.922 96.3408 44.7626 96.4124 44.6307 96.4454C44.4988 96.4784 44.3944 96.4784 44.3944 96.4784C44.2515 96.4839 44.1306 96.3683 44.1251 96.2197C44.1251 96.1867 44.1306 96.1537 44.1416 96.1261C44.1416 96.1261 44.1745 96.027 44.2515 95.9114C44.3284 95.7958 44.4438 95.6692 44.5867 95.5701C44.7241 95.4711 44.8835 95.394 45.0154 95.361C45.1473 95.3279 45.2572 95.3279 45.2572 95.3279C45.4056 95.3279 45.5265 95.449 45.521 95.5977C45.5155 95.6307 45.51 95.6637 45.5045 95.6857Z" fill="#E58E25"/>
<path d="M43.9602 93.7095C43.9602 93.7095 43.8063 93.7865 43.5755 93.8581C43.3447 93.9297 43.0314 93.9902 42.7127 94.0177C42.3994 94.0453 42.0807 94.0398 41.8389 94.0122C41.5971 93.9847 41.4322 93.9407 41.4322 93.9407C41.3058 93.9077 41.2343 93.781 41.2673 93.6544C41.2838 93.5884 41.3333 93.5333 41.3937 93.5058C41.3937 93.5058 41.5476 93.4342 41.7784 93.3627C42.0092 93.2911 42.3225 93.2306 42.6412 93.1975C42.9545 93.1645 43.2732 93.17 43.5151 93.1975C43.7569 93.2251 43.9217 93.2746 43.9217 93.2746C44.0481 93.3131 44.1141 93.4397 44.0811 93.5664C44.0646 93.6324 44.0152 93.682 43.9602 93.7095Z" fill="#E58E25"/>
<path d="M44.3504 88.2597C44.3504 88.2597 44.202 88.2321 43.9987 88.1551C43.8008 88.078 43.5535 87.9459 43.3282 87.7862C43.1029 87.6266 42.894 87.4394 42.7512 87.2798C42.6083 87.1201 42.5313 86.9935 42.5313 86.9935C42.4599 86.8834 42.4928 86.7348 42.6028 86.6687C42.6577 86.6357 42.7182 86.6247 42.7786 86.6357C42.7786 86.6357 42.927 86.6687 43.1249 86.7458C43.3227 86.8229 43.57 86.955 43.8008 87.1146C44.0316 87.2743 44.2405 87.4559 44.3834 87.6156C44.5263 87.7752 44.6032 87.9073 44.6032 87.9073C44.6692 88.0229 44.6362 88.1661 44.5208 88.2321C44.4658 88.2597 44.4054 88.2652 44.3504 88.2597Z" fill="#E58E25"/>
<path d="M46.4772 86.4651C46.4772 86.4651 46.3893 86.366 46.2904 86.2008C46.197 86.0412 46.109 85.8155 46.0486 85.5843C45.9881 85.3531 45.9661 85.1109 45.9661 84.9237C45.9716 84.7366 45.9991 84.6044 45.9991 84.6044C46.0266 84.4723 46.153 84.3897 46.2849 84.4173C46.3399 84.4283 46.3893 84.4558 46.4223 84.4998C46.4223 84.4998 46.5102 84.5989 46.6036 84.7641C46.6971 84.9237 46.7905 85.1494 46.851 85.3806C46.9114 85.6118 46.9444 85.854 46.9389 86.0412C46.9334 86.2284 46.9059 86.3605 46.9059 86.3605C46.8729 86.4926 46.7465 86.5752 46.6146 86.5422C46.5542 86.5311 46.5102 86.5036 46.4772 86.4651Z" fill="#E58E25"/>
<path d="M49.3405 85.8706C49.3405 85.8706 49.2801 85.6614 49.2251 85.3476C49.1756 85.0338 49.1427 84.6154 49.1482 84.2026C49.1482 83.7842 49.1866 83.3658 49.2306 83.0576C49.2801 82.7438 49.3405 82.5346 49.3405 82.5346C49.3735 82.4135 49.4999 82.3419 49.6208 82.3805C49.6977 82.4025 49.7582 82.463 49.7747 82.5346C49.7747 82.5346 49.8351 82.7438 49.8846 83.0576C49.934 83.3713 49.967 83.7897 49.967 84.2026C49.967 84.621 49.934 85.0393 49.8846 85.3476C49.8351 85.6614 49.7692 85.8706 49.7692 85.8706C49.7362 85.9917 49.6098 86.0577 49.4889 86.0247C49.4175 85.9972 49.3625 85.9366 49.3405 85.8706Z" fill="#E58E25"/>
<path opacity="0.2" d="M55.1879 59.2104C55.2924 60.8619 56.7377 62.117 58.4139 62.0124C60.0956 61.9078 61.3706 60.4821 61.2662 58.8251C61.1618 57.1736 59.7164 55.9185 58.0402 56.0231C56.3585 56.1277 55.0835 57.5535 55.1879 59.2104Z" fill="#B34C85"/>
<path opacity="0.2" d="M33.5623 59.0563C33.6667 60.7078 35.1121 61.9629 36.7883 61.8583C38.47 61.7537 39.745 60.3279 39.6406 58.671C39.5362 57.0195 38.0908 55.7644 36.4146 55.869C34.7384 55.9791 33.4634 57.4048 33.5623 59.0563Z" fill="#B34C85"/>
<path d="M38.6898 57.3773C37.8215 57.8948 37.3049 65.6236 45.9771 66.1961C54.6878 66.7686 56.0947 60.8674 55.5836 57.8673C55.3748 56.6287 50.6595 58.0159 45.8892 57.8287C41.042 57.636 39.4262 56.9369 38.6898 57.3773Z" fill="white"/>
<path d="M53.7206 61.1867C53.7206 61.1867 52.8962 61.5005 51.6102 61.8032C50.9672 61.9409 50.2143 62.117 49.39 62.2161C48.9833 62.2767 48.5546 62.3207 48.1205 62.3537C47.6863 62.4033 47.2466 62.4088 46.8015 62.4253C46.3618 62.4363 45.9167 62.4088 45.4825 62.4033C45.0484 62.3647 44.6197 62.3317 44.2075 62.2822C43.7953 62.2106 43.3996 62.15 43.0314 62.0565C42.6632 61.9519 42.317 61.8638 41.9982 61.7592C41.6905 61.6326 41.4102 61.517 41.1574 61.4124C40.9046 61.3188 40.7122 61.1702 40.5419 61.0821C40.2066 60.8894 40.0143 60.7793 40.0143 60.7793C39.9868 60.7628 39.9813 60.7353 39.9978 60.7078C40.0088 60.6857 40.0418 60.6747 40.0637 60.6857L40.0692 60.6913C40.0692 60.6913 40.2671 60.7848 40.6133 60.9445C40.7892 61.016 40.987 61.1427 41.2398 61.2142C41.4926 61.2968 41.7729 61.3904 42.0807 61.495C42.3939 61.5775 42.7402 61.6491 43.0974 61.7372C43.4601 61.8142 43.8558 61.8418 44.2515 61.9133C44.6527 61.9574 45.0758 61.9794 45.499 62.0124C45.9277 62.0124 46.3618 62.0289 46.7905 62.0124C47.2247 61.9904 47.6588 61.9959 48.082 61.9519C48.5107 61.9243 48.9283 61.8858 49.3295 61.8308C50.1374 61.7317 50.8903 61.6216 51.5333 61.5005C52.1763 61.3739 52.7094 61.2748 53.0831 61.1812C53.4568 61.0931 53.6656 61.0436 53.6656 61.0436C53.7041 61.0326 53.7426 61.0546 53.7481 61.0931C53.7756 61.1427 53.7536 61.1757 53.7206 61.1867Z" fill="#DACBC8"/>
</g>
<defs>
<clipPath id="clip0_1_4739">
<rect width="75" height="105" fill="white"/>
</clipPath>
</defs>
</svg>
