<svg width="25" height="24" viewBox="0 0 25 24" fill="none" xmlns="http://www.w3.org/2000/svg">
<path d="M9.86525 3.54465L4.88987 7.42157C4.0591 8.06773 3.38525 9.44311 3.38525 10.4862V17.3262C3.38525 19.4677 5.12987 21.2216 7.27141 21.2216H17.9606C20.1022 21.2216 21.8468 19.4677 21.8468 17.3354V10.6154C21.8468 9.49849 21.0991 8.06773 20.1853 7.4308L14.4806 3.43388C13.1883 2.52926 11.1114 2.57542 9.86525 3.54465Z" stroke="#FC764A" stroke-width="1.5" stroke-linecap="round" stroke-linejoin="round"/>
<path d="M9.86525 3.54465L4.88987 7.42157C4.0591 8.06773 3.38525 9.44311 3.38525 10.4862V17.3262C3.38525 19.4677 5.12987 21.2216 7.27141 21.2216H17.9606C20.1022 21.2216 21.8468 19.4677 21.8468 17.3354V10.6154C21.8468 9.49849 21.0991 8.06773 20.1853 7.4308L14.4806 3.43388C13.1883 2.52926 11.1114 2.57542 9.86525 3.54465Z" stroke="#FC7A4A" stroke-width="1.5" stroke-linecap="round" stroke-linejoin="round"/>
<path d="M12.616 16.6061V13.8369" stroke="#FC764A" stroke-width="1.5" stroke-linecap="round" stroke-linejoin="round"/>
<path d="M12.616 16.6061V13.8369" stroke="#FC7A4A" stroke-width="1.5" stroke-linecap="round" stroke-linejoin="round"/>
</svg>
