<svg width="25" height="24" viewBox="0 0 25 24" fill="none" xmlns="http://www.w3.org/2000/svg">
<path d="M9.85988 3.54465L4.8845 7.42157C4.05373 8.06773 3.37988 9.44311 3.37988 10.4862V17.3262C3.37988 19.4677 5.1245 21.2216 7.26604 21.2216H17.9553C20.0968 21.2216 21.8414 19.4677 21.8414 17.3354V10.6154C21.8414 9.49849 21.0937 8.06773 20.1799 7.4308L14.4753 3.43388C13.183 2.52926 11.106 2.57542 9.85988 3.54465Z" stroke="black" stroke-width="1.5" stroke-linecap="round" stroke-linejoin="round"/>
<path d="M9.85988 3.54465L4.8845 7.42157C4.05373 8.06773 3.37988 9.44311 3.37988 10.4862V17.3262C3.37988 19.4677 5.1245 21.2216 7.26604 21.2216H17.9553C20.0968 21.2216 21.8414 19.4677 21.8414 17.3354V10.6154C21.8414 9.49849 21.0937 8.06773 20.1799 7.4308L14.4753 3.43388C13.183 2.52926 11.106 2.57542 9.85988 3.54465Z" stroke="black" stroke-width="1.5" stroke-linecap="round" stroke-linejoin="round"/>
<path d="M12.6106 16.6061V13.8369" stroke="black" stroke-width="1.5" stroke-linecap="round" stroke-linejoin="round"/>
<path d="M12.6106 16.6061V13.8369" stroke="black" stroke-width="1.5" stroke-linecap="round" stroke-linejoin="round"/>
</svg>
