<svg width="22" height="22" viewBox="0 0 22 22" fill="none" xmlns="http://www.w3.org/2000/svg">
<path d="M16 14C16 9.5815 12.4185 6 8 6C3.5815 6 0 9.5815 0 14C0 18.4185 3.5815 22 8 22C12.4185 22 16 18.4185 16 14ZM2 14C2 10.6865 4.6865 8 8 8C11.3135 8 14 10.6865 14 14C14 17.3135 11.3135 20 8 20C4.6865 20 2 17.3135 2 14Z" fill="#4A4A4A"/>
<path d="M18.4195 2H15C14.7348 1.99996 14.4805 1.89459 14.293 1.70706C14.1055 1.51952 14.0001 1.26519 14.0001 1C14.0001 0.734809 14.1055 0.480477 14.293 0.292945C14.4805 0.105413 14.7348 3.88705e-05 15 0L21 0C21.2652 0 21.5196 0.105357 21.7071 0.292893C21.8946 0.48043 22 0.734784 22 1V7C22 7.26519 21.8946 7.51951 21.7071 7.70702C21.5195 7.89452 21.2652 7.99986 21 7.99986C20.7348 7.99986 20.4805 7.89452 20.293 7.70702C20.1054 7.51951 20 7.26519 20 7V3.5805L13.5805 10L12 8.4195L18.4195 2Z" fill="#4A4A4A"/>
</svg>
