<svg width="49" height="49" viewBox="0 0 49 49" fill="none" xmlns="http://www.w3.org/2000/svg">
<path d="M43.0411 30.3369C46.1478 20.1851 40.4268 9.4399 30.2629 6.33692C20.0991 3.23393 9.34115 8.94817 6.23449 19.1C3.12783 29.2519 8.84883 39.997 19.0127 43.1C29.1766 46.203 39.9345 40.4888 43.0411 30.3369Z" stroke="#FD7C4A" stroke-width="2" stroke-miterlimit="10"/>
<path d="M36.3165 25.4256C36.707 25.0351 36.707 24.4019 36.3165 24.0114L29.9525 17.6474C29.562 17.2569 28.9288 17.2569 28.5383 17.6474C28.1478 18.038 28.1478 18.6711 28.5383 19.0617L34.1952 24.7185L28.5383 30.3754C28.1478 30.7659 28.1478 31.399 28.5383 31.7896C28.9288 32.1801 29.562 32.1801 29.9525 31.7896L36.3165 25.4256ZM12.6094 25.7185L35.6094 25.7185V23.7185L12.6094 23.7185V25.7185Z" fill="#FD7C4A"/>
</svg>
