<svg width="25" height="24" viewBox="0 0 25 24" fill="none" xmlns="http://www.w3.org/2000/svg">
<path d="M22.6108 16.74V4.67001C22.6108 3.47001 21.6309 2.58002 20.4409 2.68002H20.3809C20.1409 2.70002 19.8796 2.72399 19.6108 2.78005C16.2743 3.47597 13.9409 4.66001 13.3109 5.05001L13.1409 5.16C12.8509 5.34 12.3708 5.34 12.0808 5.16L11.8308 5.01003C10.0508 3.90003 6.87081 2.84001 4.77081 2.67001C3.58081 2.57001 2.61084 3.47 2.61084 4.66V16.74C2.61084 17.7 3.39083 18.6 4.35083 18.72L4.64087 18.76C6.81087 19.05 10.1608 20.15 12.0808 21.2L12.1209 21.22C12.3909 21.37 12.8208 21.37 13.0808 21.22C15.0008 20.16 18.3608 19.05 20.5408 18.76L20.8708 18.72C21.8309 18.6 22.6108 17.7 22.6108 16.74Z" stroke="#FC784A" stroke-width="1.5" stroke-linecap="round" stroke-linejoin="round"/>
<path d="M12.6106 5.48999V20.49" stroke="#FC784A" stroke-width="1.5" stroke-linecap="round" stroke-linejoin="round"/>
<path d="M5.45654 6.9696C6.68654 7.1696 8.14654 7.58956 9.45654 8.10956" stroke="#FC784A" stroke-width="1.5" stroke-linecap="round" stroke-linejoin="round"/>
<path d="M5.45679 10.6619C6.68679 10.8619 8.14679 11.2819 9.45679 11.8019" stroke="#FC784A" stroke-width="1.5" stroke-linecap="round" stroke-linejoin="round"/>
<path d="M5.45679 14.3542C6.68679 14.5542 8.14679 14.9742 9.45679 15.4942" stroke="#FC784A" stroke-width="1.5" stroke-linecap="round" stroke-linejoin="round"/>
<path d="M19.6106 6.96973C18.3806 7.16973 16.9206 7.58968 15.6106 8.10968" stroke="#FC784A" stroke-width="1.5" stroke-linecap="round" stroke-linejoin="round"/>
<path d="M19.6106 10.662C18.3806 10.862 16.9206 11.282 15.6106 11.802" stroke="#FC784A" stroke-width="1.5" stroke-linecap="round" stroke-linejoin="round"/>
<path d="M19.6106 14.3544C18.3806 14.5544 16.9206 14.9743 15.6106 15.4943" stroke="#FC784A" stroke-width="1.5" stroke-linecap="round" stroke-linejoin="round"/>
</svg>
