<svg width="25" height="25" viewBox="0 0 25 25" fill="none" xmlns="http://www.w3.org/2000/svg">
<path d="M22.3096 17.24V5.17001C22.3096 3.97001 21.3296 3.08002 20.1396 3.18002H20.0796C19.8396 3.20002 19.5784 3.22399 19.3096 3.28005C15.9731 3.97597 13.6396 5.16001 13.0096 5.55001L12.8396 5.66C12.5496 5.84 12.0695 5.84 11.7795 5.66L11.5295 5.51003C9.74954 4.40003 6.56954 3.34001 4.46954 3.17001C3.27954 3.07001 2.30957 3.97 2.30957 5.16V17.24C2.30957 18.2 3.08956 19.1 4.04956 19.22L4.3396 19.26C6.5096 19.55 9.85954 20.65 11.7795 21.7L11.8196 21.72C12.0896 21.87 12.5195 21.87 12.7795 21.72C14.6995 20.66 18.0596 19.55 20.2396 19.26L20.5696 19.22C21.5296 19.1 22.3096 18.2 22.3096 17.24Z" stroke="#515960" stroke-width="1.5" stroke-linecap="round" stroke-linejoin="round"/>
<path d="M22.3096 17.24V5.17001C22.3096 3.97001 21.3296 3.08002 20.1396 3.18002H20.0796C19.8396 3.20002 19.5784 3.22399 19.3096 3.28005C15.9731 3.97597 13.6396 5.16001 13.0096 5.55001L12.8396 5.66C12.5496 5.84 12.0695 5.84 11.7795 5.66L11.5295 5.51003C9.74954 4.40003 6.56954 3.34001 4.46954 3.17001C3.27954 3.07001 2.30957 3.97 2.30957 5.16V17.24C2.30957 18.2 3.08956 19.1 4.04956 19.22L4.3396 19.26C6.5096 19.55 9.85954 20.65 11.7795 21.7L11.8196 21.72C12.0896 21.87 12.5195 21.87 12.7795 21.72C14.6995 20.66 18.0596 19.55 20.2396 19.26L20.5696 19.22C21.5296 19.1 22.3096 18.2 22.3096 17.24Z" stroke="black" stroke-opacity="0.2" stroke-width="1.5" stroke-linecap="round" stroke-linejoin="round"/>
<path d="M12.3093 5.98999V20.99" stroke="#515960" stroke-width="1.5" stroke-linecap="round" stroke-linejoin="round"/>
<path d="M12.3093 5.98999V20.99" stroke="black" stroke-opacity="0.2" stroke-width="1.5" stroke-linecap="round" stroke-linejoin="round"/>
<path d="M5.15527 7.4696C6.38527 7.6696 7.84527 8.08956 9.15527 8.60956" stroke="#515960" stroke-width="1.5" stroke-linecap="round" stroke-linejoin="round"/>
<path d="M5.15527 7.4696C6.38527 7.6696 7.84527 8.08956 9.15527 8.60956" stroke="black" stroke-opacity="0.2" stroke-width="1.5" stroke-linecap="round" stroke-linejoin="round"/>
<path d="M5.15552 11.1619C6.38552 11.3619 7.84552 11.7819 9.15552 12.3019" stroke="#515960" stroke-width="1.5" stroke-linecap="round" stroke-linejoin="round"/>
<path d="M5.15552 11.1619C6.38552 11.3619 7.84552 11.7819 9.15552 12.3019" stroke="black" stroke-opacity="0.2" stroke-width="1.5" stroke-linecap="round" stroke-linejoin="round"/>
<path d="M5.15552 14.8542C6.38552 15.0542 7.84552 15.4742 9.15552 15.9942" stroke="#515960" stroke-width="1.5" stroke-linecap="round" stroke-linejoin="round"/>
<path d="M5.15552 14.8542C6.38552 15.0542 7.84552 15.4742 9.15552 15.9942" stroke="black" stroke-opacity="0.2" stroke-width="1.5" stroke-linecap="round" stroke-linejoin="round"/>
<path d="M19.3093 7.46973C18.0793 7.66973 16.6193 8.08968 15.3093 8.60968" stroke="#515960" stroke-width="1.5" stroke-linecap="round" stroke-linejoin="round"/>
<path d="M19.3093 7.46973C18.0793 7.66973 16.6193 8.08968 15.3093 8.60968" stroke="black" stroke-opacity="0.2" stroke-width="1.5" stroke-linecap="round" stroke-linejoin="round"/>
<path d="M19.3093 11.162C18.0793 11.362 16.6193 11.782 15.3093 12.302" stroke="#515960" stroke-width="1.5" stroke-linecap="round" stroke-linejoin="round"/>
<path d="M19.3093 11.162C18.0793 11.362 16.6193 11.782 15.3093 12.302" stroke="black" stroke-opacity="0.2" stroke-width="1.5" stroke-linecap="round" stroke-linejoin="round"/>
<path d="M19.3093 14.8544C18.0793 15.0544 16.6193 15.4743 15.3093 15.9943" stroke="#515960" stroke-width="1.5" stroke-linecap="round" stroke-linejoin="round"/>
<path d="M19.3093 14.8544C18.0793 15.0544 16.6193 15.4743 15.3093 15.9943" stroke="black" stroke-opacity="0.2" stroke-width="1.5" stroke-linecap="round" stroke-linejoin="round"/>
</svg>
