<svg width="24" height="24" viewBox="0 0 24 24" fill="none" xmlns="http://www.w3.org/2000/svg">
<path d="M12.7777 8.03173C12.7738 6.98857 12.4727 5.96813 11.9098 5.0899C11.3468 4.21168 10.5453 3.51203 9.5991 3.0729C8.65287 2.63377 7.6011 2.47334 6.56699 2.61039C5.53287 2.74745 4.55921 3.17632 3.76003 3.84677C2.96086 4.51723 2.36926 5.40151 2.05453 6.39606C1.73979 7.39061 1.71494 8.45425 1.9829 9.46241C2.25085 10.4706 2.80051 11.3815 3.56751 12.0886C4.3345 12.7956 5.28708 13.2695 6.31367 13.4546V20.4878C6.31367 20.7062 6.40042 20.9157 6.55485 21.0701C6.70927 21.2245 6.91872 21.3113 7.13711 21.3113C7.3555 21.3113 7.56494 21.2245 7.71937 21.0701C7.87379 20.9157 7.96055 20.7062 7.96055 20.4878V13.5C9.29152 13.3311 10.5152 12.6825 11.402 11.6758C12.2889 10.669 12.778 9.37337 12.7777 8.03173ZM7.28819 11.8898C6.52444 11.8929 5.77695 11.6693 5.14042 11.2472C4.50388 10.8251 4.00693 10.2236 3.71252 9.51891C3.41811 8.81418 3.33948 8.03792 3.4866 7.28847C3.63371 6.53901 3.99995 5.85008 4.53892 5.30894C5.07789 4.7678 5.76534 4.3988 6.5142 4.24867C7.26306 4.09854 8.03962 4.17405 8.74553 4.46563C9.45144 4.7572 10.0549 5.25173 10.4796 5.88656C10.9042 6.52139 11.1308 7.26797 11.1308 8.03173C11.1317 9.05256 10.7277 10.0321 10.0073 10.7554C9.28688 11.4786 8.30901 11.8866 7.28819 11.8898ZM17.4713 10.5049V3.87049C17.4713 3.6521 17.3845 3.44265 17.2301 3.28823C17.0757 3.1338 16.8662 3.04705 16.6478 3.04705C16.4294 3.04705 16.22 3.1338 16.0656 3.28823C15.9111 3.44265 15.8244 3.6521 15.8244 3.87049V10.538C14.4599 10.7732 13.2347 11.5153 12.3942 12.6156C11.5537 13.7158 11.1599 15.0931 11.2918 16.4713C11.4237 17.8496 12.0715 19.1272 13.1054 20.0481C14.1393 20.969 15.4831 21.4652 16.8674 21.4374C18.2517 21.4096 19.5743 20.8597 20.5704 19.898C21.5665 18.9362 22.1624 17.6337 22.2387 16.2512C22.3151 14.8687 21.8663 13.5084 20.9822 12.4429C20.0981 11.3773 18.8441 10.6851 17.4713 10.5049ZM16.7576 19.8266C15.9939 19.8297 15.2465 19.606 14.61 19.1839C13.9735 18.7618 13.4766 18.1604 13.1823 17.4557C12.8879 16.751 12.8093 15.9748 12.9564 15.2253C13.1035 14.4759 13.4697 13.7871 14.0087 13.2459C14.5476 12.7048 15.235 12.3358 15.9838 12.1857C16.7327 12.0356 17.5092 12.1111 18.2151 12.4026C18.9209 12.6941 19.5244 13.1886 19.949 13.8234C20.3737 14.4582 20.6004 15.2047 20.6004 15.9684C20.6013 16.9893 20.1972 17.9688 19.4768 18.6921C18.7564 19.4154 17.7785 19.8235 16.7576 19.8266Z" fill="#4A4A4A"/>
<path d="M11.7714 16.9807H2.50381C2.28621 16.9781 2.07841 16.8898 1.92546 16.735C1.77251 16.5802 1.68674 16.3714 1.68674 16.1538C1.68674 15.9361 1.77251 15.7273 1.92546 15.5725C2.07841 15.4177 2.28621 15.3294 2.50381 15.3268H11.7714C11.989 15.3294 12.1968 15.4177 12.3498 15.5725C12.5027 15.7273 12.5885 15.9361 12.5885 16.1538C12.5885 16.3714 12.5027 16.5802 12.3498 16.735C12.1968 16.8898 11.989 16.9781 11.7714 16.9807ZM21.6155 9.29005C21.4016 9.29024 21.1961 9.20678 21.043 9.05749L16.6432 4.78681L12.6028 8.86681C12.5262 8.94353 12.4353 9.00442 12.3352 9.046C12.2351 9.08759 12.1278 9.10904 12.0194 9.10916C11.8005 9.10938 11.5905 9.02264 11.4355 8.86801C11.2806 8.71339 11.1934 8.50354 11.1932 8.28464C11.193 8.06574 11.2797 7.85572 11.4343 7.70077L15.8173 3.27481C16.0315 3.05976 16.3217 2.93756 16.6252 2.93459C16.9287 2.93163 17.2213 3.04814 17.4396 3.25897L22.188 7.86853C22.3451 8.0213 22.4353 8.23002 22.439 8.44911C22.4427 8.6682 22.3596 8.87985 22.2077 9.03781C22.1311 9.11763 22.0392 9.18112 21.9374 9.22447C21.8356 9.26782 21.7261 9.29013 21.6155 9.29005Z" fill="#FF7214"/>
</svg>
