<svg width="49" height="49" viewBox="0 0 49 49" fill="none" xmlns="http://www.w3.org/2000/svg">
<path d="M42.4318 30.3369C45.5384 20.1851 39.8174 9.4399 29.6536 6.33692C19.4897 3.23393 8.73178 8.94817 5.62511 19.1C2.51845 29.2519 8.23945 39.997 18.4033 43.1C28.5672 46.203 39.3251 40.4888 42.4318 30.3369Z" stroke="white" stroke-width="2" stroke-miterlimit="10"/>
<path d="M33.5056 24.46C33.5282 24.7309 33.5452 25.0018 33.5452 25.2783C33.5452 30.047 29.6748 33.9128 24.9005 33.9128C21.985 33.9128 19.4029 32.468 17.8378 30.2558" stroke="white" stroke-width="2" stroke-miterlimit="10"/>
<path d="M33.4829 21.2714L31.5788 24.5559H35.3813L33.4829 21.2714Z" fill="white"/>
<path d="M16.2898 24.505C16.6797 20.0975 20.3861 16.6437 24.9006 16.6437C27.4657 16.6437 29.7653 17.7611 31.353 19.5275" stroke="white" stroke-width="2" stroke-miterlimit="10"/>
<path d="M16.1483 27.8008L14.2499 24.5164H18.0468L16.1483 27.8008Z" fill="white"/>
</svg>
