<svg width="84" height="108" viewBox="0 0 84 108" fill="none" xmlns="http://www.w3.org/2000/svg">
<g clip-path="url(#clip0_1_4690)">
<path d="M34.4856 76.8001L34.0809 71.256L34.0392 71.065C41.4494 69.3582 45.8658 62.7757 46.2229 59.7918C46.4788 57.6553 45.0623 55.7277 45.0623 55.7277C45.0623 55.7277 45.1039 51.1921 44.848 49.724C45.6634 49.8673 46.4907 49.9747 47.3359 50.0463L48.3954 50.1418C48.3418 50.7505 48.2763 51.3831 48.199 52.0276C48.0204 53.5255 48.6096 57.3569 49.4608 59.9947C50.7762 64.0528 54.5616 65.2822 53.6986 69.2269C53.145 71.7752 51.7701 71.2202 51.2702 72.8792C50.9369 74.0072 54.4902 79.2231 49.0739 82.571C47.8418 80.5241 46.5086 78.8531 45.1099 77.9519C40.5566 75.0098 34.4856 76.8359 34.4856 76.8359V76.8001Z" fill="#D691AE"/>
<path d="M51.5678 87.4348C54.389 93.7548 56.2401 100.683 56.2401 100.683C56.2401 100.683 53.27 103.285 46.8776 105.386L46.83 105.147C46.092 101.274 44.9611 97.0013 43.9493 93.4922L43.9969 93.4802C49.4965 91.9584 51.3535 87.9361 51.5678 87.4348Z" fill="#F7CEB2"/>
<path d="M49.0739 82.571C49.9667 84.0451 50.8 85.7161 51.5678 87.4348C51.3535 87.9361 49.4965 91.9584 43.9969 93.4802L43.9493 93.4922C44.9611 97.0013 46.092 101.274 46.83 105.147L46.8776 105.386C42.7767 106.729 37.2712 107.869 30.236 107.988C23.3376 108.107 17.9094 107.302 13.8383 106.263C14.4871 101.919 15.2013 98.0397 15.8322 94.8946C9.18983 94.7215 7.1483 91.9883 6.73762 91.296C7.21973 89.6429 7.76135 87.9659 8.36845 86.3904C9.33267 83.8839 10.4516 81.64 11.7135 80.1839C16.4691 74.7054 26.385 77.0388 26.385 77.0388L26.3969 76.9016C27.0874 77.385 28.2956 77.8863 30.3371 77.9519C32.5156 78.0235 33.7833 77.3969 34.4856 76.8001V76.8359C34.4856 76.8359 40.5566 75.0098 45.1099 77.9519C46.5086 78.8531 47.8418 80.5241 49.0739 82.571Z" fill="#A17EAA"/>
<path d="M26.3969 76.9016L26.385 77.0388C26.385 77.0388 16.4691 74.7054 11.7135 80.1839C10.4516 81.6401 9.33267 83.884 8.36845 86.3905L7.58875 86.7306C7.58875 86.7306 2.42245 87.0827 1.59512 84.1406C0.607098 80.6434 3.0474 79.79 2.80932 78.1548C2.50577 76.078 -0.529727 76.1496 0.0773732 72.0438C0.577338 68.6302 3.19025 68.2363 4.42826 65.3717C5.99362 61.7492 4.62467 48.8527 8.07085 41.4228C9.49932 38.3374 11.2492 36.5232 12.9098 35.4609C15.9453 33.5273 18.6951 34.1181 18.6951 34.1181C18.6951 34.1181 19.7962 32.6322 22.0044 31.2297C25.3613 29.0932 31.3013 27.1358 39.8484 30.8716C47.2883 34.1181 49.3417 39.6563 48.3954 50.1418L47.3359 50.0463C46.4907 49.9747 45.6634 49.8673 44.848 49.724C31.5692 47.3787 22.5401 35.8906 22.5401 35.8906C22.5401 35.8906 21.8318 50.1239 15.0049 57.3509C15.0049 57.3509 13.005 55.6322 11.1064 57.4584C9.20768 59.2845 10.4754 65.7238 16.6714 64.3572C16.6714 64.3572 20.4331 69.5432 26.7898 71.0591L26.3969 76.9016Z" fill="#D691AE"/>
<path d="M45.0623 55.7277C45.0623 55.7277 45.1039 51.1921 44.848 49.724C31.5692 47.3787 22.5401 35.8906 22.5401 35.8906C22.5401 35.8906 21.8318 50.1239 15.0049 57.3509C15.0049 57.3509 13.005 55.6322 11.1064 57.4584C9.20768 59.2845 10.4754 65.7238 16.6714 64.3572C16.6714 64.3572 20.4331 69.5432 26.7898 71.0591L26.3969 76.9016C27.0874 77.385 28.2956 77.8863 30.3371 77.9519C32.5156 78.0235 33.7833 77.3969 34.4856 76.8001L34.0809 71.256L34.0393 71.065C41.4494 69.3582 45.8658 62.7757 46.2229 59.7918C46.4789 57.6553 45.0623 55.7277 45.0623 55.7277Z" fill="#F7CEB2"/>
<path opacity="0.1" d="M34.0392 71.065C32.6405 71.3933 31.1347 71.5424 29.5277 71.4589C28.5694 71.4112 27.6528 71.2739 26.7898 71.0591L26.7421 71.805C29.242 72.6883 31.7418 73.2433 34.2357 73.3686L34.0809 71.25L34.0392 71.065Z" fill="#5A287F"/>
<path d="M19.6058 22.5465C23.3317 25.3096 22.3139 30.0898 22.0044 31.2297C19.7962 32.6321 18.6951 34.1181 18.6951 34.1181C18.6951 34.1181 15.9453 33.5273 12.9098 35.4609L12.8265 35.3356C12.8265 35.3356 6.65429 34.321 8.07086 27.2193C9.31482 20.9829 16.9036 20.5473 19.6058 22.5465Z" fill="#C97F93"/>
<path d="M15.8322 94.8946C15.2013 98.0397 14.4871 101.919 13.8383 106.263C7.27329 104.586 4.22589 102.307 4.22589 102.307C4.22589 102.307 5.10678 96.9356 6.73762 91.296C7.1483 91.9883 9.18983 94.7216 15.8322 94.8946Z" fill="#F7CEB2"/>
<path d="M26.1648 76.263C26.1648 76.263 26.3017 76.3108 26.5338 76.3943C26.635 76.4241 26.766 76.46 26.9088 76.5017C27.0636 76.5435 27.2362 76.5853 27.4326 76.639C27.629 76.6808 27.8314 76.7345 28.0516 76.7762C28.2718 76.824 28.5039 76.8598 28.748 76.9016C28.986 76.9493 29.236 76.9672 29.492 76.9971C29.7419 77.0388 29.9979 77.0329 30.2538 77.0567L30.349 77.0627C30.3431 77.0627 30.3967 77.0627 30.3371 77.0627H30.3609H30.4145H30.6288L31.0514 77.0687C31.2894 77.0567 31.5275 77.0508 31.7537 77.0388C31.9799 77.003 32.218 77.003 32.4203 76.9613C32.6346 76.9314 32.831 76.8896 33.0096 76.8479C33.1941 76.8121 33.3488 76.7524 33.4976 76.7166C33.6405 76.6629 33.7655 76.6211 33.8666 76.5853C34.069 76.4958 34.188 76.448 34.188 76.448L34.2297 76.4301C34.4737 76.3287 34.7535 76.4421 34.8606 76.6867C34.932 76.8538 34.9023 77.0329 34.7951 77.1701C34.7951 77.1701 34.694 77.2955 34.4976 77.5043C34.2892 77.6953 33.9738 77.9698 33.5393 78.1906C33.4322 78.2443 33.3191 78.304 33.2 78.3637C33.081 78.4055 32.95 78.4532 32.8251 78.501C32.5632 78.6084 32.2834 78.6561 31.9918 78.7277C31.7001 78.7814 31.3668 78.8232 31.0633 78.8411L30.6407 78.8531L30.4264 78.859H30.3728H30.2836L30.1705 78.8471C29.861 78.8172 29.5515 78.8053 29.2539 78.7456C28.9563 78.6919 28.6646 78.6322 28.3849 78.5487C28.1051 78.4831 27.8433 78.3756 27.5992 78.2801C27.3492 78.1966 27.129 78.0713 26.9207 77.9698C26.7124 77.8684 26.5338 77.743 26.3731 77.6476C26.2065 77.5401 26.0636 77.4267 25.9505 77.3432C25.7541 77.1701 25.6589 77.0687 25.6589 77.0687L25.647 77.0567C25.4625 76.8598 25.4744 76.5554 25.6708 76.3764C25.8077 76.2332 26.0041 76.2033 26.1648 76.263Z" fill="#725889"/>
<path d="M17.838 86.6113C17.838 86.6113 17.7726 86.9156 17.6595 87.4527C17.5464 87.9898 17.3797 88.7597 17.2012 89.6787C17.0167 90.5978 16.8024 91.672 16.5703 92.8238C16.4512 93.3967 16.3262 93.9935 16.2012 94.5962C16.0703 95.1811 15.987 95.8196 15.8739 96.4283C15.6537 97.6637 15.4275 98.899 15.2192 100.057C14.9989 101.215 14.7966 102.289 14.624 103.214C14.2549 105.058 14.005 106.287 14.005 106.287C13.9871 106.371 13.9038 106.43 13.8205 106.413C13.7371 106.395 13.6836 106.317 13.6955 106.234C13.6955 106.234 13.88 104.992 14.1597 103.13C14.3085 102.199 14.4871 101.119 14.6716 99.9553C14.868 98.7976 15.0823 97.5622 15.2906 96.3209C15.4037 95.7003 15.4989 95.0915 15.6358 94.4769C15.7667 93.8741 15.8977 93.2773 16.0286 92.7044C16.2905 91.5586 16.5345 90.4844 16.7488 89.5653C16.9512 88.6463 17.1833 87.8943 17.3202 87.3632C17.4631 86.8321 17.5464 86.5337 17.5464 86.5337C17.5702 86.4501 17.6535 86.4024 17.7368 86.4263C17.8083 86.4501 17.8559 86.5277 17.838 86.6113Z" fill="#705A79"/>
<path d="M41.8244 86.1219C41.8244 86.1219 42.2232 87.2856 42.8124 89.0342C43.0981 89.9115 43.4314 90.932 43.7886 92.0301C43.9612 92.5851 44.1516 93.1341 44.3183 93.7369C44.479 94.3217 44.6397 94.9125 44.8063 95.5033C45.1218 96.6909 45.4372 97.8785 45.7348 98.9945C45.8717 99.5555 45.9729 100.105 46.086 100.624C46.1932 101.143 46.2943 101.632 46.3896 102.086C46.7467 103.9 46.9907 105.112 46.9907 105.112C47.0086 105.195 46.955 105.279 46.8657 105.297C46.7824 105.314 46.705 105.261 46.6812 105.183V105.171C46.6812 105.171 46.3836 103.978 45.9313 102.193C45.717 101.298 45.467 100.254 45.1992 99.1377C44.8897 98.0277 44.5623 96.8401 44.235 95.6585C44.0743 95.0617 43.9195 94.4709 43.7588 93.886C43.61 93.3251 43.4136 92.7402 43.2529 92.1912C42.9255 91.0871 42.622 90.0547 42.3541 89.1715C41.8542 87.393 41.5149 86.2114 41.5149 86.2114C41.4911 86.1279 41.5387 86.0383 41.622 86.0145C41.7113 85.9966 41.7947 86.0383 41.8244 86.1219Z" fill="#705A79"/>
<path d="M22.7008 35.7652C22.7008 35.7652 23.0103 36.0935 23.5698 36.6604C24.1292 37.2274 24.9506 38.0092 25.9684 38.9163C26.4684 39.3758 27.0457 39.8413 27.629 40.3545C28.242 40.8319 28.861 41.369 29.5455 41.8703C29.8848 42.127 30.23 42.3836 30.5752 42.6462C30.9323 42.8968 31.2954 43.1475 31.6585 43.3981C32.3727 43.9292 33.1643 44.3649 33.9143 44.8602C34.688 45.3138 35.4737 45.7673 36.2534 46.1791C36.6522 46.3761 37.045 46.573 37.4319 46.764C37.8187 46.9609 38.2056 47.1519 38.5984 47.3011C39.3841 47.6054 40.1102 47.9874 40.8542 48.2082C41.2173 48.3335 41.5744 48.4588 41.9196 48.5782C42.2649 48.7035 42.5982 48.8229 42.9255 48.8945C43.5802 49.0735 44.1814 49.2347 44.7111 49.3839C45.223 49.5151 45.7289 49.5808 46.1158 49.6584C46.9014 49.8076 47.3538 49.9031 47.3538 49.9031C47.4371 49.921 47.4847 49.9985 47.4728 50.0821C47.455 50.1537 47.3895 50.2074 47.3181 50.2015C47.3181 50.2015 46.8598 50.1776 46.0622 50.1239C45.6575 50.0821 45.1932 50.0761 44.6099 49.9926C44.0564 49.8971 43.4255 49.7837 42.741 49.6703C42.0506 49.5569 41.3364 49.3182 40.5685 49.1093C39.7888 48.9184 39.0151 48.5842 38.1997 48.2917C37.789 48.1485 37.3842 47.9695 36.9795 47.7785C36.5748 47.5935 36.1581 47.4025 35.7475 47.2116C34.932 46.7998 34.1226 46.3462 33.3191 45.8867C32.5394 45.3854 31.7358 44.9139 31.0037 44.3709C30.6347 44.1023 30.2657 43.8397 29.9026 43.5831C29.5515 43.3026 29.2063 43.0281 28.867 42.7596C28.1766 42.2344 27.5695 41.6495 26.9683 41.1303C26.3969 40.5813 25.8374 40.074 25.3672 39.5608C24.8792 39.0714 24.4566 38.594 24.0876 38.1643C23.7186 37.7406 23.4091 37.3587 23.1531 37.0483C22.6472 36.4157 22.3913 36.0278 22.3913 36.0278C22.3317 35.9383 22.3496 35.813 22.4448 35.7473C22.5222 35.6757 22.6293 35.6936 22.7008 35.7652Z" fill="#C16797"/>
<path d="M14.8561 57.2196C14.8561 57.2196 15.0585 56.9212 15.4334 56.408C15.612 56.1514 15.8739 55.853 16.0881 55.477C16.3084 55.1011 16.5524 54.6893 16.8321 54.2477C17.094 53.7881 17.3381 53.263 17.6297 52.7318C17.9154 52.1947 18.1416 51.586 18.4273 50.9892C18.6951 50.3805 18.9153 49.724 19.1832 49.0795C19.4153 48.4171 19.6415 47.7427 19.8676 47.0683C20.0641 46.382 20.2962 45.7077 20.4688 45.0273C20.6473 44.347 20.8438 43.6846 20.9866 43.0281C21.1473 42.3776 21.2961 41.745 21.4211 41.1423C21.558 40.5395 21.6592 39.9666 21.7723 39.4414C21.9687 38.3851 22.1472 37.4959 22.2365 36.8753C22.3377 36.2546 22.3972 35.8965 22.3972 35.8965C22.4091 35.813 22.4865 35.7593 22.5698 35.7712C22.6413 35.7832 22.6948 35.8428 22.6948 35.9144C22.6948 35.9144 22.7127 36.2845 22.7008 36.917C22.6829 37.5556 22.6532 38.4687 22.552 39.5548C22.4865 40.0979 22.4448 40.6887 22.3437 41.3094C22.2544 41.93 22.1651 42.5865 22.0223 43.2549C21.9032 43.9293 21.7425 44.6215 21.5759 45.3198C21.4152 46.024 21.189 46.7222 20.9985 47.4264C20.7783 48.1246 20.5283 48.8169 20.2843 49.4973C20.0045 50.1656 19.7486 50.8281 19.4451 51.4487C19.1296 52.0634 18.8558 52.6721 18.5225 53.2152C18.1892 53.7583 17.8916 54.2715 17.5702 54.7251C17.2369 55.1727 16.9214 55.5785 16.6417 55.9306C16.3679 56.2887 16.0762 56.5393 15.8679 56.772C15.4275 57.2256 15.1656 57.4762 15.1656 57.4762C15.0882 57.5538 14.9573 57.5479 14.8799 57.4703C14.8085 57.4046 14.8025 57.2972 14.8561 57.2196Z" fill="#C16797"/>
<path d="M11.7313 60.5378C11.7313 60.5437 11.7135 60.4423 11.7135 60.2991C11.7194 60.1499 11.7254 59.935 11.7968 59.6784C11.8682 59.4218 12.0111 59.1115 12.2789 58.8548C12.4098 58.7235 12.5705 58.6042 12.755 58.5266C12.8443 58.4789 12.9396 58.455 13.0288 58.4252C13.0884 58.4132 13.0943 58.3953 13.2014 58.3834L13.3145 58.3714C13.3741 58.3595 13.505 58.3595 13.6181 58.3714C13.7431 58.3714 13.8264 58.4072 13.9276 58.4252C14.118 58.4789 14.2847 58.5684 14.4335 58.6579C14.7251 58.8489 14.9335 59.0876 15.0763 59.2905C15.2251 59.4994 15.3084 59.6903 15.3739 59.8216C15.4334 59.9529 15.4572 60.0424 15.4572 60.0424C15.4929 60.1678 15.4215 60.305 15.2906 60.3408C15.2013 60.3647 15.1061 60.3349 15.0466 60.2752L15.0346 60.2632C15.0346 60.2632 14.987 60.2095 14.9037 60.12C14.8204 60.0245 14.6894 59.8992 14.5406 59.7619C14.4633 59.6903 14.3799 59.6247 14.2907 59.559C14.2014 59.4934 14.1002 59.4397 14.005 59.386C13.9038 59.3382 13.8026 59.3024 13.7014 59.2786C13.6538 59.2726 13.5943 59.2547 13.5645 59.2607C13.5288 59.2607 13.505 59.2487 13.4157 59.2666L13.3026 59.2786C13.3383 59.2666 13.2669 59.2905 13.255 59.2905C13.2014 59.3024 13.1479 59.3144 13.1062 59.3382C13.011 59.374 12.9217 59.4277 12.8443 59.4874C12.6836 59.6128 12.5586 59.7799 12.4634 59.9529C12.3741 60.12 12.2967 60.2811 12.261 60.3945C12.2194 60.5139 12.1956 60.5676 12.2015 60.5736L12.1956 60.5915C12.1479 60.7168 12.0111 60.7824 11.8861 60.7347C11.8027 60.6929 11.7492 60.6213 11.7313 60.5378Z" fill="#B38879"/>
<path d="M37.1581 45.7375C37.1759 45.7435 37.4914 45.9822 37.664 46.0956C38.0033 46.3343 38.4735 46.6088 38.9556 46.7819C39.1936 46.8833 39.4377 46.943 39.6698 47.0027C39.7829 47.0385 39.9019 47.0385 40.0091 47.0684C40.1162 47.0922 40.2233 47.0982 40.3186 47.1101C40.7114 47.1579 41.9435 46.943 42.1161 47.9635C42.2946 49.0437 40.3305 49.5152 38.6282 49.0676C36.5807 48.5305 35.7594 47.319 35.6106 46.5372C35.4677 45.8032 35.9379 45.4928 36.3962 45.4391C36.676 45.4033 37.1402 45.7316 37.1581 45.7375Z" fill="#A15A7D"/>
<path d="M24.2066 46.6625C24.1947 46.6745 23.9269 46.9729 23.784 47.1221C23.4983 47.4264 23.0996 47.7905 22.6651 48.065C22.4567 48.2142 22.2246 48.3216 22.0103 48.429C21.9032 48.4887 21.7901 48.5126 21.6889 48.5603C21.5878 48.6081 21.4866 48.6319 21.3913 48.6618C21.0164 48.7931 19.7665 48.8348 19.8081 49.8673C19.8557 50.9594 21.8794 51.0131 23.4507 50.2253C25.3375 49.2765 25.897 47.9158 25.8791 47.1221C25.8672 46.3761 25.3434 46.1672 24.8851 46.209C24.6113 46.2388 24.2245 46.6506 24.2066 46.6625Z" fill="#A15A7D"/>
<path opacity="0.4" d="M33.7774 54.5281C33.825 55.3875 32.8786 56.1395 31.6644 56.2111C30.4502 56.2767 29.4265 55.6382 29.3789 54.7728C29.3312 53.9135 30.2776 53.1615 31.4918 53.0899C32.706 53.0243 33.7297 53.6688 33.7774 54.5281Z" fill="#CA878D"/>
<path d="M30.3609 87.399C30.3609 87.399 30.4621 85.7221 28.2837 85.3162C26.1053 84.9104 24.8435 87.7511 26.1053 89.9353C27.3671 92.1196 31.0633 94.6559 31.3192 94.6022C31.5751 94.5545 30.6645 91.3557 30.6645 91.3557C30.6645 91.3557 31.6228 90.1383 31.474 89.8339C31.3133 89.5116 29.7538 89.1715 29.7538 89.1715L30.3609 87.399Z" fill="#DA9DB6"/>
<path d="M34.5392 84.7075C36.17 84.8925 37.4616 86.85 36.3605 89.4997C35.4737 91.6302 32.5155 94.5246 32.5155 94.5246C32.5155 94.5246 32.1346 92.4956 31.8311 91.5586C31.7477 91.302 32.9917 89.9354 32.8667 89.3147C32.8191 89.0939 31.2359 88.4374 31.0811 88.324C30.9323 88.2107 32.0811 84.433 34.5392 84.7075Z" fill="#DA9DB6"/>
<path d="M27.7956 60.9376C27.7956 60.9376 27.8076 60.9018 27.8373 60.8302C27.8671 60.7586 27.9028 60.6571 27.9683 60.5377C28.0932 60.299 28.2778 59.9469 28.5754 59.5829C28.8729 59.2188 29.2598 58.813 29.7657 58.4729C30.2657 58.1327 30.8788 57.8761 31.5216 57.7567C31.6049 57.7388 31.6704 57.7269 31.7775 57.709L31.9977 57.6911C32.1763 57.6791 32.3489 57.6791 32.5096 57.6911C32.8429 57.709 33.1643 57.7866 33.456 57.894C34.0512 58.1029 34.5154 58.4669 34.8606 58.7951C35.2118 59.1293 35.4201 59.4695 35.5689 59.7022C35.6403 59.8216 35.6879 59.9171 35.7177 59.9887C35.7534 60.0603 35.7653 60.1021 35.7653 60.1021C35.8308 60.2274 35.7832 60.3766 35.6641 60.4423C35.5391 60.5079 35.3903 60.4602 35.3249 60.3408C35.3308 60.3468 35.2475 60.2393 35.0868 60.0543C34.932 59.8693 34.6761 59.6306 34.3607 59.374C34.0452 59.1174 33.6286 58.8966 33.1762 58.7593C32.9441 58.6877 32.706 58.6519 32.456 58.64C32.331 58.634 32.206 58.64 32.093 58.6459L31.8727 58.6698L31.6942 58.7056C31.4323 58.7474 31.1764 58.819 30.9383 58.9145C30.6942 59.004 30.4621 59.1174 30.2419 59.2427C29.8074 59.4934 29.4265 59.7977 29.1408 60.0961C28.8491 60.3945 28.617 60.6571 28.4742 60.86C28.3254 61.0629 28.2539 61.1703 28.2539 61.1703L28.248 61.1823C28.1706 61.3016 28.0159 61.3315 27.9028 61.2539C27.7956 61.1703 27.754 61.045 27.7956 60.9376Z" fill="black"/>
<path d="M54.264 32.0592C59.6803 35.7414 66.6084 35.8787 71.2211 34.6851C81.3692 32.0473 85.9998 22.0631 83.1786 12.5146C81.1609 5.69332 70.5367 -5.19799 57.3055 2.84666C44.4968 10.6407 51.8654 29.1231 51.8654 29.1231C51.8654 29.1231 48.931 33.211 49.0144 33.5094C49.0918 33.8078 54.264 32.0592 54.264 32.0592Z" fill="#A17EAA"/>
<path d="M63.9597 23.931C63.9597 23.931 63.9538 23.8833 63.9419 23.7878C63.93 23.6923 63.9121 23.561 63.9062 23.3939C63.8943 23.0597 63.8764 22.5704 63.9776 21.9855C64.0193 21.6931 64.0966 21.3768 64.2097 21.0486C64.3169 20.7203 64.4776 20.3802 64.6799 20.046C64.9002 19.7177 65.1561 19.3895 65.4894 19.1269C65.8227 18.8584 66.1798 18.6316 66.6143 18.4884C66.906 18.375 67.4476 18.2496 67.8642 18.2616C68.0785 18.2556 68.2928 18.2735 68.4951 18.3213C68.7035 18.3511 68.8999 18.4108 69.0844 18.4824C69.4653 18.6077 69.7867 18.8046 70.0784 18.9956C70.37 19.1926 70.6081 19.4074 70.8224 19.6163C71.239 20.034 71.5128 20.4398 71.6973 20.7203C71.7925 20.8576 71.852 20.9829 71.8937 21.0605C71.9354 21.144 71.9592 21.1918 71.9592 21.1918C72.0366 21.3469 71.977 21.5379 71.8223 21.6155C71.6913 21.6811 71.5306 21.6513 71.4414 21.5439L71.4235 21.514C71.4235 21.514 71.3997 21.4842 71.3461 21.4245C71.2926 21.3649 71.2092 21.2753 71.1081 21.1619C70.9057 20.9352 70.5843 20.6308 70.1855 20.3145C69.7867 20.0042 69.2868 19.6939 68.7273 19.5327C68.5904 19.485 68.4475 19.4551 68.3047 19.4432C68.1618 19.4134 68.019 19.4193 67.8702 19.4253C67.7154 19.4134 67.5964 19.4492 67.4655 19.4671C67.3524 19.4671 67.156 19.5506 66.9893 19.6043C66.7274 19.6939 66.4477 19.855 66.2215 20.0281C65.9894 20.2131 65.787 20.4279 65.6084 20.6666C65.4477 20.9113 65.2989 21.1619 65.1799 21.4245C65.0668 21.6811 64.9716 21.9437 64.9002 22.1884C64.7573 22.6778 64.674 23.1134 64.6383 23.4118C64.6204 23.561 64.6026 23.6804 64.5966 23.7639C64.5907 23.8415 64.5847 23.8892 64.5847 23.8892V23.9072C64.5668 24.0802 64.418 24.2055 64.2395 24.1936C64.0966 24.1817 63.9836 24.0683 63.9597 23.931Z" fill="black"/>
<path d="M69.6022 14.9076C69.6022 14.9136 69.6677 14.9614 69.7927 15.0628C69.9177 15.1643 70.0962 15.3015 70.3105 15.4447C70.5248 15.588 70.7807 15.7252 71.0366 15.8028C71.1676 15.8446 71.2926 15.8565 71.4175 15.8625C71.5425 15.8685 71.6616 15.8446 71.7806 15.8088L71.8044 15.8028H71.8163C71.7985 15.8088 71.8639 15.7849 71.7747 15.8207H71.7806L71.7866 15.8148L71.852 15.7849L71.9889 15.7312C72.0782 15.6894 72.0723 15.6715 72.1258 15.6477C72.2211 15.576 72.3163 15.4985 72.3937 15.391C72.5544 15.1881 72.6675 14.9255 72.7508 14.6868C72.9055 14.2034 72.9532 13.8155 72.9532 13.8334C72.9353 13.6604 73.0603 13.5052 73.2329 13.4873C73.4055 13.4694 73.5603 13.5947 73.5781 13.7678C73.5781 13.7738 73.6138 13.8812 73.6436 14.0662C73.6733 14.2512 73.7031 14.5257 73.6733 14.8599C73.6436 15.1941 73.5603 15.6059 73.3162 16.0117C73.1912 16.2146 73.0305 16.4115 72.8222 16.5786C72.7091 16.6562 72.5544 16.7577 72.4651 16.7994L72.3342 16.8591L72.2687 16.889L72.2092 16.9128L72.1854 16.9188L72.1377 16.9307C71.8878 17.0083 71.614 17.0441 71.358 17.0203C71.0961 17.0083 70.8521 16.9367 70.6438 16.8412C70.2153 16.6562 69.9058 16.3877 69.6855 16.143C69.4594 15.8983 69.3165 15.6715 69.2213 15.5044C69.132 15.3433 69.0844 15.2299 69.0903 15.2299C68.9951 15.0867 69.0308 14.8897 69.1737 14.7943C69.3106 14.7226 69.501 14.7644 69.6022 14.9076Z" fill="black"/>
<path d="M57.7935 18.7689C57.7935 18.7748 57.859 18.8226 57.984 18.924C58.109 19.0255 58.2875 19.1627 58.5018 19.306C58.7161 19.4492 58.972 19.5864 59.2279 19.664C59.3589 19.7058 59.4839 19.7177 59.6089 19.7237C59.7339 19.7297 59.8529 19.7058 59.9719 19.67L59.9957 19.664H60.0076C59.9898 19.67 60.0553 19.6461 59.966 19.6819H59.9719L59.9779 19.676L60.0434 19.6461L60.1803 19.5924C60.2695 19.5506 60.2636 19.5327 60.3171 19.5089C60.4064 19.4372 60.5076 19.3597 60.585 19.2522C60.7457 19.0493 60.8588 18.7927 60.9421 18.548C61.0969 18.0646 61.1445 17.6767 61.1445 17.6946C61.1266 17.5216 61.2516 17.3664 61.4242 17.3485C61.5968 17.3306 61.7516 17.4559 61.7694 17.629C61.7694 17.635 61.8051 17.7424 61.8349 17.9274C61.8647 18.1124 61.8944 18.3869 61.8647 18.7211C61.8349 19.0553 61.7516 19.4671 61.5075 19.8729C61.3825 20.0758 61.2218 20.2727 61.0135 20.4398C60.9004 20.5174 60.7457 20.6189 60.6564 20.6607L60.5255 20.7203L60.46 20.7502L60.4005 20.774L60.3767 20.78L60.3291 20.7919C60.0791 20.8695 59.8053 20.9053 59.5493 20.8815C59.2875 20.8695 59.0434 20.7979 58.8351 20.7024C58.4066 20.5174 58.0971 20.2489 57.8768 20.0042C57.6507 19.7595 57.5078 19.5327 57.4126 19.3656C57.3233 19.2045 57.2757 19.0911 57.2817 19.0911C57.1864 18.9479 57.2221 18.7509 57.365 18.6555C57.5019 18.5898 57.6983 18.6256 57.7935 18.7689Z" fill="black"/>
<path d="M75.4232 15.4686C75.2625 15.5283 75.9708 18.4167 76.8874 17.8737C77.9528 17.2351 75.9946 15.2478 75.4232 15.4686Z" fill="#98C5ED"/>
<path d="M21.6294 53.263C21.6294 53.263 21.6889 53.3585 21.802 53.5315C21.9151 53.7046 22.0877 53.9433 22.3139 54.1999C22.5401 54.4506 22.8258 54.7132 23.1531 54.8922C23.4805 55.0712 23.8495 55.1607 24.2423 55.1309C24.3554 55.119 24.4149 55.119 24.5459 55.0951C24.6054 55.0772 24.6947 55.0593 24.778 55.0235C24.9447 54.9578 25.0994 54.8683 25.2423 54.749C25.528 54.5162 25.766 54.1999 25.9446 53.9075C26.1232 53.6151 26.2541 53.3406 26.3374 53.1556C26.4208 52.9705 26.4624 52.8631 26.4624 52.8631L26.4803 52.8273C26.5517 52.6662 26.7362 52.5946 26.8969 52.6662C27.0219 52.7199 27.0933 52.8452 27.0874 52.9765C27.0874 52.9765 27.0874 53.0123 27.0814 53.0839C27.0755 53.1496 27.0695 53.2451 27.0517 53.3644C27.0159 53.6031 26.9505 53.9373 26.8017 54.3312C26.6529 54.7251 26.4148 55.1786 25.9982 55.5904C25.7898 55.7933 25.5339 55.9783 25.2423 56.1096C25.0994 56.1753 24.9447 56.229 24.7602 56.2708L24.5459 56.3125L24.3138 56.3364C23.6948 56.3782 23.0341 56.1992 22.5639 55.8709C22.0818 55.5487 21.7544 55.1369 21.5401 54.7788C21.3199 54.4148 21.2009 54.0925 21.1295 53.8598C21.058 53.633 21.0342 53.4838 21.0342 53.4838C21.0045 53.3107 21.1235 53.1436 21.2961 53.1197C21.4271 53.0959 21.5461 53.1615 21.6116 53.263H21.6294Z" fill="black"/>
<path d="M20.8973 56.2827C20.8319 56.1514 21.2664 55.9903 21.6354 55.6262C21.808 55.4591 21.9627 55.2503 22.0758 55.0414C22.171 54.8743 22.6353 55.1787 22.6115 55.4353C22.5936 55.5785 22.3496 55.8411 21.9687 56.0321C21.6711 56.1813 20.9628 56.408 20.8973 56.2827Z" fill="black"/>
<path d="M22.0163 57.0167C21.933 56.8974 22.3377 56.6706 22.6413 56.2588C22.7841 56.0678 22.9031 55.8351 22.9865 55.6143C23.0519 55.4353 23.5638 55.668 23.5757 55.9186C23.5817 56.0678 23.3793 56.3603 23.0281 56.6109C22.7662 56.7959 22.1056 57.1301 22.0163 57.0167Z" fill="black"/>
<path d="M41.6697 51.6815C41.6697 51.6815 41.6935 51.8367 41.6994 52.0933C41.7054 52.3499 41.6875 52.7199 41.5804 53.1615C41.4732 53.5972 41.2649 54.1283 40.8483 54.5938C40.6459 54.8265 40.3781 55.0414 40.0864 55.1906C39.7829 55.3457 39.4793 55.4472 39.1341 55.4949C39.027 55.5128 38.8187 55.5307 38.6401 55.5248C38.4735 55.5188 38.3009 55.5009 38.1342 55.4591C37.8009 55.3815 37.4973 55.2383 37.2414 55.0653C36.7295 54.7072 36.4022 54.2596 36.182 53.8717C35.9617 53.4778 35.8427 53.1317 35.7713 52.893C35.7356 52.7736 35.7177 52.6722 35.6998 52.6065C35.6879 52.5349 35.676 52.4931 35.676 52.4931C35.6403 52.32 35.7534 52.1589 35.9201 52.1231C36.057 52.0933 36.1879 52.1589 36.2534 52.2783L36.2712 52.3141C36.2712 52.3141 36.3308 52.4215 36.4379 52.6125C36.551 52.8034 36.7176 53.072 36.9498 53.3585C37.1819 53.6389 37.4735 53.9373 37.8187 54.1283C37.9913 54.2238 38.1699 54.2894 38.3604 54.3252C38.4556 54.3431 38.5508 54.3491 38.652 54.3491C38.7472 54.3491 38.8068 54.3491 38.9675 54.3193C39.152 54.2835 39.3663 54.2238 39.5389 54.1402C39.7174 54.0507 39.8722 53.9373 40.015 53.806C40.2948 53.5375 40.5031 53.1854 40.6519 52.8572C40.7947 52.5289 40.89 52.2246 40.9495 52.0097C41.003 51.8008 41.0328 51.6815 41.0328 51.6815L41.0388 51.6576C41.0804 51.4845 41.253 51.3831 41.4256 51.4249C41.5566 51.4547 41.6459 51.5621 41.6697 51.6815Z" fill="black"/>
<path d="M42.6874 54.3073C42.7113 54.1641 42.247 54.1462 41.7827 53.9194C41.5685 53.812 41.3542 53.6628 41.1816 53.5076C41.0388 53.3763 40.6935 53.818 40.8007 54.0507C40.8602 54.188 41.1756 54.3551 41.6042 54.4148C41.9196 54.4565 42.6636 54.4506 42.6874 54.3073Z" fill="black"/>
<path d="M41.8542 55.3577C41.8958 55.2204 41.4435 55.1309 41.0209 54.8385C40.8245 54.7012 40.634 54.5222 40.4912 54.3372C40.3721 54.188 39.9614 54.5699 40.0329 54.8146C40.0745 54.9578 40.3602 55.1727 40.7709 55.298C41.0745 55.3935 41.8125 55.5009 41.8542 55.3577Z" fill="black"/>
<path opacity="0.2" d="M43.5981 59.9529C43.5981 61.5463 42.2887 62.8354 40.6697 62.8354C39.0508 62.8354 37.7414 61.5463 37.7414 59.9529C37.7414 58.3595 39.0508 57.0705 40.6697 57.0705C42.2887 57.0645 43.5981 58.3595 43.5981 59.9529Z" fill="#B34C85"/>
<path opacity="0.2" d="M26.635 61.045C26.635 62.6384 25.3256 63.9275 23.7067 63.9275C22.0877 63.9275 20.7783 62.6384 20.7783 61.045C20.7783 59.4516 22.0877 58.1626 23.7067 58.1626C25.3256 58.1626 26.635 59.4516 26.635 61.045Z" fill="#B34C85"/>
<path d="M20.8795 57.1062C20.6771 57.0525 19.1236 59.1353 20.0164 59.6247C20.9092 60.114 21.2009 57.1898 20.8795 57.1062Z" fill="#9BBEDC"/>
</g>
<defs>
<clipPath id="clip0_1_4690">
<rect width="84" height="108" fill="white"/>
</clipPath>
</defs>
</svg>
