<svg width="40" height="40" viewBox="0 0 40 40" fill="none" xmlns="http://www.w3.org/2000/svg">
<path d="M39.9455 23.8456C39.9171 24.4238 39.7604 25.2298 39.581 26.0216C39.3474 27.0527 38.7778 27.9527 38.1853 28.8243C38.1426 28.887 38.0913 28.9411 38.0572 29.0066C37.4647 30.143 36.6216 31.1086 35.8726 32.1396C35.4567 32.7121 34.8871 33.1365 34.3943 33.6378C33.2921 34.7572 32.0303 35.6942 30.8255 36.694C30.1049 37.2921 29.2988 37.745 28.4102 38.1067C27.4105 38.5168 26.3936 38.776 25.3398 38.9725C24.605 39.1093 23.8587 39.1748 23.1353 39.377C22.765 39.4795 22.4375 39.7045 22.0359 39.7159C21.0219 39.7416 20.0193 39.9295 19.0025 39.8954C18.6835 39.884 18.3616 39.9068 18.0455 39.9495C16.9005 40.1004 15.7897 39.8042 14.6732 39.6561C13.8814 39.5479 13.1722 39.1235 12.5085 38.6706C11.7651 38.1636 10.9876 37.725 10.153 37.3832C9.09349 36.9446 8.21338 36.2297 7.34183 35.5176C5.92341 34.3613 4.67873 33.0283 3.5195 31.627C2.29191 30.1402 1.30642 28.511 0.899125 26.5913C0.71399 25.7226 0.389292 24.8852 0.275362 23.9965C0.215549 23.5408 0.238335 23.0851 0.24688 22.6322C0.269666 21.3648 -0.0265503 20.1087 0.00193203 18.8242C0.0588967 16.2807 -0.262953 13.6375 1.16116 11.3846C1.52004 10.8178 1.82765 10.2225 2.13811 9.63006C2.53971 8.86388 3.0296 8.16037 3.70463 7.59357C4.47935 6.94417 5.20565 6.22927 6.12278 5.76216C6.23386 5.70519 6.3364 5.6169 6.419 5.5229C7.32189 4.46906 8.42985 3.64592 9.68022 3.09906C10.9733 2.53226 12.161 1.76609 13.4741 1.24771C14.8697 0.695152 16.2796 0.162532 17.7891 0.102719C18.9712 0.0542995 20.1617 -0.0938086 21.3409 0.0884783C22.0786 0.202408 22.802 0.401784 23.5283 0.575526C24.6078 0.837563 25.693 1.10245 26.6785 1.62368C28.1083 2.38415 29.5894 3.04494 30.948 3.94214C31.623 4.38931 32.2866 4.85072 32.9246 5.34631C33.2664 5.6112 33.5285 5.94729 33.8047 6.27199C34.4171 6.99259 35.0238 7.72174 35.6191 8.45943C35.9836 8.9066 36.1403 9.4791 36.5049 9.92912C36.7527 10.2339 36.952 10.5785 37.2084 10.8776C37.8378 11.6096 38.003 12.5353 38.2907 13.4068C38.4758 13.9736 38.7037 14.5176 38.943 15.0645C39.2192 15.6968 39.4044 16.349 39.4015 17.0611C39.3987 17.7646 39.4442 18.4738 39.6322 19.1688C40.0253 20.6214 40.0538 22.111 39.9455 23.8456Z" fill="#FFD561"/>
<path d="M19.4155 20.0831C20.4323 19.6957 21.4862 19.4052 22.5571 19.2143C22.6596 19.6273 22.6995 20.0574 22.6767 20.4847C22.671 20.5786 22.6596 20.6783 22.597 20.7467C22.5429 20.8065 22.4603 20.8264 22.3805 20.8464C20.5035 21.3163 18.5753 21.5755 16.6413 21.6211C16.5872 21.6211 16.5302 21.6211 16.4875 21.5926C16.4106 21.5385 16.4163 21.4246 16.4306 21.3306C16.5502 20.6299 16.7695 18.9324 17.4588 18.4994C18.3987 17.9099 19.444 19.2371 19.4155 20.0831Z" fill="#D6674C"/>
<path d="M10.1075 8.86389C10.7911 8.91231 10.7882 8.9237 10.5148 9.55601C10.0961 10.5216 9.53214 11.396 8.91692 12.2447C8.68052 12.5694 8.46975 12.9112 8.27037 13.2587C8.18208 13.4097 8.08524 13.4723 7.91719 13.4552C7.71782 13.4353 7.51559 13.4296 7.31622 13.4068C6.96019 13.3669 6.91461 13.273 7.11399 12.9653C7.47856 12.4071 7.83174 11.8431 8.22765 11.3105C8.75457 10.5985 9.1106 9.80381 9.42391 8.98636C9.47233 8.86104 9.54638 8.82401 9.66031 8.83256C9.81411 8.83826 9.96222 8.8525 10.1075 8.86389Z" fill="#292929"/>
<path d="M31.5204 11.1253C31.4834 11.1595 31.4435 11.2136 31.3923 11.2421C31.1274 11.3988 30.834 11.4757 30.5378 11.5469C30.4353 11.5725 30.3555 11.5156 30.2814 11.4529C29.7602 11.0057 29.1706 10.6554 28.6124 10.2623C28.0741 9.88067 27.6098 9.39362 27.1228 8.94645C26.969 8.80404 26.8294 8.64169 26.6927 8.48504C26.5075 8.27142 26.5275 8.1461 26.7667 8.00653C27.0145 7.86127 27.2908 7.79292 27.5671 7.72741C27.6383 7.71032 27.7066 7.70177 27.7579 7.78437C28.3276 8.69296 29.1535 9.33381 30.0137 9.93764C30.4808 10.2652 30.9707 10.5585 31.3923 10.9431C31.4407 10.9886 31.5147 11.0228 31.5204 11.1253Z" fill="#292929"/>
<path d="M23.7106 20.4648C23.7021 20.2227 23.7448 19.9806 23.7619 19.7385C23.8018 19.1688 23.8502 18.602 23.7277 18.0324C23.5369 17.1523 23.0014 16.5 22.2296 16.1354C21.6343 15.8535 20.9279 15.8449 20.2728 16.0073C18.7433 16.3889 17.6297 17.3659 16.6869 18.5764C16.0603 19.3824 15.9691 20.3394 15.9321 21.3078C15.9264 21.4873 16.046 21.5044 16.1799 21.5271C16.5673 21.5927 16.9518 21.5784 17.3448 21.5556C18.7519 21.473 20.1674 21.5699 21.5659 21.3078C22.1441 21.1996 22.7337 21.1483 23.3005 20.9803C23.5568 20.9062 23.7192 20.7695 23.7106 20.4648ZM22.184 20.7296C21.6457 20.8834 21.0817 20.9091 20.5406 21.0287C19.5522 21.2509 18.5411 21.0914 17.5499 21.2338C17.2879 21.2708 17.211 21.1797 17.211 20.8863C17.211 19.2429 18.2306 18.2203 19.3585 17.2548C19.8484 16.8361 20.4266 16.5855 21.0191 16.3576C21.1843 16.2949 21.301 16.3263 21.4491 16.4317C22.315 17.044 22.6027 17.9013 22.5514 18.9153C22.5429 19.1147 22.5201 19.3169 22.5058 19.5163C22.5115 19.5163 22.5144 19.5163 22.5201 19.5163C22.4973 19.8125 22.4631 20.1059 22.4546 20.4021C22.4489 20.5929 22.3634 20.6784 22.184 20.7296Z" fill="#292929"/>
<path d="M14.4425 16.9414C14.4881 16.8133 14.5194 16.6823 14.3855 16.5968C14.152 16.4487 13.9384 16.2379 13.6678 16.1867C12.9329 16.0414 12.2921 15.6654 11.5971 15.429C10.8366 15.1698 10.0705 14.922 9.25017 14.9904C8.6378 15.0388 8.01404 15.0986 7.53554 15.523C6.4703 16.4658 5.76963 17.5908 5.85223 19.0776C5.89496 19.8637 5.9861 20.6242 6.60986 21.2081C6.72949 21.322 6.80924 21.4844 6.88614 21.6325C7.01716 21.8917 7.00007 22.1509 6.81778 22.3816C6.36776 22.9484 5.89496 23.4981 5.32816 23.9566C4.63604 24.5149 4.05215 25.15 3.83568 26.0472C3.73315 26.4659 3.78442 26.8163 4.15184 27.0982C4.41388 27.3005 4.64173 27.5426 4.89238 27.7562C5.28543 28.0923 5.30252 28.4369 4.90092 28.7872C4.59616 29.055 4.28855 29.3227 3.95246 29.5449C3.4939 29.8468 3.0923 30.1971 2.74481 30.593C2.99261 30.9433 3.2518 31.2851 3.52808 31.6184C4.68731 33.0226 5.93198 34.3555 7.3504 35.5091C8.22196 36.2211 9.10206 36.9389 10.1616 37.3747C10.3268 37.443 10.4863 37.5171 10.6487 37.5911C11.1272 37.4373 11.375 37.1098 11.4177 36.6284C11.4775 35.9562 11.5772 35.2869 11.4576 34.6005C11.2582 33.4754 11.1386 32.3361 10.6373 31.2851C10.5433 31.0858 10.5803 30.8978 10.7199 30.7183C10.9392 30.4307 11.1499 30.1373 11.3522 29.8354C11.8364 29.1119 12.4316 28.4568 12.7592 27.6366C13.1523 26.6454 13.3659 25.677 12.4601 24.8168C12.1924 24.5633 12.1924 24.2073 12.1895 23.8626C12.181 23.1591 12.5399 22.5866 12.8475 21.9914C13.1352 21.436 13.4513 20.8891 13.5083 20.2454C13.5254 20.0432 13.5197 19.8466 13.457 19.6501C13.269 19.0577 13.5909 18.582 13.8444 18.0921C14.0324 17.7105 14.2944 17.3573 14.4425 16.9414Z" fill="#8CBBE8"/>
<path d="M37.1628 28.9895C37.1713 28.8499 37.1656 28.7132 37.1144 28.5936C36.8666 28.0069 36.6102 27.4344 36.2713 26.9359C35.9181 26.4204 35.545 25.939 35.1975 25.4178C34.9582 25.0589 34.8927 24.6232 35.0351 24.119C35.1861 23.575 35.3086 23.0167 35.4652 22.4756C35.5763 22.0911 35.6646 21.698 35.6561 21.2964C35.6361 20.4078 35.5535 19.5561 34.8956 19.1403C34.756 19.052 34.6165 18.9666 34.4655 18.9238C34.0639 18.8042 33.6595 18.6903 33.255 18.5792C32.8506 18.4681 32.8449 18.4681 32.7907 17.8985C32.711 17.0753 32.5116 16.3319 32.0502 15.8079C31.5518 15.2382 31.0505 14.66 30.3697 14.5262C29.7289 14.398 29.0852 14.2812 28.4329 14.2356C27.7636 14.1901 27.08 14.21 26.4762 13.7543C26.331 13.7429 26.1828 13.7315 26.0376 13.7201C25.6274 13.6831 25.4651 14.0932 25.317 14.5262C25.2657 14.6771 25.2486 14.8366 25.2344 14.9961C25.2002 15.4319 25.1575 15.8677 25.1318 16.3006C25.0863 17.0355 25.2287 17.682 25.579 18.1975C25.8382 18.5792 26.0518 19.0064 26.2711 19.4308C26.4363 19.747 26.5901 20.0831 26.8095 20.3195C27.1455 20.6869 27.3107 21.1711 27.3592 21.7578C27.4446 22.786 27.4845 23.8057 26.9946 24.7485C26.8664 24.9934 26.7924 25.2811 26.7439 25.583C26.6386 26.2523 26.5417 26.9217 26.499 27.5967C26.4022 29.1034 26.7582 30.3139 27.6497 31.1057C28.1168 31.5187 28.47 32.0485 28.7406 32.7036C29.0339 33.4071 29.0254 34.1961 28.7776 34.9138C28.4301 35.9192 28.2621 37.0044 27.8975 37.9984C27.8548 38.1124 27.8405 38.2149 27.8405 38.3089C28.0285 38.2434 28.2165 38.175 28.4045 38.101C29.2931 37.7393 30.0992 37.2864 30.8198 36.6883C32.0246 35.6885 33.2863 34.7515 34.3886 33.6321C34.8813 33.1308 35.451 32.7064 35.8668 32.1339C36.0662 31.8605 36.2713 31.5928 36.4764 31.3222C36.5105 31.251 36.5419 31.1798 36.5817 31.1114C36.9435 30.4905 37.1115 29.7642 37.1628 28.9895Z" fill="#8CBBE8"/>
<path d="M11.5344 13.7372C12.0243 13.1305 12.8389 12.6634 13.5595 12.766C13.7475 12.7945 13.9383 12.8087 14.1291 12.8144C15.0975 12.8514 15.3766 13.5151 15.4023 14.2983C15.4308 15.1699 14.9978 15.8563 14.4709 16.4915C14.3029 16.6937 14.0494 16.7791 13.793 16.7991C13.2234 16.8418 12.6537 16.7848 12.0955 16.6652C11.1442 16.4658 10.8878 15.056 11.1983 14.2955C11.2752 14.1046 11.3891 13.9138 11.5344 13.7372Z" fill="#FEFEFE"/>
<path d="M27.889 11.846C26.6272 11.4131 24.0296 11.5099 24.1493 13.3442C24.1692 13.666 24.3088 13.9679 24.4455 14.2641C24.5138 14.4123 24.585 14.5632 24.679 14.6971C25.0066 15.1613 25.5876 15.4006 26.1544 15.5459C26.4791 15.6285 26.8152 15.6911 27.1456 15.6455C28.0941 15.5088 28.8118 14.7512 29.0055 13.9138C29.1878 13.1362 28.7349 12.1365 27.889 11.846Z" fill="#FDFDFD"/>
<path d="M11.6654 13.8454C12.0813 13.6916 12.5057 13.5578 12.9073 13.3783C13.4 13.1562 13.8985 13.2274 14.3997 13.2929C14.5365 13.31 14.6418 13.3812 14.6248 13.5435C14.6048 13.7742 14.6219 14.0135 14.5194 14.2299C14.263 14.7739 14.075 15.3493 13.7418 15.8563C13.7076 15.9104 13.6877 15.9731 13.6507 16.0215C13.5253 16.1867 13.5738 16.4914 13.3402 16.5427C13.0098 16.6111 12.668 16.537 12.3319 16.4857C12.2237 16.4686 12.1952 16.3775 12.2522 16.2664C12.3633 16.05 12.4544 15.8221 12.574 15.6142C12.8845 15.0844 13.0753 14.5062 13.326 13.9309C12.6253 14.1274 11.993 14.5461 11.2382 14.4407C11.0502 14.3382 10.7967 14.4293 10.6059 14.2242C10.979 14.1018 11.3464 14.0363 11.6654 13.8454Z" fill="#292929"/>
<path d="M24.3002 12.9369C24.9951 12.6634 25.6787 12.3615 26.3879 12.1251C26.8009 11.9884 27.2424 12.108 27.6668 12.1878C27.7209 12.1992 27.7921 12.239 27.7893 12.3131C27.7893 12.3758 27.7238 12.4014 27.6782 12.4014C27.1399 12.3985 26.7155 12.7403 26.2227 12.8827C26.0006 12.9454 25.7898 13.0422 25.5221 13.1448C26.1914 13.7828 26.6272 14.6031 27.362 15.1613C27.4703 15.2923 27.5044 15.4205 27.2766 15.4148C26.8152 15.4063 26.3281 15.4632 25.9863 15.0389C25.8553 15.0189 25.73 14.9648 25.6645 14.8566C25.4537 14.5119 25.1062 14.2841 24.9012 13.9366C24.7844 13.7401 24.6106 13.5777 24.4454 13.4154C24.3628 13.3328 24.2432 13.2559 24.2802 13.1049C24.2859 13.0479 24.2916 12.9938 24.3002 12.9369Z" fill="#292A2A"/>
</svg>
