<svg width="44" height="44" viewBox="0 0 44 44" fill="none" xmlns="http://www.w3.org/2000/svg">
<path d="M21.9785 30.3574C20.2985 30.3574 18.6704 29.7749 17.3717 28.7091C16.073 27.6434 15.184 26.1602 14.8562 24.5125C14.5285 22.8647 14.7822 21.1543 15.5741 19.6726C16.3661 18.191 17.6473 17.0297 19.1994 16.3868C20.7516 15.7438 22.4786 15.659 24.0863 16.1467C25.694 16.6343 27.0829 17.6644 28.0163 19.0613C28.9497 20.4581 29.3698 22.1355 29.2052 23.8074C29.0405 25.4794 28.3012 27.0425 27.1133 28.2305C26.4405 28.9069 25.6403 29.4432 24.7589 29.8083C23.8776 30.1734 22.9325 30.36 21.9785 30.3574ZM21.9785 17.9824C21.1377 17.9825 20.3098 18.1899 19.5682 18.5863C18.8267 18.9828 18.1944 19.5559 17.7272 20.2551C17.2601 20.9543 16.9726 21.7578 16.8902 22.5946C16.8078 23.4315 16.9331 24.2757 17.2548 25.0525C17.5766 25.8294 18.085 26.5149 18.735 27.0483C19.385 27.5817 20.1565 27.9467 20.9812 28.1107C21.8059 28.2748 22.6584 28.2329 23.463 27.9889C24.2677 27.7448 24.9997 27.3061 25.5943 26.7115C26.3095 25.9964 26.7966 25.0853 26.9939 24.0934C27.1912 23.1014 27.09 22.0733 26.7029 21.1389C26.3159 20.2045 25.6604 19.4059 24.8195 18.844C23.9785 18.2822 22.9899 17.9824 21.9785 17.9824Z" fill="#FC8861"/>
<path d="M32.8023 34.8691H11.1977C9.85224 34.8677 8.56235 34.3325 7.611 33.3812C6.65965 32.4298 6.12453 31.1399 6.12305 29.7945V17.4281C6.12453 16.0827 6.65965 14.7928 7.611 13.8415C8.56235 12.8901 9.85224 12.355 11.1977 12.3535H14.9596L15.2891 10.6614C15.3997 10.0977 15.7025 9.58983 16.1458 9.22449C16.5891 8.85916 17.1454 8.65901 17.7199 8.6582H26.2801C26.8545 8.65899 27.4108 8.85908 27.8541 9.22433C28.2974 9.58958 28.6002 10.0973 28.7109 10.661L29.0404 12.3535H32.8023C34.1478 12.355 35.4376 12.8901 36.389 13.8415C37.3404 14.7928 37.8755 16.0827 37.877 17.4281V29.7945C37.8755 31.1399 37.3404 32.4298 36.389 33.3812C35.4376 34.3325 34.1478 34.8677 32.8023 34.8691ZM11.1977 14.502C10.4219 14.5029 9.67811 14.8114 9.12954 15.36C8.58098 15.9086 8.27239 16.6523 8.27148 17.4281V29.7945C8.27239 30.5703 8.58098 31.3141 9.12954 31.8626C9.67811 32.4112 10.4219 32.7198 11.1977 32.7207H32.8023C33.5781 32.7198 34.3219 32.4112 34.8705 31.8626C35.419 31.3141 35.7276 30.5703 35.7285 29.7945V17.4281C35.7276 16.6523 35.419 15.9086 34.8705 15.36C34.3219 14.8114 33.5781 14.5029 32.8023 14.502H28.1553C27.906 14.502 27.6645 14.4153 27.4721 14.2568C27.2797 14.0983 27.1485 13.8778 27.1008 13.6331L26.602 11.0722C26.5873 10.9975 26.5473 10.9302 26.4886 10.8818C26.4299 10.8334 26.3562 10.8068 26.2801 10.8066H17.7199C17.6438 10.8068 17.5701 10.8334 17.5114 10.8818C17.4527 10.9302 17.4127 10.9975 17.398 11.0722L16.8992 13.6331C16.8515 13.8778 16.7203 14.0983 16.5279 14.2568C16.3355 14.4153 16.094 14.502 15.8447 14.502H11.1977Z" fill="#FD7B4B"/>
</svg>
