<svg width="98" height="98" viewBox="0 0 98 98" fill="none" xmlns="http://www.w3.org/2000/svg">
<path d="M85.2689 54.4782C88.4562 34.3862 74.7329 15.5175 54.617 12.3339C34.5011 9.15037 15.6101 22.8574 12.4227 42.9495C9.2354 63.0416 22.9587 81.9103 43.0746 85.0938C63.1905 88.2774 82.0815 74.5703 85.2689 54.4782Z" fill="white"/>
<path d="M90.5181 55.8014C94.4345 32.8066 78.9464 10.9946 55.9244 7.08285C32.9024 3.17109 11.0646 18.6409 7.14815 41.6356C3.23175 64.6303 18.7199 86.4423 41.7419 90.3541C64.7638 94.2659 86.6017 78.7961 90.5181 55.8014Z" stroke="white" stroke-width="2" stroke-miterlimit="10"/>
<g filter="url(#filter0_d_7_9251)">
<path d="M49.0354 57.3574C47.3553 57.3574 45.7273 56.7749 44.4286 55.7091C43.1299 54.6434 42.2409 53.1602 41.9131 51.5125C41.5853 49.8647 41.839 48.1543 42.631 46.6726C43.4229 45.191 44.7041 44.0297 46.2563 43.3868C47.8084 42.7438 49.5355 42.659 51.1432 43.1467C52.7509 43.6343 54.1398 44.6644 55.0731 46.0613C56.0065 47.4581 56.4267 49.1355 56.262 50.8074C56.0974 52.4794 55.3581 54.0425 54.1701 55.2305C53.4974 55.9069 52.6972 56.4432 51.8158 56.8083C50.9344 57.1734 49.9894 57.36 49.0354 57.3574ZM49.0354 44.9824C48.1945 44.9825 47.3667 45.1899 46.6251 45.5863C45.8836 45.9828 45.2512 46.5559 44.7841 47.2551C44.317 47.9543 44.0295 48.7578 43.9471 49.5946C43.8647 50.4315 43.9899 51.2757 44.3117 52.0525C44.6335 52.8294 45.1419 53.5149 45.7919 54.0483C46.4419 54.5817 47.2134 54.9467 48.0381 55.1107C48.8628 55.2748 49.7152 55.2329 50.5199 54.9889C51.3245 54.7448 52.0566 54.3061 52.6512 53.7115C53.3664 52.9964 53.8534 52.0853 54.0508 51.0934C54.2481 50.1014 54.1468 49.0733 53.7598 48.1389C53.3727 47.2045 52.7173 46.4059 51.8764 45.844C51.0354 45.2822 50.0467 44.9824 49.0354 44.9824Z" fill="#E0E0E0"/>
<path d="M59.8592 61.8691H38.2545C36.9091 61.8677 35.6192 61.3325 34.6679 60.3812C33.7165 59.4298 33.1814 58.1399 33.1799 56.7945V44.4281C33.1814 43.0827 33.7165 41.7928 34.6679 40.8415C35.6192 39.8901 36.9091 39.355 38.2545 39.3535H42.0165L42.346 37.6614C42.4566 37.0977 42.7593 36.5898 43.2027 36.2245C43.646 35.8592 44.2023 35.659 44.7768 35.6582H53.337C53.9114 35.659 54.4677 35.8591 54.911 36.2243C55.3543 36.5896 55.6571 37.0973 55.7677 37.661L56.0973 39.3535H59.8592C61.2046 39.355 62.4945 39.8901 63.4459 40.8415C64.3972 41.7928 64.9324 43.0827 64.9338 44.4281V56.7945C64.9324 58.1399 64.3972 59.4298 63.4459 60.3812C62.4945 61.3325 61.2046 61.8677 59.8592 61.8691ZM38.2545 41.502C37.4788 41.5029 36.735 41.8114 36.1864 42.36C35.6379 42.9086 35.3293 43.6523 35.3284 44.4281V56.7945C35.3293 57.5703 35.6379 58.3141 36.1864 58.8626C36.735 59.4112 37.4788 59.7198 38.2545 59.7207H59.8592C60.635 59.7198 61.3788 59.4112 61.9273 58.8626C62.4759 58.3141 62.7845 57.5703 62.7854 56.7945V44.4281C62.7845 43.6523 62.4759 42.9086 61.9273 42.36C61.3788 41.8114 60.635 41.5029 59.8592 41.502H55.2122C54.9629 41.502 54.7214 41.4153 54.529 41.2568C54.3366 41.0983 54.2054 40.8778 54.1577 40.6331L53.6588 38.0722C53.6442 37.9975 53.6041 37.9302 53.5455 37.8818C53.4868 37.8334 53.4131 37.8068 53.337 37.8066H44.7768C44.7007 37.8068 44.627 37.8334 44.5683 37.8818C44.5096 37.9302 44.4696 37.9975 44.4549 38.0722L43.9561 40.6331C43.9084 40.8778 43.7771 41.0983 43.5848 41.2568C43.3924 41.4153 43.1509 41.502 42.9016 41.502H38.2545Z" fill="#FD7B4B"/>
</g>
<defs>
<filter id="filter0_d_7_9251" x="18.0569" y="20" width="62" height="62" filterUnits="userSpaceOnUse" color-interpolation-filters="sRGB">
<feFlood flood-opacity="0" result="BackgroundImageFix"/>
<feColorMatrix in="SourceAlpha" type="matrix" values="0 0 0 0 0 0 0 0 0 0 0 0 0 0 0 0 0 0 127 0" result="hardAlpha"/>
<feOffset dy="2"/>
<feGaussianBlur stdDeviation="4.5"/>
<feComposite in2="hardAlpha" operator="out"/>
<feColorMatrix type="matrix" values="0 0 0 0 0.992157 0 0 0 0 0.478431 0 0 0 0 0.294118 0 0 0 0.5 0"/>
<feBlend mode="normal" in2="BackgroundImageFix" result="effect1_dropShadow_7_9251"/>
<feBlend mode="normal" in="SourceGraphic" in2="effect1_dropShadow_7_9251" result="shape"/>
</filter>
</defs>
</svg>
