<svg width="16" height="22" viewBox="0 0 16 22" fill="none" xmlns="http://www.w3.org/2000/svg">
<path d="M9 14.6098V16.5H12C12.2652 16.5 12.5195 16.5966 12.707 16.7685C12.8945 16.9404 12.9998 17.1736 12.9998 17.4167C12.9998 17.6598 12.8945 17.8929 12.707 18.0648C12.5195 18.2367 12.2652 18.3333 12 18.3333H9V21.0833C9 21.3264 8.89464 21.5596 8.70711 21.7315C8.51957 21.9034 8.26522 22 8 22C7.73478 22 7.48043 21.9034 7.29289 21.7315C7.10536 21.5596 7 21.3264 7 21.0833V18.3333H4C3.73481 18.3333 3.4805 18.2367 3.29299 18.0648C3.10549 17.8929 3.00015 17.6598 3.00015 17.4167C3.00015 17.1736 3.10549 16.9404 3.29299 16.7685C3.4805 16.5966 3.73481 16.5 4 16.5H7V14.6098C3.0535 14.1588 0 11.0733 0 7.33333C0 3.28304 3.5815 0 8 0C12.4185 0 16 3.28304 16 7.33333C16 11.0733 12.9465 14.1588 9 14.6098ZM2 7.33333C2 10.3707 4.6865 12.8333 8 12.8333C11.3135 12.8333 14 10.3707 14 7.33333C14 4.29596 11.3135 1.83333 8 1.83333C4.6865 1.83333 2 4.29596 2 7.33333Z" fill="#FF7214"/>
</svg>
